<svg width="320" height="150" viewBox="0 0 320 150" fill="none" xmlns="http://www.w3.org/2000/svg">
<g clip-path="url(#clip0_216_58)">
<rect width="320" height="150" fill="white"/>
<path d="M320 -50H0V200H320V-50Z" fill="url(#paint0_linear_216_58)"/>
<path opacity="0.5" d="M230.275 158.526C298.398 158.526 353.622 137.772 353.622 112.171C353.622 86.5706 298.398 65.8162 230.275 65.8162C162.153 65.8162 106.929 86.5706 106.929 112.171C106.929 137.772 162.153 158.526 230.275 158.526Z" stroke="url(#paint1_linear_216_58)" stroke-width="0.24271" stroke-miterlimit="10"/>
<path opacity="0.5" d="M230.222 172C318.157 172 389.444 145.213 389.444 112.171C389.444 79.1293 318.157 52.3428 230.222 52.3428C142.286 52.3428 71 79.1293 71 112.171C71 145.213 142.286 172 230.222 172Z" stroke="url(#paint2_linear_216_58)" stroke-width="0.24271" stroke-miterlimit="10"/>
<g style="mix-blend-mode:overlay" opacity="0.2">
<path d="M230.275 145.481C279.263 145.481 318.975 130.568 318.975 112.171C318.975 93.7748 279.263 78.8621 230.275 78.8621C181.288 78.8621 141.575 93.7748 141.575 112.171C141.575 130.568 181.288 145.481 230.275 145.481Z" fill="url(#paint3_linear_216_58)"/>
</g>
<g style="mix-blend-mode:overlay">
<path d="M230.275 145.481C279.263 145.481 318.975 130.568 318.975 112.171C318.975 93.7748 279.263 78.8621 230.275 78.8621C181.288 78.8621 141.575 93.7748 141.575 112.171C141.575 130.568 181.288 145.481 230.275 145.481Z" stroke="url(#paint4_linear_216_58)" stroke-width="0.148193" stroke-miterlimit="10"/>
</g>
<g style="mix-blend-mode:overlay">
<path d="M279.479 112.157C279.479 122.376 257.44 130.66 230.253 130.66C203.065 130.66 181.027 122.377 181.027 112.157C181.027 101.938 203.065 93.655 230.253 93.655C257.44 93.655 279.479 101.938 279.479 112.157Z" fill="url(#paint5_linear_216_58)"/>
</g>
<g style="mix-blend-mode:soft-light">
<path d="M256.099 112.171C256.099 117.516 244.538 121.849 230.275 121.849C216.013 121.849 204.451 117.516 204.451 112.171C204.451 106.827 216.013 102.494 230.275 102.494C244.538 102.494 256.099 106.827 256.099 112.171Z" fill="url(#paint6_linear_216_58)" fill-opacity="0.5"/>
</g>
<path d="M230.253 130.659C257.44 130.659 279.479 122.375 279.479 112.156C279.479 101.938 257.44 93.6538 230.253 93.6538C203.065 93.6538 181.027 101.938 181.027 112.156C181.027 122.375 203.066 130.659 230.253 130.659Z" stroke="url(#paint7_linear_216_58)" stroke-width="0.148193" stroke-miterlimit="10"/>
<path d="M230.253 130.742C220.963 130.742 211.859 129.758 203.989 127.903L204.251 127.746C212.044 129.582 221.056 130.556 230.253 130.556V130.742Z" fill="url(#paint8_linear_216_58)"/>
<path d="M306.49 94.795C316.511 101.042 320.836 108.347 318.809 115.601C316.78 122.856 308.51 129.663 295.255 134.989C281.998 140.314 264.485 143.865 245.372 145.102C226.261 146.339 206.598 145.196 189.374 141.845L189.782 141.548C206.835 144.866 226.302 145.998 245.222 144.773C264.142 143.549 281.482 140.033 294.604 134.76C307.727 129.489 315.914 122.749 317.923 115.567C319.931 108.385 315.65 101.151 305.73 94.9682L306.492 94.7961L306.49 94.7939V94.795Z" fill="url(#paint9_linear_216_58)"/>
<path d="M180.806 112.158C180.806 108.666 183.423 105.247 188.356 102.288C193.289 99.33 200.339 96.954 208.698 95.4324L208.914 95.5992C200.639 97.1059 193.66 99.4584 188.775 102.387C183.892 105.315 181.301 108.702 181.301 112.158H180.806Z" fill="url(#paint10_linear_216_58)"/>
<path d="M228.028 93.5866C236.826 93.4391 245.571 94.1758 253.358 95.7231C261.145 97.2704 267.69 99.5705 272.318 102.387L271.897 102.486C267.315 99.6978 260.833 97.4201 253.126 95.8878C245.417 94.3555 236.761 93.6262 228.05 93.7727L228.028 93.5866Z" fill="url(#paint11_linear_216_58)"/>
<path d="M275.21 105.452C275.667 105.452 276.038 105.081 276.038 104.623C276.038 104.166 275.667 103.795 275.21 103.795C274.753 103.795 274.381 104.166 274.381 104.623C274.381 105.081 274.752 105.452 275.21 105.452Z" fill="#FDF9DA"/>
<path d="M181.185 112.985C181.643 112.985 182.014 112.614 182.014 112.157C182.014 111.699 181.643 111.328 181.185 111.328C180.727 111.328 180.356 111.699 180.356 112.157C180.356 112.614 180.727 112.985 181.185 112.985Z" fill="#E87884"/>
<path d="M231.846 130.748C223.048 130.896 214.302 130.158 206.516 128.611C198.729 127.064 192.184 124.764 187.556 121.947L187.977 121.849C192.559 124.636 199.039 126.914 206.747 128.446C214.457 129.979 223.113 130.708 231.824 130.561L231.846 130.748Z" fill="url(#paint12_linear_216_58)"/>
<path d="M231.846 129.851C231.388 129.851 231.017 130.222 231.017 130.679C231.017 131.137 231.388 131.508 231.846 131.508C232.304 131.508 232.674 131.137 232.674 130.679C232.674 130.222 232.304 129.851 231.846 129.851Z" fill="#FFFDD8"/>
<g opacity="0.35">
<path d="M255.992 111.902C255.992 117.395 244.455 121.849 230.222 121.849C215.989 121.849 204.451 117.396 204.451 111.902V27L255.992 28.6489V111.902Z" fill="url(#paint13_radial_216_58)"/>
</g>
<g clip-path="url(#clip1_216_58)">
<mask id="mask0_216_58" style="mask-type:luminance" maskUnits="userSpaceOnUse" x="207" y="53" width="46" height="47">
<path d="M252.692 53.873H207.419V99.1464H252.692V53.873Z" fill="white"/>
</mask>
<g mask="url(#mask0_216_58)">
<path d="M207.992 76.5099C207.992 88.6956 217.87 98.5732 230.056 98.5732C242.241 98.5732 252.119 88.6945 252.119 76.5099C252.119 64.3252 242.24 54.4465 230.056 54.4465C217.871 54.4465 207.992 64.3242 207.992 76.5099Z" fill="url(#paint14_radial_216_58)" stroke="url(#paint15_linear_216_58)" stroke-width="1.25125"/>
<path fill-rule="evenodd" clip-rule="evenodd" d="M220.071 71.1764L220.63 69.4501C220.743 69.0989 221.02 68.826 221.373 68.7181L223.108 68.185C223.348 68.112 223.349 67.7725 223.111 67.6953L221.385 67.1367C221.034 67.0236 220.761 66.7464 220.653 66.3942L220.12 64.6594C220.046 64.4203 219.707 64.4172 219.63 64.6562L219.071 66.3825C218.958 66.7327 218.681 67.0066 218.328 67.1145L216.593 67.6477C216.353 67.7217 216.351 68.0602 216.59 68.1374L218.316 68.6959C218.667 68.8091 218.94 69.0873 219.048 69.4396L219.581 71.1733C219.654 71.4134 219.994 71.4155 220.071 71.1775V71.1764Z" fill="#FAFAFA"/>
<path fill-rule="evenodd" clip-rule="evenodd" d="M247.491 70.1718C246.776 69.3721 245.66 68.9215 244.575 68.7374C243.481 68.5597 242.333 68.5767 241.254 68.7681C239.069 69.1373 237.085 70.0428 235.353 71.1587C234.454 71.7067 233.687 72.3403 232.894 72.9855C232.511 73.3124 232.162 73.6593 231.798 74.0021L230.806 74.99C229.727 76.1176 228.663 77.1447 227.634 77.9963C226.601 78.8436 225.635 79.4877 224.683 79.9373C223.732 80.389 222.715 80.6545 221.388 80.6968C220.072 80.7433 218.517 80.5064 216.852 80.114C215.18 79.7236 213.423 79.1683 211.46 78.6902C212.144 80.591 213.175 82.2697 214.501 83.8056C215.84 85.314 217.513 86.6892 219.663 87.5936C221.782 88.5181 224.444 88.8502 226.933 88.3488C229.429 87.8686 231.619 86.7135 233.39 85.3775C235.165 84.0278 236.601 82.4908 237.811 80.8935C238.146 80.4524 238.322 80.2049 238.564 79.8601L239.233 78.87C239.697 78.2575 240.12 77.5605 240.58 76.9533C241.481 75.6829 242.37 74.4135 243.403 73.2436C243.922 72.6502 244.47 72.0832 245.117 71.5374C245.44 71.2708 245.789 71.0106 246.175 70.7758C246.568 70.523 246.981 70.3252 247.491 70.1718Z" fill="url(#paint16_linear_216_58)"/>
<path fill-rule="evenodd" clip-rule="evenodd" d="M247.491 70.1716C246.723 68.2327 245.294 66.6005 243.377 65.3968C241.471 64.2057 238.825 63.5975 236.202 64.1158C234.907 64.3665 233.652 64.8488 232.55 65.4909C231.454 66.1309 230.471 66.9009 229.621 67.7271C229.196 68.1417 228.811 68.5744 228.428 69.0091L227.434 70.2742L225.902 72.3115C223.948 74.9327 221.843 78.0035 218.389 78.9142C214.999 79.8081 213.529 79.0168 211.46 78.69C211.837 79.6674 212.306 80.6152 212.942 81.4498C213.566 82.3013 214.302 83.101 215.217 83.7864C215.68 84.1154 216.169 84.4401 216.712 84.7162C217.251 84.9828 217.834 85.2165 218.456 85.3932C219.692 85.7317 221.085 85.8512 222.433 85.6682C223.782 85.4884 225.07 85.0611 226.198 84.493C227.333 83.9303 228.322 83.2459 229.204 82.5234C230.96 81.0658 232.325 79.4548 233.479 77.8268C234.058 77.0123 234.585 76.183 235.072 75.3537L235.645 74.3658C235.821 74.077 235.997 73.7861 236.177 73.5163C236.904 72.43 237.614 71.5584 238.477 70.9036C239.327 70.233 240.512 69.7369 242.095 69.6216C243.671 69.5052 245.492 69.7199 247.491 70.1695V70.1716Z" fill="#FAFAFA"/>
<path fill-rule="evenodd" clip-rule="evenodd" d="M238.961 86.2796C238.961 87.7034 240.116 88.8585 241.54 88.8585C242.964 88.8585 244.118 87.7034 244.118 86.2796C244.118 84.8558 242.964 83.7007 241.54 83.7007C240.116 83.7007 238.961 84.8558 238.961 86.2796Z" fill="url(#paint17_linear_216_58)"/>
</g>
</g>
<g style="mix-blend-mode:overlay" opacity="0.2">
<path d="M256.099 112.171C256.099 117.516 244.864 121.849 231.003 121.849C217.142 121.849 204.451 117.616 204.451 112.271V31.2699L256.099 31.1704V112.171Z" fill="url(#paint18_radial_216_58)"/>
</g>
<g opacity="0.8" clip-path="url(#clip2_216_58)">
<path d="M164.243 119.529C164.295 126.105 159.076 128.577 152.319 128.577C145.562 128.577 139.683 126.023 139.712 120.028C139.712 120.028 145.227 116.038 151.985 116.038C158.742 116.038 164.243 119.531 164.243 119.531V119.529Z" fill="url(#paint19_linear_216_58)"/>
<path d="M143.153 124.429C147.868 127.044 155.667 126.998 160.523 124.263C165.379 121.528 165.511 117.122 160.819 114.473C156.128 111.825 148.311 111.9 143.449 114.639C138.587 117.38 138.379 121.78 143.153 124.427V124.429Z" fill="#0D0C4E"/>
<path d="M152.119 124.114C149.18 124.114 146.356 123.48 144.366 122.266C142.807 121.312 141.918 120.172 141.927 119.081C141.937 117.989 142.849 116.849 144.429 115.925C146.368 114.793 148.997 114.175 151.829 114.175C154.661 114.175 157.59 114.877 159.576 116.093C161.135 117.048 162.024 118.225 162.013 119.317C162.003 120.409 161.091 121.501 159.515 122.421C157.578 123.551 154.951 124.112 152.121 124.112L152.119 124.114Z" fill="url(#paint20_linear_216_58)"/>
<g style="mix-blend-mode:soft-light" opacity="0.48">
<path d="M144.498 116.71C146.425 115.601 149.033 114.996 151.844 114.996C154.655 114.996 157.563 115.683 159.534 116.874C160.877 117.685 161.772 118.67 161.965 119.613C161.992 119.485 161.984 119.344 161.986 119.214C161.997 118.143 161.083 116.992 159.534 116.057C157.563 114.866 154.76 114.179 151.844 114.179C148.928 114.179 146.423 114.784 144.498 115.893C142.929 116.798 141.939 117.924 141.929 118.995C141.929 119.136 141.929 119.279 141.956 119.422C142.154 118.474 143.12 117.506 144.498 116.712V116.71Z" fill="black"/>
</g>
<g opacity="0.7">
<path d="M157.13 119.67C156.847 119.67 156.563 119.663 156.279 119.667C155.559 119.674 154.838 119.684 154.117 119.693C153.197 119.703 152.277 119.709 151.356 119.72C150.709 119.726 150.064 119.735 149.417 119.741C148.593 119.751 147.77 119.76 146.946 119.77C146.906 119.77 146.864 119.77 146.824 119.779C146.469 119.861 146.249 119.634 146.018 119.43C145.938 119.361 145.858 119.291 145.761 119.21C145.801 119.203 145.826 119.197 145.852 119.197C146.324 119.191 146.797 119.186 147.27 119.182C148.087 119.174 148.902 119.168 149.72 119.159C150.4 119.153 151.079 119.144 151.76 119.138C152.642 119.128 153.527 119.119 154.409 119.109C155.061 119.102 155.71 119.092 156.361 119.09C156.424 119.09 156.496 119.119 156.546 119.159C156.746 119.31 156.937 119.472 157.13 119.63V119.674V119.67Z" fill="#0C1167"/>
<path d="M151.789 122.829C150.835 122.81 150.083 122.692 149.425 122.238C149.293 122.148 149.171 122.035 149.068 121.911C148.772 121.549 148.812 121.144 149.159 120.821C149.476 120.527 149.865 120.371 150.27 120.251C150.961 120.05 151.667 119.983 152.384 120.069C153.063 120.148 153.697 120.346 154.214 120.821C154.39 120.982 154.535 121.171 154.552 121.421C154.573 121.73 154.399 121.942 154.172 122.117C153.75 122.44 153.252 122.595 152.741 122.696C152.369 122.768 151.991 122.801 151.785 122.829H151.789ZM151.016 121.98C151.562 121.959 152.022 121.833 152.47 121.661C152.64 121.596 152.804 121.505 152.951 121.398C153.092 121.297 153.079 121.15 152.934 121.054C152.848 120.997 152.747 120.951 152.646 120.926C152.346 120.85 152.046 120.894 151.749 120.959C151.331 121.05 150.917 121.152 150.552 121.388C150.289 121.56 150.308 121.755 150.592 121.896C150.619 121.909 150.646 121.923 150.674 121.927C150.808 121.951 150.942 121.972 151.016 121.982V121.98Z" fill="#0C1167"/>
<path d="M151.365 118.819C150.522 118.819 149.911 118.718 149.335 118.449C149.094 118.336 148.871 118.195 148.69 117.993C148.31 117.569 148.354 117.111 148.801 116.763C149.094 116.536 149.43 116.393 149.781 116.288C150.455 116.086 151.146 116.013 151.848 116.082C152.455 116.141 153.033 116.292 153.533 116.655C153.67 116.754 153.8 116.868 153.905 116.998C154.21 117.367 154.143 117.788 153.75 118.094C153.411 118.359 153.021 118.506 152.613 118.619C152.134 118.752 151.646 118.823 151.361 118.819H151.365ZM151.875 116.899C151.426 116.914 150.997 117.017 150.581 117.172C150.39 117.244 150.203 117.338 150.037 117.456C149.856 117.584 149.881 117.739 150.073 117.857C150.264 117.974 150.476 117.991 150.692 117.979C151.174 117.949 151.636 117.819 152.081 117.645C152.233 117.586 152.378 117.496 152.508 117.397C152.638 117.296 152.621 117.17 152.491 117.067C152.308 116.922 152.092 116.908 151.875 116.901V116.899Z" fill="#0C1167"/>
</g>
</g>
<g opacity="0.8" clip-path="url(#clip3_216_58)">
<path d="M184.117 83.6426C184.148 87.5498 181.04 89.0186 177.016 89.0186C172.993 89.0186 169.492 87.5011 169.509 83.9396C169.509 83.9396 172.794 81.5686 176.817 81.5686C180.841 81.5686 184.117 83.6439 184.117 83.6439V83.6426Z" fill="url(#paint21_linear_216_58)"/>
<path d="M171.559 86.5542C174.366 88.1079 179.01 88.0804 181.902 86.4557C184.793 84.8309 184.872 82.2128 182.078 80.6392C179.284 79.0656 174.63 79.1105 171.735 80.7378C168.84 82.3663 168.716 84.9806 171.559 86.553V86.5542Z" fill="#0D0C4E"/>
<path d="M176.897 86.3667C175.147 86.3667 173.465 85.9899 172.281 85.2686C171.352 84.702 170.823 84.0244 170.828 83.3768C170.834 82.7279 171.377 82.0502 172.318 81.5012C173.473 80.8286 175.038 80.4617 176.725 80.4617C178.411 80.4617 180.155 80.8785 181.338 81.601C182.266 82.1688 182.795 82.8676 182.789 83.5165C182.783 84.1654 182.24 84.8143 181.301 85.3609C180.148 86.0323 178.584 86.3655 176.899 86.3655L176.897 86.3667Z" fill="url(#paint22_linear_216_58)"/>
<g style="mix-blend-mode:soft-light" opacity="0.48">
<path d="M172.36 81.9678C173.507 81.3089 175.059 80.9495 176.734 80.9495C178.408 80.9495 180.139 81.3576 181.313 82.0652C182.112 82.5469 182.645 83.1321 182.76 83.6924C182.777 83.6163 182.772 83.5327 182.773 83.4553C182.779 82.8189 182.235 82.1351 181.313 81.5797C180.139 80.8722 178.47 80.4641 176.734 80.4641C174.997 80.4641 173.506 80.8235 172.36 81.4824C171.425 82.0202 170.836 82.6891 170.829 83.3255C170.829 83.4092 170.829 83.494 170.846 83.5789C170.963 83.0161 171.539 82.4408 172.36 81.9691V81.9678Z" fill="black"/>
</g>
<g opacity="0.7">
<path d="M179.881 83.7263C179.712 83.7263 179.544 83.7225 179.375 83.725C178.946 83.7288 178.516 83.735 178.087 83.74C177.539 83.7462 176.991 83.75 176.443 83.7562C176.058 83.76 175.674 83.7649 175.288 83.7687C174.798 83.7749 174.307 83.7799 173.817 83.7862C173.793 83.7862 173.768 83.7862 173.744 83.7911C173.533 83.8398 173.402 83.705 173.264 83.584C173.216 83.5428 173.169 83.5016 173.111 83.453C173.135 83.4492 173.15 83.4455 173.165 83.4455C173.447 83.4417 173.728 83.4392 174.01 83.4367C174.496 83.4318 174.982 83.428 175.469 83.423C175.874 83.4193 176.278 83.4143 176.683 83.4105C177.209 83.4043 177.736 83.3993 178.261 83.3931C178.649 83.3893 179.036 83.3831 179.423 83.3818C179.461 83.3818 179.504 83.3993 179.534 83.423C179.652 83.5129 179.766 83.609 179.881 83.7025V83.7288V83.7263Z" fill="#0C1167"/>
<path d="M176.701 85.603C176.133 85.5917 175.685 85.5218 175.293 85.2523C175.215 85.1986 175.142 85.1312 175.081 85.0576C174.904 84.843 174.928 84.6021 175.135 84.41C175.323 84.2353 175.555 84.1429 175.796 84.0718C176.208 83.952 176.628 83.912 177.055 83.9632C177.459 84.0106 177.837 84.1279 178.145 84.41C178.25 84.5061 178.336 84.6184 178.346 84.7669C178.359 84.9503 178.255 85.0763 178.12 85.1799C177.868 85.3721 177.572 85.4644 177.268 85.5243C177.046 85.5668 176.821 85.5867 176.698 85.603H176.701ZM176.241 85.0988C176.566 85.0863 176.84 85.0115 177.106 84.9091C177.208 84.8704 177.305 84.8168 177.393 84.7531C177.477 84.6932 177.469 84.6059 177.383 84.5485C177.332 84.5148 177.271 84.4873 177.211 84.4724C177.033 84.4274 176.854 84.4536 176.677 84.4923C176.428 84.546 176.182 84.6071 175.964 84.7469C175.808 84.8492 175.819 84.9653 175.988 85.0489C176.004 85.0564 176.02 85.0651 176.037 85.0676C176.117 85.0813 176.197 85.0938 176.241 85.1001V85.0988Z" fill="#0C1167"/>
<path d="M176.448 83.2207C175.946 83.2207 175.582 83.1608 175.24 83.0011C175.096 82.9337 174.963 82.8501 174.855 82.7303C174.629 82.4782 174.655 82.2062 174.922 81.999C175.096 81.8643 175.296 81.7794 175.505 81.717C175.906 81.5972 176.318 81.5535 176.736 81.5947C177.098 81.6296 177.442 81.7195 177.739 81.9354C177.821 81.994 177.898 82.0614 177.961 82.1388C178.142 82.3584 178.102 82.608 177.868 82.7902C177.667 82.9474 177.434 83.0348 177.191 83.1022C176.906 83.1808 176.616 83.2232 176.446 83.2207H176.448ZM176.752 82.0801C176.484 82.0889 176.229 82.15 175.982 82.2424C175.868 82.2848 175.756 82.341 175.657 82.4108C175.55 82.487 175.565 82.5793 175.679 82.6492C175.793 82.7191 175.919 82.729 176.048 82.7216C176.334 82.7041 176.61 82.6267 176.875 82.5231C176.965 82.4882 177.051 82.4345 177.129 82.3759C177.206 82.316 177.196 82.2411 177.119 82.18C177.01 82.0939 176.881 82.0851 176.752 82.0814V82.0801Z" fill="#0C1167"/>
</g>
</g>
<g opacity="0.8" clip-path="url(#clip4_216_58)">
<path d="M303.617 124.028C303.662 129.643 299.207 131.754 293.44 131.754C287.672 131.754 282.654 129.574 282.679 124.455C282.679 124.455 287.387 121.048 293.154 121.048C298.922 121.048 303.617 124.03 303.617 124.03V124.028Z" fill="url(#paint23_linear_216_58)"/>
<path d="M285.616 128.213C289.641 130.446 296.298 130.406 300.442 128.071C304.587 125.736 304.7 121.973 300.695 119.712C296.691 117.45 290.019 117.515 285.869 119.854C281.719 122.194 281.542 125.951 285.616 128.211V128.213Z" fill="#0D0C4E"/>
<path d="M293.269 127.943C290.76 127.943 288.35 127.402 286.651 126.365C285.321 125.551 284.562 124.577 284.569 123.646C284.578 122.714 285.357 121.74 286.705 120.951C288.361 119.984 290.604 119.457 293.022 119.457C295.439 119.457 297.939 120.056 299.634 121.094C300.965 121.91 301.723 122.914 301.714 123.847C301.705 124.78 300.927 125.712 299.582 126.498C297.928 127.463 295.687 127.941 293.271 127.941L293.269 127.943Z" fill="url(#paint24_linear_216_58)"/>
<g style="mix-blend-mode:soft-light" opacity="0.48">
<path d="M286.764 121.622C288.409 120.675 290.635 120.158 293.034 120.158C295.434 120.158 297.916 120.745 299.598 121.761C300.744 122.454 301.508 123.295 301.673 124.1C301.696 123.991 301.689 123.87 301.691 123.759C301.7 122.845 300.92 121.862 299.598 121.064C297.916 120.047 295.523 119.46 293.034 119.46C290.545 119.46 288.407 119.977 286.764 120.924C285.425 121.697 284.58 122.658 284.571 123.573C284.571 123.693 284.571 123.815 284.594 123.937C284.763 123.128 285.588 122.301 286.764 121.623V121.622Z" fill="black"/>
</g>
<g opacity="0.7">
<path d="M297.547 124.149C297.304 124.149 297.062 124.143 296.82 124.147C296.205 124.152 295.59 124.161 294.975 124.169C294.189 124.177 293.404 124.183 292.618 124.192C292.066 124.197 291.515 124.204 290.963 124.21C290.26 124.219 289.557 124.226 288.854 124.235C288.82 124.235 288.784 124.235 288.75 124.242C288.447 124.312 288.258 124.118 288.061 123.944C287.993 123.885 287.925 123.826 287.842 123.756C287.876 123.751 287.898 123.745 287.919 123.745C288.323 123.74 288.726 123.736 289.13 123.733C289.828 123.726 290.523 123.72 291.221 123.713C291.802 123.708 292.381 123.7 292.963 123.695C293.716 123.686 294.471 123.679 295.224 123.67C295.78 123.665 296.334 123.656 296.89 123.654C296.944 123.654 297.005 123.679 297.048 123.713C297.218 123.842 297.382 123.98 297.547 124.115V124.152V124.149Z" fill="#0C1167"/>
<path d="M292.988 126.846C292.173 126.83 291.531 126.729 290.97 126.342C290.857 126.265 290.753 126.168 290.665 126.062C290.412 125.754 290.446 125.408 290.742 125.131C291.013 124.88 291.345 124.748 291.691 124.645C292.281 124.473 292.884 124.416 293.495 124.489C294.074 124.557 294.616 124.726 295.057 125.131C295.208 125.269 295.332 125.431 295.346 125.644C295.364 125.908 295.215 126.089 295.021 126.238C294.661 126.514 294.236 126.647 293.8 126.733C293.483 126.794 293.16 126.823 292.984 126.846H292.988ZM292.328 126.121C292.794 126.103 293.187 125.996 293.569 125.849C293.714 125.793 293.854 125.716 293.979 125.625C294.1 125.538 294.089 125.413 293.965 125.33C293.892 125.282 293.805 125.243 293.719 125.221C293.463 125.157 293.206 125.194 292.954 125.25C292.597 125.327 292.243 125.415 291.931 125.616C291.707 125.763 291.723 125.929 291.965 126.05C291.989 126.06 292.012 126.073 292.035 126.077C292.15 126.096 292.265 126.114 292.328 126.123V126.121Z" fill="#0C1167"/>
<path d="M292.625 123.422C291.906 123.422 291.384 123.336 290.893 123.106C290.687 123.01 290.497 122.889 290.342 122.717C290.018 122.355 290.055 121.964 290.437 121.666C290.687 121.473 290.974 121.351 291.273 121.261C291.849 121.089 292.439 121.026 293.038 121.085C293.556 121.135 294.049 121.265 294.476 121.575C294.593 121.659 294.704 121.756 294.794 121.867C295.054 122.183 294.996 122.541 294.661 122.803C294.372 123.029 294.039 123.155 293.691 123.252C293.282 123.365 292.866 123.426 292.622 123.422H292.625ZM293.061 121.783C292.677 121.795 292.311 121.883 291.956 122.016C291.793 122.077 291.634 122.158 291.492 122.258C291.338 122.367 291.359 122.5 291.522 122.601C291.686 122.701 291.867 122.715 292.051 122.705C292.462 122.68 292.857 122.568 293.237 122.42C293.366 122.369 293.49 122.292 293.601 122.208C293.712 122.122 293.698 122.014 293.587 121.926C293.431 121.803 293.246 121.79 293.061 121.785V121.783Z" fill="#0C1167"/>
</g>
</g>
<g style="mix-blend-mode:multiply" filter="url(#filter0_f_216_58)">
<ellipse cx="291.651" cy="122.851" rx="9.96971" ry="5.09256" fill="#0D0C4E" fill-opacity="0.6"/>
</g>
<g opacity="0.8" clip-path="url(#clip5_216_58)">
<path d="M299.92 119.147C299.965 124.762 295.51 126.873 289.743 126.873C283.975 126.873 278.957 124.692 278.982 119.574C278.982 119.574 283.69 116.167 289.457 116.167C295.225 116.167 299.92 119.149 299.92 119.149V119.147Z" fill="url(#paint25_linear_216_58)"/>
<path d="M281.919 123.331C285.944 125.564 292.601 125.524 296.745 123.189C300.89 120.854 301.003 117.092 296.998 114.83C292.994 112.569 286.322 112.633 282.172 114.972C278.022 117.312 277.845 121.069 281.919 123.329V123.331Z" fill="#0D0C4E"/>
<path d="M289.572 123.062C287.063 123.062 284.653 122.521 282.955 121.484C281.624 120.67 280.865 119.696 280.872 118.765C280.881 117.833 281.66 116.859 283.008 116.07C284.664 115.103 286.907 114.576 289.325 114.576C291.742 114.576 294.242 115.175 295.937 116.213C297.268 117.029 298.026 118.033 298.018 118.966C298.009 119.899 297.23 120.831 295.885 121.617C294.232 122.582 291.99 123.06 289.574 123.06L289.572 123.062Z" fill="url(#paint26_linear_216_58)"/>
<g style="mix-blend-mode:soft-light" opacity="0.48">
<path d="M283.068 116.74C284.712 115.793 286.938 115.277 289.337 115.277C291.737 115.277 294.219 115.863 295.901 116.88C297.047 117.572 297.811 118.413 297.976 119.219C298 119.109 297.992 118.989 297.994 118.878C298.003 117.963 297.223 116.98 295.901 116.182C294.219 115.166 291.827 114.579 289.337 114.579C286.848 114.579 284.71 115.096 283.068 116.043C281.728 116.815 280.883 117.777 280.874 118.691C280.874 118.812 280.874 118.934 280.897 119.055C281.066 118.247 281.891 117.42 283.068 116.742V116.74Z" fill="black"/>
</g>
<g opacity="0.7">
<path d="M293.85 119.267C293.607 119.267 293.365 119.262 293.123 119.265C292.508 119.271 291.893 119.28 291.278 119.287C290.492 119.296 289.707 119.301 288.921 119.31C288.369 119.316 287.818 119.323 287.266 119.328C286.563 119.337 285.86 119.344 285.157 119.353C285.123 119.353 285.087 119.353 285.053 119.36C284.75 119.43 284.561 119.237 284.364 119.063C284.296 119.004 284.228 118.944 284.145 118.874C284.179 118.869 284.201 118.864 284.223 118.864C284.626 118.858 285.03 118.855 285.433 118.851C286.131 118.844 286.827 118.839 287.524 118.831C288.105 118.826 288.685 118.819 289.266 118.813C290.019 118.804 290.774 118.797 291.527 118.788C292.083 118.783 292.637 118.774 293.193 118.772C293.247 118.772 293.308 118.797 293.351 118.831C293.521 118.961 293.685 119.099 293.85 119.233V119.271V119.267Z" fill="#0C1167"/>
<path d="M289.291 121.964C288.477 121.948 287.835 121.848 287.273 121.46C287.16 121.383 287.056 121.286 286.968 121.181C286.715 120.872 286.75 120.526 287.045 120.25C287.316 119.999 287.648 119.866 287.994 119.764C288.584 119.592 289.187 119.534 289.798 119.608C290.378 119.676 290.919 119.844 291.36 120.25C291.511 120.388 291.635 120.549 291.649 120.763C291.667 121.026 291.518 121.207 291.325 121.356C290.964 121.633 290.539 121.765 290.103 121.851C289.786 121.912 289.463 121.941 289.287 121.964H289.291ZM288.631 121.24C289.097 121.222 289.49 121.114 289.872 120.967C290.017 120.912 290.157 120.834 290.283 120.743C290.403 120.657 290.392 120.531 290.268 120.449C290.195 120.4 290.109 120.361 290.023 120.339C289.766 120.275 289.51 120.313 289.257 120.368C288.9 120.445 288.547 120.533 288.234 120.734C288.01 120.881 288.026 121.048 288.269 121.168C288.292 121.179 288.315 121.191 288.338 121.195C288.453 121.215 288.568 121.233 288.631 121.242V121.24Z" fill="#0C1167"/>
<path d="M288.928 118.541C288.209 118.541 287.687 118.455 287.196 118.225C286.99 118.128 286.8 118.008 286.645 117.836C286.321 117.474 286.358 117.083 286.74 116.785C286.99 116.591 287.277 116.469 287.576 116.38C288.152 116.207 288.742 116.145 289.341 116.204C289.859 116.254 290.352 116.383 290.779 116.693C290.896 116.778 291.007 116.875 291.097 116.986C291.357 117.301 291.299 117.66 290.964 117.922C290.675 118.148 290.342 118.273 289.994 118.37C289.585 118.483 289.169 118.544 288.925 118.541H288.928ZM289.364 116.901C288.98 116.914 288.615 117.002 288.259 117.135C288.096 117.196 287.937 117.276 287.795 117.377C287.641 117.486 287.662 117.619 287.825 117.719C287.989 117.82 288.17 117.834 288.355 117.823C288.765 117.798 289.16 117.687 289.54 117.538C289.669 117.488 289.793 117.411 289.904 117.327C290.015 117.24 290.001 117.133 289.89 117.045C289.734 116.921 289.549 116.909 289.364 116.903V116.901Z" fill="#0C1167"/>
</g>
</g>
<g clip-path="url(#clip6_216_58)">
<path fill-rule="evenodd" clip-rule="evenodd" d="M11 28.9125C11 34.3753 15.4286 38.804 20.8915 38.804C26.3543 38.804 30.783 34.3753 30.783 28.9125C30.783 23.4496 26.3543 19.021 20.8915 19.021C15.4286 19.021 11 23.4496 11 28.9125Z" fill="#0C0C4F"/>
<path fill-rule="evenodd" clip-rule="evenodd" d="M16.5275 26.5813L16.7715 25.8265C16.8215 25.6743 16.9424 25.5534 17.0967 25.5075L17.8557 25.274C17.9599 25.2427 17.962 25.0947 17.8557 25.0592L17.1009 24.8153C16.9466 24.7653 16.8278 24.6443 16.7819 24.49L16.5484 23.7311C16.5171 23.6268 16.369 23.6247 16.3336 23.7311L16.0897 24.4859C16.0396 24.6381 15.9187 24.759 15.7644 24.8049L15.0054 25.0384C14.9012 25.0697 14.8991 25.2177 15.0054 25.2511L15.7602 25.495C15.9145 25.5451 16.0334 25.666 16.0813 25.8203L16.3148 26.5772C16.3461 26.6814 16.4942 26.6835 16.5296 26.5772L16.5275 26.5813Z" fill="#FAFAFA"/>
<path fill-rule="evenodd" clip-rule="evenodd" d="M28.5103 26.1434C28.1976 25.7931 27.7097 25.5971 27.2364 25.5158C26.7589 25.4387 26.2564 25.4449 25.7852 25.5283C24.8302 25.6889 23.9628 26.085 23.206 26.5729C22.814 26.8127 22.4783 27.09 22.1301 27.3715C21.9633 27.5133 21.8111 27.6655 21.6526 27.8156L21.2189 28.2472C20.7477 28.7393 20.2827 29.1897 19.8323 29.5608C19.3799 29.932 18.9587 30.2114 18.5438 30.4094C18.1289 30.6075 17.6827 30.7222 17.103 30.741C16.5275 30.7618 15.8478 30.6576 15.1222 30.4866C14.3904 30.3156 13.6231 30.0737 12.7661 29.8652C13.0664 30.6951 13.5167 31.429 14.0943 32.1004C14.6802 32.7593 15.412 33.3598 16.3503 33.7559C17.2761 34.1604 18.4395 34.3043 19.5279 34.0854C20.6184 33.8748 21.5755 33.3702 22.349 32.7864C23.1246 32.1963 23.7522 31.5249 24.2818 30.8264C24.4278 30.6325 24.5049 30.5262 24.6113 30.374L24.9032 29.9403C25.1054 29.6734 25.291 29.369 25.4912 29.1021C25.8853 28.5475 26.2731 27.9929 26.7255 27.482C26.9528 27.2235 27.1926 26.9754 27.4741 26.7356C27.6158 26.6188 27.7681 26.5062 27.9369 26.402C28.1079 26.2915 28.2893 26.2039 28.5124 26.1372L28.5103 26.1434Z" fill="url(#paint27_linear_216_58)"/>
<path fill-rule="evenodd" clip-rule="evenodd" d="M28.5103 26.1436C28.1746 25.2971 27.5511 24.584 26.7129 24.0565C25.881 23.5352 24.7238 23.2704 23.577 23.4977C23.0099 23.6082 22.4615 23.8188 21.982 24.0982C21.5024 24.3776 21.0729 24.7133 20.7017 25.0761C20.5162 25.2575 20.3473 25.4472 20.1805 25.6369L19.7468 26.1895L19.0775 27.0798C18.2226 28.2245 17.3031 29.5673 15.7956 29.9655C14.3152 30.3554 13.671 30.0093 12.7681 29.8675C12.9328 30.2949 13.1372 30.7099 13.4166 31.0747C13.6897 31.4459 14.0108 31.7962 14.4111 32.0964C14.6134 32.2403 14.8261 32.3821 15.0638 32.503C15.2994 32.6198 15.5538 32.7219 15.8269 32.7991C16.3669 32.9471 16.9758 32.9992 17.5637 32.92C18.1538 32.8408 18.7168 32.6552 19.2088 32.4071C19.7051 32.1611 20.1367 31.8629 20.5224 31.546C21.2897 30.91 21.8861 30.2053 22.3906 29.4943C22.645 29.1377 22.8744 28.777 23.087 28.4142L23.3372 27.9826C23.4144 27.8575 23.4915 27.7303 23.5708 27.6115C23.8877 27.1361 24.1984 26.7566 24.5758 26.471C24.9469 26.177 25.4661 25.9601 26.1562 25.9101C26.8443 25.86 27.6408 25.9539 28.5144 26.1499L28.5103 26.1436Z" fill="#FAFAFA"/>
<path fill-rule="evenodd" clip-rule="evenodd" d="M24.7822 33.1828C24.7822 33.8042 25.2868 34.3087 25.9082 34.3087C26.5295 34.3087 27.0341 33.8042 27.0341 33.1828C27.0341 32.5615 26.5295 32.0569 25.9082 32.0569C25.2868 32.0569 24.7822 32.5615 24.7822 33.1828Z" fill="url(#paint28_linear_216_58)"/>
<path d="M97.4482 26.1458V25.0073C97.4482 24.9615 97.4127 24.926 97.3668 24.926H90.8844C90.8385 24.926 90.8031 24.9636 90.8031 25.0073V26.1458H93.4386V33.506H94.8147V26.1458H97.4502H97.4482Z" fill="white"/>
<path d="M84.0269 24.9282C83.981 24.9282 83.9456 24.9658 83.9456 25.0095V33.4269C83.9456 33.4728 83.9831 33.5082 84.0269 33.5082H89.4834C89.5293 33.5082 89.5648 33.4707 89.5648 33.4269V32.301H85.3217V29.605H88.8267V28.4207H85.3217V26.1355H89.2624V25.0095C89.2624 24.9637 89.2249 24.9282 89.1811 24.9282H84.0269Z" fill="white"/>
<path d="M80.8616 33.4582L80.8908 33.5082H81.9479C81.9938 33.5082 82.0292 33.4707 82.0292 33.4269V25.0095C82.0292 24.9637 81.9917 24.9282 81.9479 24.9282H80.6781V30.8706C80.4571 30.5203 80.2007 30.1325 79.9087 29.7113C79.5376 29.163 79.1373 28.6042 78.7098 28.0391C78.2908 27.4657 77.8612 26.9132 77.4255 26.3794C76.998 25.8373 76.5935 25.364 76.212 24.9595L76.1807 24.9282H75.1861C75.1402 24.9282 75.1048 24.9658 75.1048 25.0095V33.4269C75.1048 33.4728 75.1423 33.5082 75.1861 33.5082H76.4559V27.1425C76.629 27.3469 76.8145 27.5762 77.0105 27.8244C77.2753 28.1621 77.5485 28.5228 77.83 28.9086C78.1114 29.286 78.3929 29.6801 78.6744 30.0887C78.9642 30.4995 79.2415 30.904 79.5063 31.3064C79.7711 31.7005 80.0172 32.082 80.2403 32.4511C80.4738 32.8201 80.6781 33.1558 80.8554 33.4519L80.8616 33.4582Z" fill="white"/>
<path d="M73.4431 25.097L73.4744 25.0636C73.5224 25.0115 73.4848 24.926 73.4139 24.926H71.9064L71.8752 24.9615C71.675 25.1929 71.4269 25.4661 71.1287 25.7788C70.8389 26.0853 70.5282 26.4064 70.1988 26.7442C69.8693 27.082 69.5357 27.4197 69.1959 27.7575C68.9248 28.0223 68.6725 28.2642 68.439 28.4873V24.9281H67.1442C67.0983 24.9281 67.0629 24.9656 67.0629 25.0094V33.4268C67.0629 33.4726 67.1004 33.5081 67.1442 33.5081H68.439V29.6153C68.7226 29.8009 69.0145 30.0198 69.3106 30.27C69.6713 30.5661 70.0216 30.8893 70.3656 31.2416C70.718 31.5857 71.0495 31.9485 71.3602 32.3321C71.6708 32.7074 71.9481 33.0827 72.1858 33.4581L72.215 33.506H73.685C73.7475 33.506 73.7872 33.4372 73.7559 33.383L73.7392 33.3517C73.5182 32.9681 73.2409 32.5657 72.9093 32.1424C72.5862 31.7212 72.2359 31.3084 71.8647 30.9039C71.4915 30.4994 71.112 30.1178 70.7221 29.7613C70.3698 29.4381 70.0341 29.1608 69.713 28.9293C69.9861 28.6624 70.2759 28.3768 70.5803 28.0703C70.9181 27.7325 71.258 27.3885 71.5958 27.0424C71.9419 26.6879 72.2734 26.3439 72.5882 26.0144C72.9031 25.6766 73.1846 25.3701 73.4348 25.0949L73.4431 25.097Z" fill="white"/>
<path fill-rule="evenodd" clip-rule="evenodd" d="M59.2501 24.8634C59.2043 24.8634 59.1688 24.9009 59.1688 24.9447V33.4309C59.1688 33.4768 59.2064 33.5122 59.2501 33.5122H60.4178V30.393H62.1213C62.3131 30.6223 62.5007 30.8621 62.6821 31.1144C62.9803 31.5064 63.2555 31.913 63.5099 32.3383C63.7393 32.7136 63.9394 33.0848 64.1104 33.4517L64.1375 33.5101H65.5178C65.5762 33.5101 65.6158 33.4497 65.5929 33.3954C65.4344 33.0472 65.2613 32.7074 65.0716 32.3758C64.811 31.9109 64.5274 31.4522 64.2167 30.9976C64.0395 30.737 63.8581 30.4847 63.6746 30.2408C64.1896 30.0823 64.5962 29.7987 64.8923 29.3859C65.2467 28.8855 65.4219 28.2975 65.4219 27.6261C65.4219 27.1653 65.3406 26.742 65.18 26.3605C65.0174 25.9727 64.7714 25.6516 64.444 25.3993C64.1187 25.1449 63.7205 24.9823 63.2493 24.9093C63.1388 24.8884 63.0262 24.8759 62.9094 24.8738C62.7947 24.8655 62.6946 24.8613 62.6112 24.8613H61.5374C60.7764 24.8613 60.0154 24.8613 59.2543 24.8613L59.2501 24.8634ZM64.1479 27.6282C64.1479 27.8513 64.1104 28.0702 64.0353 28.2871C63.9624 28.4956 63.8456 28.677 63.685 28.8333C63.5328 28.9814 63.3306 29.0877 63.0762 29.1482C62.9949 29.167 62.9094 29.1795 62.8156 29.1878C62.7238 29.1961 62.6425 29.1982 62.5716 29.1982H60.4157V26.0602H62.5716C62.6425 26.0602 62.7238 26.0644 62.8156 26.0707H62.8177H62.8197C62.9115 26.0748 62.9949 26.0873 63.072 26.1082H63.0741H63.0762C63.3306 26.1624 63.5307 26.2687 63.683 26.4209C63.8435 26.5773 63.9603 26.7629 64.0332 26.9735C64.1083 27.1862 64.1458 27.403 64.1458 27.6261L64.1479 27.6282Z" fill="white"/>
<path fill-rule="evenodd" clip-rule="evenodd" d="M56.1059 32.3739C56.2269 32.7221 56.3561 33.0766 56.4937 33.4394L56.5188 33.5061H57.8991C57.9554 33.5061 57.995 33.4498 57.9762 33.3977C57.6739 32.5678 57.3695 31.7401 57.0588 30.9165C56.7773 30.1596 56.4979 29.4403 56.2248 28.7626C55.9579 28.085 55.6931 27.4386 55.4262 26.8256C55.1593 26.2022 54.8778 25.585 54.5838 24.9741C54.5692 24.9449 54.5421 24.9282 54.5109 24.9282H53.41C53.3787 24.9282 53.3495 24.947 53.337 24.9741C53.0451 25.585 52.7636 26.2022 52.4946 26.8256C52.2277 27.4386 51.9588 28.085 51.6835 28.7626C51.4166 29.4403 51.1435 30.1575 50.8599 30.9165C50.5493 31.7422 50.2449 32.5699 49.9425 33.3977C49.9238 33.4519 49.9634 33.5061 50.0197 33.5061H51.3666L51.3958 33.4728C51.7148 33.1308 52.0714 32.7951 52.4654 32.4657C52.8616 32.1279 53.2744 31.8151 53.7019 31.5253C54.1251 31.2272 54.5505 30.9582 54.9779 30.7205C55.1322 30.6329 55.2844 30.5516 55.4325 30.4745L55.7223 31.3001C55.8516 31.6629 55.9767 32.0216 56.0955 32.3739H56.1059ZM54.6214 28.3039C54.7381 28.5979 54.8549 28.8982 54.9696 29.2026C54.9612 29.2067 54.9529 29.2109 54.9425 29.2151C54.5338 29.4007 54.0939 29.6425 53.6226 29.9365C53.1723 30.2201 52.7261 30.5266 52.2819 30.8581L52.4696 30.3222C52.7177 29.6258 52.9658 28.9524 53.214 28.3039C53.4433 27.718 53.681 27.1571 53.9271 26.615C54.1668 27.1551 54.3983 27.718 54.6193 28.3018L54.6214 28.3039Z" fill="white"/>
<path d="M50.2823 26.1458V25.0073C50.2823 24.9615 50.2469 24.926 50.201 24.926H43.7186C43.6727 24.926 43.6373 24.9636 43.6373 25.0073V26.1458H46.2728V33.4247C46.2728 33.4706 46.3103 33.506 46.3541 33.506H47.5676C47.6135 33.506 47.6489 33.4685 47.6489 33.4247V26.1458H50.2844H50.2823Z" fill="white"/>
<path d="M37.6865 33.4037C37.1861 33.191 36.7712 32.8866 36.4418 32.4925C36.1165 32.0922 35.9038 31.621 35.8058 31.0788C35.8017 31.0517 35.8058 31.0246 35.8225 31.0017C35.8392 30.9788 35.8621 30.9642 35.8892 30.96L36.988 30.7869C37.0402 30.7786 37.0902 30.812 37.1027 30.862C37.2362 31.3812 37.5114 31.7836 37.9284 32.0755C38.3517 32.3653 38.85 32.5113 39.4276 32.5113C39.8029 32.5113 40.1386 32.4529 40.4346 32.3382C40.7349 32.2194 40.9684 32.0546 41.1394 31.8441C41.3062 31.6356 41.3917 31.3916 41.3917 31.1018C41.3917 30.9225 41.3604 30.7765 41.302 30.6577C41.302 30.6577 41.302 30.6556 41.302 30.6535C41.2436 30.5284 41.1644 30.4221 41.0622 30.3386C41.0622 30.3386 41.0602 30.3386 41.0602 30.3366C40.9559 30.2448 40.8371 30.1656 40.7036 30.103C40.566 30.0384 40.4221 29.9842 40.272 29.9425L38.0806 29.292C37.8367 29.219 37.6011 29.1272 37.3738 29.0167C37.1423 28.902 36.9359 28.7582 36.7524 28.5893C36.5669 28.4121 36.4209 28.2036 36.3125 27.9596C36.202 27.7094 36.1478 27.4175 36.1478 27.0881C36.1478 26.5605 36.2833 26.1039 36.5606 25.7265C36.84 25.347 37.2153 25.0614 37.6824 24.8633C38.1494 24.6673 38.6749 24.5714 39.2566 24.5756C39.8446 24.5797 40.3742 24.6861 40.8433 24.8946C41.3145 25.101 41.7065 25.3971 42.0151 25.7828C42.3299 26.1706 42.5385 26.6335 42.6448 27.1694C42.651 27.1965 42.6448 27.2236 42.6281 27.2465C42.6114 27.2695 42.5885 27.284 42.5614 27.2903L41.4334 27.4884C41.4063 27.4926 41.3792 27.4884 41.3562 27.4717C41.3333 27.455 41.3187 27.4321 41.3145 27.405C41.2582 27.0714 41.131 26.7878 40.9371 26.5522C40.7453 26.3103 40.5034 26.1248 40.2115 25.9955C39.9196 25.862 39.5964 25.7932 39.2441 25.7891C38.9063 25.7849 38.604 25.8391 38.335 25.9475C38.066 26.058 37.8554 26.2082 37.7011 26.4C37.5489 26.5856 37.4739 26.7961 37.4739 27.0401C37.4739 27.284 37.5427 27.4675 37.674 27.6093C37.8158 27.7574 37.9868 27.8762 38.1953 27.9679C38.4142 28.0576 38.6269 28.1327 38.8333 28.191L40.468 28.6623C40.6577 28.7144 40.8767 28.7874 41.1206 28.8791C41.3771 28.975 41.6231 29.1085 41.8608 29.2794C42.1048 29.4525 42.3049 29.6839 42.4634 29.9696C42.626 30.2594 42.7032 30.6201 42.7032 31.0455C42.7032 31.4708 42.6177 31.8587 42.4405 32.1964C42.2695 32.5321 42.0318 32.8157 41.7253 33.043C41.4209 33.2661 41.0664 33.4349 40.6682 33.5496C40.2678 33.6685 39.8404 33.7269 39.3859 33.7269C38.7645 33.7269 38.2015 33.6205 37.6991 33.4078L37.6865 33.4037Z" fill="white"/>
</g>
<path d="M11 28.902C11 34.3709 15.4332 38.8041 20.9021 38.8041C26.3709 38.8041 30.8044 34.3708 30.8044 28.902C30.8044 23.4332 26.3709 19 20.9021 19C15.4332 19 11 23.4332 11 28.902Z" fill="#0C0C4F" stroke="url(#paint29_linear_216_58)" stroke-width="0.619362"/>
<path fill-rule="evenodd" clip-rule="evenodd" d="M16.4209 26.5085L16.6717 25.7337C16.7227 25.5761 16.8471 25.4535 17.0053 25.4051L17.7838 25.1657C17.8916 25.1328 17.8925 24.9807 17.7856 24.9461L17.0104 24.6953C16.8531 24.6443 16.7306 24.5199 16.682 24.3618L16.4428 23.5832C16.4098 23.4757 16.2578 23.4745 16.2231 23.5817L15.9723 24.3565C15.9214 24.5138 15.7971 24.6364 15.6389 24.6851L14.8602 24.9242C14.7525 24.9574 14.7513 25.1092 14.8585 25.1438L15.6336 25.3946C15.7909 25.4456 15.9136 25.5703 15.9622 25.7284L16.2013 26.5067C16.2342 26.6145 16.3863 26.6157 16.4209 26.5085Z" fill="#FAFAFA"/>
<path fill-rule="evenodd" clip-rule="evenodd" d="M28.7271 26.0577C28.4061 25.6988 27.9053 25.4967 27.4182 25.4138C26.9274 25.3343 26.4126 25.3416 25.928 25.4277C24.9475 25.5936 24.0566 25.9996 23.2796 26.5005C22.8762 26.7463 22.5321 27.0308 22.1756 27.3204C22.0038 27.4669 21.8473 27.623 21.6842 27.7767L21.2385 28.2201C20.7543 28.7263 20.2771 29.1873 19.8153 29.5694C19.3517 29.9497 18.9182 30.2386 18.491 30.4403C18.064 30.6431 17.6072 30.7623 17.012 30.7814C16.4217 30.8022 15.7235 30.6957 14.9766 30.5199C14.2257 30.3449 13.4371 30.0954 12.556 29.8807C12.8635 30.7337 13.3264 31.4874 13.9209 32.1765C14.5223 32.8536 15.2733 33.4706 16.2379 33.8765C17.1888 34.2913 18.3836 34.4402 19.5007 34.2156C20.6208 33.9999 21.6039 33.4817 22.3985 32.8821C23.195 32.2765 23.8396 31.5867 24.3829 30.8695C24.5328 30.6714 24.6122 30.5605 24.7207 30.4056L25.0208 29.9612C25.2292 29.6864 25.419 29.3734 25.6253 29.1011C26.0299 28.5307 26.4288 27.961 26.8923 27.4361C27.1256 27.1699 27.3716 26.9153 27.6619 26.6706C27.8067 26.5511 27.9633 26.4342 28.1366 26.3289C28.3125 26.2154 28.4984 26.1265 28.7271 26.0577Z" fill="url(#paint30_linear_216_58)"/>
<path fill-rule="evenodd" clip-rule="evenodd" d="M28.7271 26.0576C28.3824 25.1875 27.7413 24.4551 26.8808 23.9146C26.0256 23.3801 24.8379 23.1073 23.6608 23.3398C23.0794 23.4523 22.516 23.6688 22.0217 23.9571C21.5295 24.2443 21.0886 24.59 20.7068 24.9609C20.5162 25.1469 20.3432 25.341 20.1714 25.5362L19.7259 26.1041L19.0379 27.0183C18.1609 28.1946 17.2163 29.573 15.6663 29.9815C14.1447 30.3824 13.4847 30.0273 12.556 29.8806C12.7258 30.319 12.9362 30.7448 13.2213 31.1193C13.5012 31.5015 13.8317 31.8603 14.2427 32.1681C14.4504 32.3158 14.6696 32.4617 14.9132 32.5854C15.1556 32.7049 15.4169 32.8101 15.696 32.8891C16.251 33.0413 16.8759 33.0946 17.481 33.0127C18.0863 32.932 18.6648 32.7402 19.1706 32.4855C19.68 32.233 20.1238 31.9257 20.5202 31.6014C21.3078 30.9472 21.9206 30.2244 22.4381 29.4937C22.6985 29.1284 22.9347 28.7562 23.1534 28.3839L23.4106 27.9407C23.4893 27.8111 23.5687 27.6808 23.6495 27.5594C23.9755 27.0716 24.2943 26.6805 24.6815 26.3869C25.0633 26.0858 25.5951 25.8633 26.3056 25.8116C27.0132 25.7593 27.83 25.8559 28.7271 26.0576Z" fill="#FAFAFA"/>
<path fill-rule="evenodd" clip-rule="evenodd" d="M24.8991 33.2868C24.8991 33.9259 25.4175 34.4442 26.0565 34.4442C26.6956 34.4442 27.2133 33.9259 27.2133 33.2868C27.2133 32.6478 26.6956 32.1294 26.0565 32.1294C25.4175 32.1294 24.8991 32.6478 24.8991 33.2868Z" fill="url(#paint31_linear_216_58)"/>
<path d="M18.4624 63.0482C14.6013 63.0482 11.594 60.1709 11.594 56.0499C11.594 52.1145 14.4528 49.1629 18.351 49.1629C21.7295 49.1629 24.1427 51.1678 25.0152 54.0636H21.6924C21.284 52.7085 20.0588 51.6875 18.2768 51.6875C16.1234 51.6875 14.4899 53.2654 14.4899 56.1241C14.4899 58.6859 15.9192 60.6536 18.5923 60.6536C20.56 60.6536 21.8038 59.4841 22.175 57.832H18.3139V55.5858H25.1823C25.3494 59.9296 22.7134 63.0482 18.4624 63.0482ZM29.7238 57.9619V62.7698H27.1435V52.857H29.5196V54.769C30.2436 53.5067 31.7843 52.7456 33.3808 52.7456V55.4187C31.1903 55.2517 29.7238 55.7714 29.7238 57.9619ZM40.8424 62.7698V61.5446C40.1927 62.4728 39.2088 62.9554 37.8537 62.9554C35.7932 62.9554 34.4195 61.7488 34.4195 59.8925C34.4195 57.9619 35.9789 56.9224 38.8747 56.9224C39.4316 56.9224 39.9142 56.9595 40.5268 57.0337V56.4397C40.5268 55.3259 39.8957 54.6762 38.819 54.6762C37.7052 54.6762 37.037 55.3259 36.9441 56.4397H34.6237C34.7722 54.1564 36.4244 52.6714 38.819 52.6714C41.4179 52.6714 42.9401 54.1008 42.9401 56.5325V62.7698H40.8424ZM36.8513 59.8182C36.8513 60.6536 37.4453 61.1733 38.4106 61.1733C39.7286 61.1733 40.5268 60.4494 40.5268 59.2985V58.5931C39.9142 58.5002 39.4873 58.4631 39.0418 58.4631C37.5753 58.4631 36.8513 58.9272 36.8513 59.8182ZM47.9621 57.3679V62.7698H45.3818V52.857H47.7579V54.2678C48.4818 53.284 49.5028 52.6714 50.8022 52.6714C52.7885 52.6714 54.1622 53.9708 54.1622 56.3655V62.7698H51.6005V57.2379C51.6005 55.7714 51.025 54.9547 49.8555 54.9547C48.8345 54.9547 47.9621 55.7714 47.9621 57.3679ZM62.6942 60.2637V62.5099C62.0631 62.8255 61.4691 62.9554 60.708 62.9554C58.666 62.9554 57.3852 61.7859 57.3852 59.5583V55.066H55.3803V52.857H57.3852V49.924H59.9469V52.857H62.787V55.066H59.9469V58.9643C59.9469 60.1152 60.4666 60.5793 61.3948 60.5793C61.8775 60.5793 62.323 60.4679 62.6942 60.2637ZM71.7228 62.7698H68.9012V49.4414H74.1174C77.4774 49.4414 79.4265 51.0007 79.4265 53.7666C79.4265 55.5673 78.3127 56.9966 76.4193 57.6278L79.8535 62.7698H76.4935L73.4863 58.0547H71.7228V62.7698ZM71.7228 51.7804V55.7343H73.9875C75.6953 55.7343 76.6049 55.066 76.6049 53.7666C76.6049 52.4486 75.6953 51.7804 73.9875 51.7804H71.7228ZM85.4942 62.9368C82.5241 62.9368 80.5378 60.8763 80.5378 57.7763C80.5378 54.8247 82.5983 52.6714 85.457 52.6714C88.5942 52.6714 90.6733 55.2146 90.2092 58.4445H83.1738C83.3408 60.0595 84.1205 60.9506 85.4385 60.9506C86.5708 60.9506 87.3319 60.3937 87.6289 59.4098H90.1907C89.6338 61.656 87.9074 62.9368 85.4942 62.9368ZM85.4014 54.5648C84.1947 54.5648 83.4337 55.3445 83.2109 56.811H87.4804C87.4062 55.4373 86.6265 54.5648 85.4014 54.5648ZM96.1511 62.9554C93.2924 62.9554 91.3247 60.8392 91.3247 57.8134C91.3247 54.8433 93.3667 52.6714 96.1511 52.6714C98.7314 52.6714 100.643 54.4163 100.959 57.0894H98.2488C98.1188 55.7714 97.3206 54.9547 96.1511 54.9547C94.8146 54.9547 93.9607 56.0499 93.9607 57.8134C93.9607 59.5955 94.796 60.6721 96.1511 60.6721C97.3392 60.6721 98.1003 59.8925 98.2488 58.5374H100.959C100.662 61.2662 98.8057 62.9554 96.1511 62.9554ZM107.104 62.9368C104.134 62.9368 102.148 60.8763 102.148 57.7763C102.148 54.8247 104.208 52.6714 107.067 52.6714C110.204 52.6714 112.283 55.2146 111.819 58.4445H104.784C104.951 60.0595 105.731 60.9506 107.049 60.9506C108.181 60.9506 108.942 60.3937 109.239 59.4098H111.801C111.244 61.656 109.517 62.9368 107.104 62.9368ZM107.011 54.5648C105.805 54.5648 105.044 55.3445 104.821 56.811H109.09C109.016 55.4373 108.237 54.5648 107.011 54.5648ZM116.754 50.5552C116.754 51.4277 116.049 52.0774 115.028 52.0774C114.026 52.0774 113.32 51.4277 113.32 50.5552C113.32 49.6456 114.026 48.9959 115.028 48.9959C116.049 48.9959 116.754 49.6456 116.754 50.5552ZM116.346 62.7698H113.766V52.857H116.346V62.7698ZM127.789 52.857L124.151 62.7698H121.329L117.672 52.857H120.457L122.814 59.8368L125.19 52.857H127.789ZM133.102 62.9368C130.132 62.9368 128.146 60.8763 128.146 57.7763C128.146 54.8247 130.206 52.6714 133.065 52.6714C136.202 52.6714 138.281 55.2146 137.817 58.4445H130.782C130.949 60.0595 131.728 60.9506 133.046 60.9506C134.179 60.9506 134.94 60.3937 135.237 59.4098H137.798C137.242 61.656 135.515 62.9368 133.102 62.9368ZM133.009 54.5648C131.803 54.5648 131.041 55.3445 130.819 56.811H135.088C135.014 55.4373 134.234 54.5648 133.009 54.5648ZM138.933 57.8134C138.933 54.8804 140.659 52.6714 143.332 52.6714C144.52 52.6714 145.522 53.1912 146.265 54.1379V49.4414H148.827V62.7698H146.469V61.3404C145.69 62.3799 144.613 62.9554 143.332 62.9554C140.659 62.9554 138.933 60.7093 138.933 57.8134ZM141.587 57.8134C141.587 59.6697 142.645 60.6536 143.907 60.6536C145.188 60.6536 146.246 59.6512 146.246 57.7763C146.246 55.9014 145.17 54.9547 143.907 54.9547C142.645 54.9547 141.587 55.92 141.587 57.8134ZM163.576 62.7698L161.701 56.3283L159.845 62.7698H157.265L154.443 52.857H156.949L158.639 59.1314L160.458 52.857H163.001L164.764 59.1314L166.435 52.857H168.978L166.138 62.7698H163.576ZM173.481 50.5552C173.481 51.4277 172.776 52.0774 171.755 52.0774C170.753 52.0774 170.047 51.4277 170.047 50.5552C170.047 49.6456 170.753 48.9959 171.755 48.9959C172.776 48.9959 173.481 49.6456 173.481 50.5552ZM173.073 62.7698H170.493V52.857H173.073V62.7698ZM181.75 60.2637V62.5099C181.119 62.8255 180.525 62.9554 179.764 62.9554C177.722 62.9554 176.441 61.7859 176.441 59.5583V55.066H174.436V52.857H176.441V49.924H179.003V52.857H181.843V55.066H179.003V58.9643C179.003 60.1152 179.523 60.5793 180.451 60.5793C180.934 60.5793 181.379 60.4679 181.75 60.2637ZM186.217 57.3679V62.7698H183.637V49.4414H186.217V54.1564C186.904 53.2469 187.758 52.6714 189.057 52.6714C191.044 52.6714 192.417 53.9708 192.417 56.3655V62.7698H189.856V57.2379C189.856 55.7714 189.28 54.9547 188.111 54.9547C187.09 54.9547 186.217 55.7714 186.217 57.3679ZM18.4624 88.0482C14.6013 88.0482 11.594 85.1709 11.594 81.0499C11.594 77.1145 14.4528 74.1629 18.351 74.1629C21.7295 74.1629 24.1427 76.1678 25.0152 79.0636H21.6924C21.284 77.7085 20.0588 76.6875 18.2768 76.6875C16.1234 76.6875 14.4899 78.2654 14.4899 81.1241C14.4899 83.6859 15.9192 85.6536 18.5923 85.6536C20.56 85.6536 21.8038 84.4841 22.175 82.832H18.3139V80.5858H25.1823C25.3494 84.9296 22.7134 88.0482 18.4624 88.0482ZM29.7238 82.9619V87.7698H27.1435V77.857H29.5196V79.769C30.2436 78.5067 31.7843 77.7456 33.3808 77.7456V80.4187C31.1903 80.2517 29.7238 80.7714 29.7238 82.9619ZM40.8424 87.7698V86.5446C40.1927 87.4728 39.2088 87.9554 37.8537 87.9554C35.7932 87.9554 34.4195 86.7488 34.4195 84.8925C34.4195 82.9619 35.9789 81.9224 38.8747 81.9224C39.4316 81.9224 39.9142 81.9595 40.5268 82.0337V81.4397C40.5268 80.3259 39.8957 79.6762 38.819 79.6762C37.7052 79.6762 37.037 80.3259 36.9441 81.4397H34.6237C34.7722 79.1564 36.4244 77.6714 38.819 77.6714C41.4179 77.6714 42.9401 79.1008 42.9401 81.5325V87.7698H40.8424ZM36.8513 84.8182C36.8513 85.6536 37.4453 86.1733 38.4106 86.1733C39.7286 86.1733 40.5268 85.4494 40.5268 84.2985V83.5931C39.9142 83.5002 39.4873 83.4631 39.0418 83.4631C37.5753 83.4631 36.8513 83.9272 36.8513 84.8182ZM51.3997 85.2637V87.5099C50.7686 87.8255 50.1746 87.9554 49.4135 87.9554C47.3715 87.9554 46.0907 86.7859 46.0907 84.5583V80.066H44.0858V77.857H46.0907V74.924H48.6524V77.857H51.4926V80.066H48.6524V83.9643C48.6524 85.1152 49.1722 85.5793 50.1003 85.5793C50.583 85.5793 51.0285 85.4679 51.3997 85.2637ZM56.275 75.5552C56.275 76.4277 55.5696 77.0774 54.5486 77.0774C53.5462 77.0774 52.8408 76.4277 52.8408 75.5552C52.8408 74.6456 53.5462 73.9959 54.5486 73.9959C55.5696 73.9959 56.275 74.6456 56.275 75.5552ZM55.8666 87.7698H53.2863V77.857H55.8666V87.7698ZM64.544 85.2637V87.5099C63.9128 87.8255 63.3188 87.9554 62.5577 87.9554C60.5158 87.9554 59.2349 86.7859 59.2349 84.5583V80.066H57.2301V77.857H59.2349V74.924H61.7966V77.857H64.6368V80.066H61.7966V83.9643C61.7966 85.1152 62.3164 85.5793 63.2445 85.5793C63.7272 85.5793 64.1727 85.4679 64.544 85.2637ZM72.4636 83.5931V77.857H75.0253V87.7698H72.6678V86.4704C72.1295 87.3428 71.0342 87.9554 69.7719 87.9554C67.7857 87.9554 66.3377 86.7488 66.3377 84.1685V77.857H68.918V83.6673C68.918 85.0595 69.6049 85.6721 70.6444 85.6721C71.5726 85.6721 72.4636 84.9296 72.4636 83.5931ZM76.9122 82.8134C76.9122 79.8804 78.6385 77.6714 81.3117 77.6714C82.4997 77.6714 83.5021 78.1912 84.2446 79.1379V74.4414H86.8064V87.7698H84.4488V86.3404C83.6692 87.3799 82.5925 87.9554 81.3117 87.9554C78.6385 87.9554 76.9122 85.7093 76.9122 82.8134ZM79.5667 82.8134C79.5667 84.6697 80.6248 85.6536 81.8871 85.6536C83.168 85.6536 84.2261 84.6512 84.2261 82.7763C84.2261 80.9014 83.1494 79.9547 81.8871 79.9547C80.6248 79.9547 79.5667 80.92 79.5667 82.8134ZM93.6344 87.9368C90.6643 87.9368 88.678 85.8763 88.678 82.7763C88.678 79.8247 90.7385 77.6714 93.5972 77.6714C96.7344 77.6714 98.8135 80.2146 98.3494 83.4445H91.314C91.481 85.0595 92.2607 85.9506 93.5787 85.9506C94.711 85.9506 95.4721 85.3937 95.7691 84.4098H98.3309C97.774 86.656 96.0476 87.9368 93.6344 87.9368ZM93.5416 79.5648C92.3349 79.5648 91.5739 80.3445 91.3511 81.811H95.6206C95.5464 80.4373 94.7667 79.5648 93.5416 79.5648ZM102.765 83.7601H100.816L100.166 74.4414H103.433L102.765 83.7601ZM103.582 86.1733C103.582 87.1572 102.82 87.8626 101.8 87.8626C100.779 87.8626 100.017 87.1572 100.017 86.1733C100.017 85.1895 100.76 84.4655 101.8 84.4655C102.839 84.4655 103.582 85.1895 103.582 86.1733ZM108.79 89.0692H127.354V70.506H108.79V89.0692Z" fill="url(#paint32_linear_216_58)"/>
</g>
<defs>
<filter id="filter0_f_216_58" x="278.996" y="115.073" width="25.3092" height="15.5549" filterUnits="userSpaceOnUse" color-interpolation-filters="sRGB">
<feFlood flood-opacity="0" result="BackgroundImageFix"/>
<feBlend mode="normal" in="SourceGraphic" in2="BackgroundImageFix" result="shape"/>
<feGaussianBlur stdDeviation="1.34246" result="effect1_foregroundBlur_216_58"/>
</filter>
<linearGradient id="paint0_linear_216_58" x1="187.667" y1="242.231" x2="85.6795" y2="-77.3426" gradientUnits="userSpaceOnUse">
<stop stop-color="#1A1C26"/>
<stop offset="1" stop-color="#111644"/>
</linearGradient>
<linearGradient id="paint1_linear_216_58" x1="254.284" y1="170.949" x2="206.267" y2="53.3939" gradientUnits="userSpaceOnUse">
<stop stop-color="#FFFDD8"/>
<stop offset="0.22" stop-color="#EC796B"/>
<stop offset="0.52" stop-color="#D672EF"/>
<stop offset="0.98" stop-color="#8BF3F9" stop-opacity="0"/>
</linearGradient>
<linearGradient id="paint2_linear_216_58" x1="261.193" y1="188.005" x2="199.251" y2="36.3372" gradientUnits="userSpaceOnUse">
<stop stop-color="#FFFDD8"/>
<stop offset="0.22" stop-color="#EC796B"/>
<stop offset="0.52" stop-color="#D672EF"/>
<stop offset="0.98" stop-color="#8BF3F9" stop-opacity="0"/>
</linearGradient>
<linearGradient id="paint3_linear_216_58" x1="252.895" y1="167.067" x2="197.411" y2="32.4118" gradientUnits="userSpaceOnUse">
<stop stop-color="#F9E8E8"/>
<stop offset="1" stop-color="#CDCDE8"/>
</linearGradient>
<linearGradient id="paint4_linear_216_58" x1="191.879" y1="147.612" x2="254.096" y2="90.184" gradientUnits="userSpaceOnUse">
<stop stop-color="#FFFDD8" stop-opacity="0.21"/>
<stop offset="0.22" stop-color="#EC796B"/>
<stop offset="0.52" stop-color="#D672EF"/>
<stop offset="0.98" stop-color="#8BF3F9" stop-opacity="0.2"/>
</linearGradient>
<linearGradient id="paint5_linear_216_58" x1="242.723" y1="142.684" x2="217.783" y2="81.6305" gradientUnits="userSpaceOnUse">
<stop stop-color="#F9E8E8"/>
<stop offset="1" stop-color="#CDCDE8"/>
</linearGradient>
<linearGradient id="paint6_linear_216_58" x1="236.783" y1="128.151" x2="223.767" y2="96.1913" gradientUnits="userSpaceOnUse">
<stop stop-color="#F9E8E8"/>
<stop offset="1" stop-color="#CDCDE8"/>
</linearGradient>
<linearGradient id="paint7_linear_216_58" x1="208.924" y1="131.827" x2="243.485" y2="99.9542" gradientUnits="userSpaceOnUse">
<stop stop-color="#FFFDD8" stop-opacity="0.21"/>
<stop offset="0.22" stop-color="#EC796B"/>
<stop offset="0.52" stop-color="#D672EF"/>
<stop offset="0.98" stop-color="#8BF3F9" stop-opacity="0.2"/>
</linearGradient>
<linearGradient id="paint8_linear_216_58" x1="231.136" y1="134.224" x2="204.237" y2="124.637" gradientUnits="userSpaceOnUse">
<stop stop-color="#FFFDD8"/>
<stop offset="0.22" stop-color="#EC796B"/>
<stop offset="0.52" stop-color="#D672EF"/>
<stop offset="0.98" stop-color="#8BF3F9" stop-opacity="0"/>
</linearGradient>
<linearGradient id="paint9_linear_216_58" x1="258.209" y1="74.0267" x2="253.46" y2="139.215" gradientUnits="userSpaceOnUse">
<stop stop-color="#FFFDD8"/>
<stop offset="0.22" stop-color="#EC796B"/>
<stop offset="0.52" stop-color="#D672EF"/>
<stop offset="0.98" stop-color="#8BF3F9" stop-opacity="0"/>
</linearGradient>
<linearGradient id="paint10_linear_216_58" x1="184.328" y1="122.466" x2="199.807" y2="93.776" gradientUnits="userSpaceOnUse">
<stop stop-color="#FFFDD8"/>
<stop offset="0.22" stop-color="#EC796B"/>
<stop offset="0.52" stop-color="#D672EF"/>
<stop offset="0.98" stop-color="#8BF3F9" stop-opacity="0"/>
</linearGradient>
<linearGradient id="paint11_linear_216_58" x1="231.752" y1="87.9256" x2="264.125" y2="105.73" gradientUnits="userSpaceOnUse">
<stop stop-color="#FFFDD8"/>
<stop offset="0.22" stop-color="#EC796B"/>
<stop offset="0.52" stop-color="#D672EF"/>
<stop offset="0.98" stop-color="#8BF3F9" stop-opacity="0"/>
</linearGradient>
<linearGradient id="paint12_linear_216_58" x1="228.122" y1="136.408" x2="195.749" y2="118.604" gradientUnits="userSpaceOnUse">
<stop stop-color="#FFFDD8"/>
<stop offset="0.22" stop-color="#EC796B"/>
<stop offset="0.52" stop-color="#D672EF"/>
<stop offset="0.98" stop-color="#8BF3F9" stop-opacity="0"/>
</linearGradient>
<radialGradient id="paint13_radial_216_58" cx="0" cy="0" r="1" gradientUnits="userSpaceOnUse" gradientTransform="translate(229.219 121.317) rotate(-90) scale(105.51 63.9589)">
<stop stop-color="#F9E8E8"/>
<stop offset="0.838449" stop-color="white" stop-opacity="0"/>
</radialGradient>
<radialGradient id="paint14_radial_216_58" cx="0" cy="0" r="1" gradientUnits="userSpaceOnUse" gradientTransform="translate(221.331 55.559) rotate(75.07) scale(30.3797)">
<stop stop-color="#1B1BB5"/>
<stop offset="1" stop-color="#0C0C4F"/>
</radialGradient>
<linearGradient id="paint15_linear_216_58" x1="251.563" y1="72.5188" x2="210.476" y2="80.1423" gradientUnits="userSpaceOnUse">
<stop stop-color="#EC796B"/>
<stop offset="1" stop-color="#E175B1"/>
</linearGradient>
<linearGradient id="paint16_linear_216_58" x1="246.798" y1="68.5915" x2="215.085" y2="86.2121" gradientUnits="userSpaceOnUse">
<stop stop-color="#EC796B"/>
<stop offset="1" stop-color="#E175B1"/>
</linearGradient>
<linearGradient id="paint17_linear_216_58" x1="244.277" y1="85.9908" x2="239.119" y2="86.5366" gradientUnits="userSpaceOnUse">
<stop stop-color="#EC796B"/>
<stop offset="1" stop-color="#E175B1"/>
</linearGradient>
<radialGradient id="paint18_radial_216_58" cx="0" cy="0" r="1" gradientUnits="userSpaceOnUse" gradientTransform="translate(230.509 122.081) rotate(-90.0856) scale(37.0235 27.284)">
<stop stop-color="#F9E8E8"/>
<stop offset="1" stop-color="white" stop-opacity="0"/>
</radialGradient>
<linearGradient id="paint19_linear_216_58" x1="139.712" y1="122.307" x2="164.243" y2="122.307" gradientUnits="userSpaceOnUse">
<stop stop-color="#EC796B"/>
<stop offset="1" stop-color="#E175B1"/>
</linearGradient>
<linearGradient id="paint20_linear_216_58" x1="141.927" y1="119.144" x2="162.013" y2="119.144" gradientUnits="userSpaceOnUse">
<stop stop-color="#EC796B"/>
<stop offset="1" stop-color="#E175B1"/>
</linearGradient>
<linearGradient id="paint21_linear_216_58" x1="169.509" y1="85.2936" x2="184.117" y2="85.2936" gradientUnits="userSpaceOnUse">
<stop stop-color="#EC796B"/>
<stop offset="1" stop-color="#E175B1"/>
</linearGradient>
<linearGradient id="paint22_linear_216_58" x1="170.828" y1="83.4142" x2="182.789" y2="83.4142" gradientUnits="userSpaceOnUse">
<stop stop-color="#EC796B"/>
<stop offset="1" stop-color="#E175B1"/>
</linearGradient>
<linearGradient id="paint23_linear_216_58" x1="282.679" y1="126.401" x2="303.617" y2="126.401" gradientUnits="userSpaceOnUse">
<stop stop-color="#EC796B"/>
<stop offset="1" stop-color="#E175B1"/>
</linearGradient>
<linearGradient id="paint24_linear_216_58" x1="284.569" y1="123.7" x2="301.714" y2="123.7" gradientUnits="userSpaceOnUse">
<stop stop-color="#EC796B"/>
<stop offset="1" stop-color="#E175B1"/>
</linearGradient>
<linearGradient id="paint25_linear_216_58" x1="278.982" y1="121.52" x2="299.92" y2="121.52" gradientUnits="userSpaceOnUse">
<stop stop-color="#EC796B"/>
<stop offset="1" stop-color="#E175B1"/>
</linearGradient>
<linearGradient id="paint26_linear_216_58" x1="280.872" y1="118.819" x2="298.018" y2="118.819" gradientUnits="userSpaceOnUse">
<stop stop-color="#EC796B"/>
<stop offset="1" stop-color="#E175B1"/>
</linearGradient>
<linearGradient id="paint27_linear_216_58" x1="28.379" y1="25.7556" x2="2.64945" y2="39.1437" gradientUnits="userSpaceOnUse">
<stop stop-color="#EC796B"/>
<stop offset="1" stop-color="#D672EF"/>
</linearGradient>
<linearGradient id="paint28_linear_216_58" x1="27.0987" y1="33.0702" x2="22.9933" y2="33.4539" gradientUnits="userSpaceOnUse">
<stop stop-color="#EC796B"/>
<stop offset="1" stop-color="#D672EF"/>
</linearGradient>
<linearGradient id="paint29_linear_216_58" x1="29.9685" y1="23.9511" x2="11.5283" y2="27.3727" gradientUnits="userSpaceOnUse">
<stop stop-color="#EC796B"/>
<stop offset="1" stop-color="#E175B1"/>
</linearGradient>
<linearGradient id="paint30_linear_216_58" x1="28.6407" y1="25.7524" x2="14.4078" y2="33.6607" gradientUnits="userSpaceOnUse">
<stop stop-color="#EC796B"/>
<stop offset="1" stop-color="#E175B1"/>
</linearGradient>
<linearGradient id="paint31_linear_216_58" x1="27.2125" y1="32.4749" x2="24.8976" y2="32.7198" gradientUnits="userSpaceOnUse">
<stop stop-color="#EC796B"/>
<stop offset="1" stop-color="#E175B1"/>
</linearGradient>
<linearGradient id="paint32_linear_216_58" x1="320.398" y1="31.4643" x2="-12.5325" y2="28.7052" gradientUnits="userSpaceOnUse">
<stop stop-color="#4245BF"/>
<stop offset="1" stop-color="#A464F4"/>
</linearGradient>
<clipPath id="clip0_216_58">
<rect width="320" height="150" fill="white"/>
</clipPath>
<clipPath id="clip1_216_58">
<rect width="45.2733" height="45.2733" fill="white" transform="translate(207.419 53.873)"/>
</clipPath>
<clipPath id="clip2_216_58">
<rect width="24.5684" height="16.0424" fill="white" transform="translate(139.687 112.534)"/>
</clipPath>
<clipPath id="clip3_216_58">
<rect width="14.6297" height="9.53147" fill="white" transform="translate(169.494 79.4871)"/>
</clipPath>
<clipPath id="clip4_216_58">
<rect width="20.9704" height="13.6981" fill="white" transform="translate(282.658 118.056)"/>
</clipPath>
<clipPath id="clip5_216_58">
<rect width="20.9704" height="13.6981" fill="white" transform="translate(278.961 113.175)"/>
</clipPath>
<clipPath id="clip6_216_58">
<rect width="86.4483" height="19.783" fill="white" transform="translate(11 19.0212)"/>
</clipPath>
</defs>
</svg>
