<svg width="385" height="247" viewBox="0 0 385 247" fill="none" xmlns="http://www.w3.org/2000/svg">
<g clip-path="url(#clip0_841_1330)">
<path d="M182.359 56.8008C182.22 47.3941 176.944 39.2247 169.145 34.6852C171.372 32.2188 173.041 29.1706 173.879 25.6636C176.204 15.9291 170.961 5.77675 161.684 1.97473C150.59 -2.56475 138.123 3.21202 134.335 14.3641C131.788 21.8452 133.826 29.7688 138.937 35.1195C130.473 40.1752 124.893 49.2295 125.049 59.472L125.238 72.0744C125.255 73.3773 126.331 74.4097 127.638 74.3933L180.264 73.5903C181.571 73.5739 182.606 72.5005 182.59 71.1977L182.368 56.7926L182.359 56.8008Z" fill="url(#paint0_linear_841_1330)"/>
<path d="M127.588 74.803C126.076 74.803 124.844 73.5903 124.819 72.0826L124.63 59.4802C124.474 49.5245 129.569 40.421 138.28 35.0293C133.144 29.3837 131.475 21.4601 133.932 14.2248C135.79 8.77575 139.866 4.27724 145.117 1.89278C150.45 -0.524446 156.383 -0.639162 161.823 1.58961C171.282 5.45718 176.632 15.8472 174.265 25.7455C173.476 29.0641 171.964 32.0303 169.77 34.5787C177.774 39.4295 182.622 47.6973 182.762 56.7926L182.984 71.1976C182.992 71.9351 182.721 72.6316 182.203 73.1642C181.686 73.6968 180.995 73.9918 180.256 74L127.629 74.803C127.629 74.803 127.605 74.803 127.588 74.803ZM153.811 0.81937C150.968 0.81937 148.141 1.42573 145.462 2.64663C140.334 4.97373 136.521 9.18545 134.713 14.5034C132.297 21.6076 134.023 29.4082 139.216 34.8491C139.299 34.9392 139.34 35.0621 139.323 35.185C139.307 35.3079 139.233 35.4144 139.126 35.48C130.407 40.6832 125.296 49.6556 125.443 59.4802L125.633 72.0826C125.649 73.156 126.528 73.9754 127.613 74L180.239 73.197C180.757 73.197 181.25 72.9757 181.612 72.607C181.973 72.2301 182.17 71.7466 182.162 71.2222L181.94 56.8172C181.801 47.8529 176.936 39.7081 168.923 35.0457C168.817 34.9802 168.743 34.8736 168.726 34.7589C168.71 34.636 168.743 34.5131 168.825 34.423C171.101 31.8992 172.662 28.9248 173.46 25.5735C175.736 16.0602 170.592 6.07992 161.503 2.35984C159.005 1.33559 156.391 0.827564 153.795 0.827564L153.811 0.81937Z" fill="#050004"/>
<path d="M174.38 77.3104L174.191 64.8309L174.142 61.3403C174.142 60.9551 174.117 60.57 174.093 60.1849C167.206 58.3576 161.519 54.5392 157.887 49.6146C157.813 51.6631 157.139 53.6215 155.8 55.2111L153.992 57.358C151.765 54.6949 150.434 51.6468 150.015 48.6559C146.424 53.8509 140.589 57.8742 133.464 59.7424C133.39 60.4717 133.357 61.2092 133.374 61.963L133.423 65.4536L133.612 77.9331C133.62 78.6542 133.678 79.3671 133.76 80.0636C134.311 84.5457 136.357 88.5525 139.373 91.6253C139.759 92.0186 140.17 92.3955 140.597 92.7643V121.46H168.685V91.5188C171.8 88.3149 173.862 84.1114 174.29 79.449C174.356 78.7443 174.388 78.0396 174.372 77.3186L174.38 77.3104Z" fill="#F1E1FF"/>
<path d="M168.685 121.861H140.597C140.367 121.861 140.186 121.681 140.186 121.451V92.9363C139.776 92.5758 139.414 92.2316 139.085 91.9039C135.88 88.6509 133.9 84.5784 133.358 80.1045C133.267 79.3671 133.218 78.6296 133.201 77.9331L132.955 61.963C132.947 61.2255 132.98 60.4635 133.045 59.7015C133.062 59.5294 133.185 59.3901 133.349 59.3409C140.252 57.53 146.046 53.6461 149.661 48.4183C149.76 48.279 149.933 48.2135 150.097 48.2544C150.261 48.2954 150.385 48.4265 150.409 48.5986C150.804 51.4665 152.036 54.2606 153.984 56.7106L155.471 54.9407C156.696 53.4822 157.386 51.6304 157.46 49.5982C157.46 49.4262 157.583 49.2705 157.748 49.2213C157.912 49.1722 158.093 49.2295 158.2 49.3688C161.848 54.3262 167.519 58.0217 174.175 59.7916C174.347 59.8326 174.463 59.98 174.479 60.1603C174.504 60.5536 174.528 60.9387 174.537 61.3403L174.783 77.3104C174.791 78.015 174.767 78.7443 174.701 79.49C174.282 84.0213 172.293 88.3477 169.096 91.6908V121.46C169.096 121.689 168.916 121.869 168.685 121.869V121.861ZM141.008 121.042H168.275V91.5106C168.275 91.404 168.316 91.3057 168.39 91.2238C171.529 88.0035 173.476 83.8 173.879 79.3998C173.945 78.687 173.969 77.9823 173.961 77.3104L173.715 61.3403C173.715 61.0617 173.698 60.7749 173.682 60.5045C167.346 58.7673 161.898 55.3095 158.183 50.6962C157.929 52.4989 157.222 54.1295 156.096 55.4652L154.288 57.612C154.214 57.7021 154.091 57.7595 153.976 57.7595C153.853 57.7595 153.737 57.7021 153.664 57.612C151.675 55.2275 150.335 52.5071 149.768 49.6884C146.07 54.6048 140.458 58.2593 133.842 60.062C133.793 60.7011 133.768 61.3403 133.777 61.9548L134.023 77.9249C134.031 78.5968 134.081 79.3015 134.171 80.0144C134.697 84.2999 136.604 88.2166 139.669 91.3303C140.022 91.6826 140.408 92.0514 140.869 92.4447C140.959 92.5266 141.008 92.6331 141.008 92.7561V121.042Z" fill="#050004"/>
<path d="M133.144 65.724H133.432L133.621 78.3428C133.629 79.072 133.686 79.7931 133.768 80.4978H133.366C129.273 80.5633 125.904 77.3103 125.838 73.2297C125.773 69.1491 129.043 65.7896 133.136 65.724H133.144Z" fill="#F1E1FF"/>
<path d="M133.259 80.9157C129.002 80.9157 125.501 77.4906 125.435 73.2379C125.37 68.9361 128.829 65.3881 133.135 65.3225H133.423C133.546 65.3225 133.637 65.3553 133.719 65.4372C133.801 65.511 133.842 65.6175 133.842 65.724L134.039 78.351C134.048 79.0393 134.097 79.7276 134.187 80.465C134.204 80.5797 134.163 80.6945 134.089 80.7846C134.015 80.8747 133.9 80.9239 133.785 80.9239H133.382C133.382 80.9239 133.3 80.9239 133.259 80.9239V80.9157ZM133.029 66.1337C129.224 66.2566 126.2 69.4113 126.257 73.2215C126.315 77.0317 129.446 80.0963 133.259 80.0963H133.316C133.259 79.4981 133.218 78.9246 133.218 78.351L133.029 66.1419V66.1337Z" fill="#050004"/>
<path d="M174.191 65.1013H174.479C178.571 65.0358 181.94 68.297 182.006 72.3776C182.072 76.4582 178.801 79.8177 174.709 79.8833H174.306C174.372 79.1786 174.405 78.4575 174.388 77.7283L174.199 65.1013H174.191Z" fill="#F1E1FF"/>
<path d="M174.298 80.293C174.183 80.293 174.076 80.2438 173.994 80.1619C173.912 80.0799 173.879 79.9652 173.887 79.8505C173.953 79.1294 173.977 78.4165 173.969 77.7364L173.78 65.1095C173.78 64.8801 173.961 64.6998 174.183 64.6916H174.471C174.471 64.6916 174.553 64.6916 174.594 64.6916C178.851 64.6916 182.351 68.1167 182.417 72.3776C182.45 74.4588 181.669 76.4336 180.207 77.9249C178.752 79.4244 176.796 80.2602 174.709 80.293H174.306H174.298ZM174.61 65.5028L174.799 77.7119C174.807 78.2772 174.799 78.8672 174.75 79.4572C176.599 79.4162 178.333 78.6624 179.623 77.3349C180.921 75.9993 181.628 74.2294 181.595 72.3694C181.538 68.5592 178.415 65.5028 174.61 65.4946V65.5028Z" fill="#050004"/>
<path d="M140.605 92.756V104.293C145.585 103.761 152.488 100.024 156.621 97.525C155.857 97.6233 155.093 97.697 154.304 97.7134C149.061 97.7954 144.262 95.9025 140.605 92.756Z" fill="#050004"/>
<path d="M140.194 104.752V91.8629L140.876 92.4447C144.599 95.6567 149.382 97.3775 154.304 97.3037C154.978 97.2955 155.701 97.2382 156.572 97.1235L158.52 96.8695L156.843 97.8855C152.159 100.712 145.544 104.187 140.655 104.711L140.203 104.76L140.194 104.752ZM141.016 93.6246V103.826C145.33 103.212 151.017 100.303 154.83 98.1067C154.649 98.1149 154.477 98.1231 154.312 98.1231C149.48 98.1887 144.788 96.6072 141.016 93.6246Z" fill="#050004"/>
<path d="M177.988 74.4998C177.898 74.4998 177.807 74.4671 177.733 74.4097L176.279 73.2461C176.114 73.115 176.024 72.9266 176.032 72.7135C176.032 72.5087 176.131 72.3202 176.303 72.1973L177.914 71.0092C178.095 70.8781 178.35 70.9109 178.489 71.0911C178.621 71.2714 178.588 71.5336 178.407 71.6647L176.961 72.7299L178.251 73.7706C178.424 73.9099 178.456 74.1721 178.317 74.3441C178.235 74.4425 178.12 74.4998 177.996 74.4998H177.988Z" fill="#050004"/>
<path d="M129.668 75.2291C129.553 75.2291 129.438 75.1799 129.355 75.0898C129.208 74.9177 129.224 74.6555 129.397 74.508L130.654 73.4346L129.183 72.4103C128.994 72.2792 128.953 72.0252 129.076 71.8368C129.208 71.6483 129.462 71.6073 129.651 71.7302L131.295 72.8692C131.467 72.9839 131.566 73.1724 131.582 73.3772C131.591 73.5821 131.509 73.7787 131.352 73.9098L129.939 75.1226C129.865 75.1881 129.766 75.2209 129.668 75.2209V75.2291Z" fill="#050004"/>
<path d="M146.259 70.8289C146.259 71.6811 145.569 72.3694 144.714 72.3694C143.859 72.3694 143.169 71.6811 143.169 70.8289C143.169 69.9768 143.859 69.2885 144.714 69.2885C145.569 69.2885 146.259 69.9768 146.259 70.8289Z" fill="#161123"/>
<path d="M165.497 70.8289C165.497 71.6811 164.806 72.3694 163.952 72.3694C163.097 72.3694 162.407 71.6811 162.407 70.8289C162.407 69.9768 163.097 69.2885 163.952 69.2885C164.806 69.2885 165.497 69.9768 165.497 70.8289Z" fill="#161123"/>
<path d="M148.609 61.8319C148.165 62.1515 147.524 62.2252 146.908 62.3399C146.283 62.4382 145.659 62.553 145.125 62.6759C144.582 62.7988 143.966 62.9545 143.358 63.1265C142.75 63.2822 142.134 63.4871 141.608 63.3806C141.098 63.2904 140.786 62.766 141.18 61.963C141.55 61.1764 142.733 60.1521 144.517 59.7506C146.3 59.3573 147.787 59.7998 148.437 60.357C149.119 60.9305 149.036 61.5369 148.609 61.8319Z" fill="#161123"/>
<path d="M159.424 61.7991C159.892 62.0695 160.541 62.0777 161.166 62.1269C161.799 62.1597 162.431 62.2088 162.982 62.2744C163.533 62.3399 164.157 62.4301 164.782 62.5366C165.398 62.6349 166.039 62.766 166.548 62.6103C167.041 62.4628 167.296 61.922 166.82 61.1518C166.376 60.4061 165.086 59.513 163.27 59.2999C161.453 59.0951 160.015 59.6851 159.44 60.3078C158.824 60.9469 158.963 61.5369 159.424 61.7909V61.7991Z" fill="#161123"/>
<path d="M153.951 76.0895H152.43C152.2 76.0895 152.02 75.9092 152.02 75.6798C152.02 75.4503 152.2 75.2701 152.43 75.2701H153.951C155.463 75.2701 156.695 74.041 156.695 72.5333C156.695 71.9105 156.202 71.4189 155.602 71.4189C154.674 71.4189 153.934 70.6814 153.934 69.7801V63.8804C153.934 63.651 154.115 63.4707 154.345 63.4707C154.575 63.4707 154.756 63.651 154.756 63.8804V69.7801C154.756 70.2308 155.126 70.5995 155.578 70.5995C156.663 70.5995 157.517 71.4599 157.517 72.5087C157.517 74.4998 155.915 76.0895 153.951 76.0895Z" fill="#161123"/>
<path d="M146.555 77.2694C146.333 77.3186 146.136 77.4333 145.98 77.6136C145.544 78.1052 145.158 79.0639 145.495 80.1619C145.922 81.5467 147.368 82.6037 149.579 83.1363C153.655 84.1196 154.658 81.2681 154.896 79.998C154.953 79.7112 154.863 79.3999 154.674 79.1786C154.584 79.0721 154.378 78.9 154.09 78.9328C151.083 79.2933 148.659 78.1462 147.483 77.4333C147.188 77.253 146.859 77.2039 146.555 77.2694Z" fill="#F9F8F6"/>
<path d="M151.14 83.7427C150.623 83.7427 150.072 83.6689 149.48 83.5296C147.13 82.9642 145.569 81.8089 145.1 80.2766C144.714 79.0147 145.166 77.9085 145.667 77.335C145.881 77.0973 146.152 76.9335 146.456 76.8597C146.867 76.7614 147.303 76.8351 147.689 77.0728C148.823 77.7611 151.148 78.8672 154.033 78.5149C154.378 78.4739 154.723 78.6132 154.978 78.9C155.249 79.2114 155.372 79.6457 155.29 80.0554C155.142 80.842 154.699 82.2841 153.417 83.1117C152.776 83.5214 152.011 83.7345 151.132 83.7345L151.14 83.7427ZM146.653 77.6627C146.514 77.6955 146.39 77.7692 146.292 77.8758C145.93 78.2855 145.61 79.0967 145.889 80.0308C146.267 81.2763 147.615 82.2268 149.677 82.7266C151.05 83.0544 152.159 82.9561 152.981 82.4316C154.008 81.7679 154.37 80.5716 154.493 79.9161C154.526 79.7522 154.477 79.5719 154.362 79.4408C154.288 79.3589 154.222 79.3179 154.14 79.3343C151.017 79.7112 148.494 78.5149 147.27 77.7774C147.072 77.6545 146.851 77.6218 146.653 77.6627Z" fill="#161123"/>
<path d="M165.981 77.7774C161.692 77.7774 158.208 74.295 158.208 70.0259C158.208 65.7568 161.7 62.2744 165.981 62.2744C170.263 62.2744 173.755 65.7568 173.755 70.0259C173.755 74.295 170.263 77.7774 165.981 77.7774ZM165.981 63.4953C162.374 63.4953 159.44 66.4205 159.44 70.0177C159.44 73.6148 162.374 76.5401 165.981 76.5401C169.589 76.5401 172.523 73.6148 172.523 70.0177C172.523 66.4205 169.589 63.4953 165.981 63.4953Z" fill="#E4DCFF"/>
<path d="M158.495 70.1078C158.364 70.1078 158.224 70.0669 158.117 69.9767C154.37 67.0433 151.066 69.8374 150.927 69.9521C150.672 70.1734 150.277 70.1488 150.056 69.8948C149.834 69.6408 149.858 69.2556 150.113 69.0262C150.154 68.9934 154.312 65.429 158.881 69.0016C159.153 69.2147 159.194 69.5998 158.988 69.862C158.865 70.0177 158.684 70.0996 158.503 70.0996L158.495 70.1078Z" fill="#E4DCFF"/>
<path d="M143.087 77.7774C138.797 77.7774 135.313 74.295 135.313 70.0259C135.313 65.7568 138.806 62.2744 143.087 62.2744C147.368 62.2744 150.861 65.7568 150.861 70.0259C150.861 74.295 147.368 77.7774 143.087 77.7774ZM143.087 63.4953C139.479 63.4953 136.546 66.4205 136.546 70.0177C136.546 73.6148 139.479 76.5401 143.087 76.5401C146.695 76.5401 149.628 73.6148 149.628 70.0177C149.628 66.4205 146.695 63.4953 143.087 63.4953Z" fill="#E4DCFF"/>
<path d="M175.604 78.8099C175.621 79.8013 176.434 80.588 177.429 80.5716C178.423 80.5552 179.212 79.744 179.195 78.7525C179.179 77.761 178.365 76.9744 177.371 76.9908C176.377 77.0072 175.588 77.8184 175.604 78.8099Z" fill="#F1E1FF"/>
<path d="M177.404 80.9895C176.829 80.9895 176.287 80.7683 175.867 80.3667C175.44 79.957 175.202 79.408 175.194 78.8181C175.185 78.2281 175.407 77.6709 175.818 77.253C176.229 76.8269 176.78 76.5893 177.371 76.5811C177.971 76.5811 178.522 76.7942 178.941 77.2039C179.368 77.6136 179.606 78.1626 179.615 78.7525C179.631 79.9652 178.653 80.9731 177.437 80.9895C177.429 80.9895 177.412 80.9895 177.404 80.9895ZM177.404 77.4005C177.404 77.4005 177.388 77.4005 177.379 77.4005C177.01 77.4005 176.665 77.5562 176.402 77.8184C176.147 78.0806 176.007 78.433 176.007 78.8017C176.007 79.1704 176.163 79.5146 176.426 79.7768C176.689 80.0308 177.059 80.1701 177.412 80.1701C178.177 80.1619 178.793 79.531 178.777 78.7689C178.777 78.4002 178.62 78.056 178.357 77.7938C178.094 77.5398 177.758 77.4005 177.396 77.4005H177.404Z" fill="#050004"/>
<path d="M128.525 79.531C128.542 80.5225 129.355 81.3091 130.349 81.2927C131.344 81.2763 132.133 80.4651 132.116 79.4736C132.1 78.4822 131.286 77.6955 130.292 77.7119C129.298 77.7283 128.509 78.5395 128.525 79.531Z" fill="#F1E1FF"/>
<path d="M130.325 81.7024C129.75 81.7024 129.207 81.4811 128.788 81.0796C128.361 80.6699 128.123 80.1209 128.114 79.531C128.106 78.941 128.328 78.3838 128.739 77.9659C129.15 77.5398 129.701 77.3022 130.292 77.294C130.876 77.294 131.443 77.507 131.862 77.9167C132.289 78.3264 132.519 78.8755 132.536 79.4654C132.544 80.0554 132.322 80.6126 131.911 81.0305C131.5 81.4566 130.95 81.6942 130.358 81.7024C130.35 81.7024 130.333 81.7024 130.325 81.7024ZM130.325 78.1134C130.325 78.1134 130.309 78.1134 130.3 78.1134C129.931 78.1134 129.585 78.2691 129.322 78.5313C129.068 78.7935 128.928 79.1459 128.928 79.5146C128.936 80.2766 129.577 80.883 130.333 80.8748C130.703 80.8748 131.048 80.7191 131.311 80.4569C131.574 80.1947 131.706 79.8423 131.706 79.4736C131.706 79.1049 131.549 78.7607 131.287 78.4985C131.024 78.2445 130.687 78.1052 130.325 78.1052V78.1134Z" fill="#050004"/>
<path d="M196.897 216.518L191.867 209.365L187.068 202.531L183.625 197.631L149.784 197.484L115.369 197.631L111.925 202.531L107.126 209.365L102.097 216.518C96.3282 224.721 92.4002 233.898 90.4443 243.468H208.541C206.594 233.89 202.657 224.721 196.888 216.518H196.897Z" fill="url(#paint1_linear_841_1330)"/>
<path d="M208.541 243.878H90.4362C90.3129 243.878 90.1978 243.821 90.1157 243.731C90.0417 243.632 90.0088 243.509 90.0335 243.386C92.0222 233.636 95.9667 224.516 101.752 216.281L115.032 197.393C115.106 197.287 115.237 197.221 115.369 197.221L149.785 197.074L183.633 197.221C183.765 197.221 183.888 197.287 183.97 197.393L197.25 216.281C203.035 224.516 206.98 233.636 208.968 243.386C208.993 243.509 208.968 243.632 208.886 243.731C208.812 243.829 208.689 243.878 208.566 243.878H208.541ZM90.9374 243.059H208.04C206.043 233.603 202.181 224.753 196.56 216.748L183.403 198.041L149.776 197.893L115.582 198.041L102.426 216.748C96.8049 224.745 92.9426 233.595 90.9457 243.059H90.9374Z" fill="#050004"/>
<path d="M190.832 212.257H108.885C108.655 212.257 108.474 212.077 108.474 211.848C108.474 211.618 108.655 211.438 108.885 211.438H190.832C191.062 211.438 191.243 211.618 191.243 211.848C191.243 212.077 191.062 212.257 190.832 212.257Z" fill="#FFF8F8"/>
<path d="M146.916 228.088C146.686 228.088 146.505 227.908 146.505 227.679V211.84C146.505 211.61 146.686 211.43 146.916 211.43C147.146 211.43 147.327 211.61 147.327 211.84V227.679C147.327 227.908 147.146 228.088 146.916 228.088Z" fill="#FFF8F8"/>
<path d="M155.019 228.088C154.789 228.088 154.608 227.908 154.608 227.679V211.84C154.608 211.61 154.789 211.43 155.019 211.43C155.249 211.43 155.43 211.61 155.43 211.84V227.679C155.43 227.908 155.249 228.088 155.019 228.088Z" fill="#FFF8F8"/>
<path d="M106.091 228.293C105.918 228.293 105.754 228.187 105.696 228.007C105.622 227.794 105.746 227.564 105.959 227.49C118.565 223.41 116.412 212.397 116.314 211.93C116.264 211.709 116.412 211.488 116.634 211.447C116.856 211.406 117.07 211.545 117.119 211.766C117.144 211.889 119.535 223.967 106.214 228.277C106.173 228.293 106.132 228.293 106.091 228.293Z" fill="#FFF8F8"/>
<path d="M190.544 228.293C190.503 228.293 190.462 228.293 190.421 228.277C177.1 223.967 179.483 211.889 179.508 211.766C179.557 211.545 179.779 211.405 179.993 211.446C180.215 211.495 180.354 211.708 180.313 211.93C180.215 212.397 178.062 223.418 190.676 227.49C190.89 227.556 191.013 227.793 190.939 228.006C190.881 228.178 190.725 228.293 190.544 228.293Z" fill="#FFF8F8"/>
<path d="M108.92 170.191C108.92 170.192 108.922 170.191 108.921 170.19C107.791 168.256 106.195 165.508 105.043 163.536C104.986 163.438 104.912 163.351 104.825 163.277L85.6759 147.097C83.5114 145.268 82.9215 142.175 84.2612 139.678L95.35 119.01C100.166 110.037 109.304 104.203 119.477 103.449C120.217 103.392 120.956 103.359 121.712 103.359H134.864C136.133 103.359 137.369 103.761 138.395 104.508L149.477 112.574C151.537 114.073 154.318 114.109 156.415 112.662L168.363 104.42C169.365 103.729 170.553 103.359 171.77 103.359H181.636C182.384 103.359 183.132 103.392 183.871 103.449C191.982 104.047 200.783 108.292 206.569 113.774C208.927 116.009 215.079 122.938 218.824 127.202C220.626 129.253 220.795 132.257 219.254 134.51L196.003 168.487C195.578 169.109 195.273 169.804 195.106 170.538L188.631 198.835C188.013 201.537 185.643 203.463 182.871 203.493C166.348 203.673 111.927 204.219 111.021 203.621C110.512 203.285 108.921 170.253 108.917 170.19C108.917 170.188 108.919 170.191 108.92 170.191Z" fill="url(#paint2_linear_841_1330)"/>
<path d="M128.426 204.317C118.401 204.317 111.178 204.227 110.799 203.981C110.578 203.834 110.117 203.531 108.523 170.329L104.644 163.667L81.7088 144.288C81.5609 144.165 81.5198 143.952 81.6102 143.78L94.9968 118.829C99.8864 109.726 109.024 103.826 119.453 103.056C120.258 102.999 120.998 102.966 121.713 102.966H136.817C136.907 102.966 136.989 102.99 137.055 103.048L152.924 114.593L169.671 103.04C169.737 102.99 169.819 102.966 169.901 102.966H181.636C182.351 102.966 183.091 102.999 183.896 103.056C191.76 103.638 200.767 107.735 206.84 113.495C210.308 116.781 222.051 130.301 222.174 130.44C222.297 130.58 222.306 130.784 222.207 130.94L195.738 169.616L187.98 203.555C187.939 203.744 187.775 203.875 187.586 203.875C176.007 204.014 147.27 204.326 128.418 204.326L128.426 204.317ZM111.35 203.318C114.424 203.785 166.672 203.293 187.257 203.056L194.965 169.354C194.974 169.304 194.998 169.255 195.023 169.214L221.352 130.735C219.758 128.9 209.47 117.109 206.281 114.085C200.332 108.448 191.53 104.433 183.839 103.867C183.05 103.81 182.335 103.785 181.636 103.785H170.033L153.145 115.429C153.006 115.527 152.808 115.527 152.669 115.429L136.677 103.785H121.704C121.014 103.785 120.291 103.81 119.502 103.867C109.361 104.613 100.462 110.349 95.7118 119.206L82.4812 143.862L105.22 163.069C105.22 163.069 105.285 163.134 105.31 163.175L109.279 169.985C109.312 170.042 109.329 170.107 109.337 170.173C109.937 182.603 110.947 201.294 111.35 203.31V203.318Z" fill="#050004"/>
<g opacity="0.49">
<path d="M128.426 204.317C118.401 204.317 111.178 204.227 110.799 203.981C110.578 203.834 110.06 203.49 108.523 170.329L104.644 163.667L81.7088 144.288C81.5609 144.165 81.5198 143.952 81.6102 143.78L94.9968 118.829C99.8864 109.726 109.024 103.826 119.453 103.056C120.258 102.999 120.998 102.966 121.713 102.966H136.817C136.907 102.966 136.989 102.99 137.055 103.048L152.924 114.593L169.671 103.04C169.737 102.99 169.819 102.966 169.901 102.966H181.636C182.351 102.966 183.091 102.999 183.896 103.056C191.76 103.638 200.767 107.735 206.84 113.495C210.308 116.781 221.895 130.293 222.388 130.866C222.511 131.006 222.519 131.211 222.413 131.366L195.73 169.608L187.972 203.547C187.931 203.736 187.767 203.867 187.578 203.867C175.999 204.006 147.261 204.317 128.41 204.317H128.426ZM111.35 203.318C114.35 203.793 166.664 203.293 187.265 203.056L194.974 169.354C194.982 169.304 195.006 169.255 195.039 169.214L221.583 131.17C219.98 129.301 209.486 117.117 206.298 114.093C200.348 108.456 191.547 104.441 183.855 103.875C183.066 103.818 182.351 103.793 181.653 103.793H170.049L153.162 115.437C153.022 115.535 152.825 115.535 152.685 115.437L136.694 103.793H121.721C121.031 103.793 120.307 103.818 119.518 103.875C109.378 104.621 100.478 110.357 95.7282 119.215L82.4977 143.87L105.236 163.077C105.236 163.077 105.302 163.143 105.326 163.184L109.296 169.993C109.329 170.05 109.345 170.116 109.353 170.181C109.928 182.62 110.923 201.343 111.358 203.31L111.35 203.318Z" fill="#050004"/>
</g>
<path d="M148.03 107.287L147.619 149.943C147.601 151.839 149.128 153.391 151.029 153.409L175.797 153.646C177.698 153.665 179.254 152.142 179.273 150.246L179.683 107.59C179.702 105.694 178.175 104.142 176.273 104.124L151.506 103.887C149.605 103.869 148.048 105.391 148.03 107.287Z" fill="#050004"/>
<path d="M175.818 154.047H175.785L151.017 153.81C149.99 153.801 149.029 153.392 148.305 152.662C147.582 151.933 147.196 150.958 147.204 149.934L147.615 107.276C147.64 105.17 149.357 103.474 151.469 103.474H151.502L176.27 103.711C177.298 103.72 178.267 104.129 178.982 104.867C179.705 105.596 180.092 106.571 180.083 107.595L179.672 150.253C179.648 152.359 177.93 154.055 175.818 154.055V154.047ZM175.785 153.228H175.81C177.47 153.228 178.826 151.892 178.842 150.237L179.253 107.579C179.253 106.768 178.949 106.014 178.382 105.432C177.815 104.859 177.059 104.531 176.246 104.523L151.477 104.285C149.834 104.269 148.429 105.612 148.42 107.276L148.01 149.934C148.01 150.745 148.314 151.507 148.872 152.081C149.439 152.654 150.195 152.982 151.009 152.982L175.777 153.22L175.785 153.228Z" fill="#050004"/>
<path d="M159.704 111.594H159.687L153.45 111.537C152.349 111.529 151.469 110.627 151.478 109.529V109.128C151.486 108.595 151.699 108.103 152.077 107.727C152.456 107.358 152.949 107.161 153.474 107.161H153.491L159.728 107.218C160.262 107.218 160.755 107.432 161.133 107.817C161.503 108.194 161.709 108.693 161.7 109.226V109.628C161.684 110.717 160.796 111.594 159.704 111.594ZM153.466 107.972C153.154 107.972 152.866 108.087 152.645 108.308C152.423 108.53 152.299 108.816 152.291 109.128V109.529C152.283 110.177 152.801 110.701 153.45 110.709L159.687 110.766C160.361 110.766 160.862 110.25 160.87 109.611V109.21C160.87 108.898 160.755 108.603 160.542 108.382C160.32 108.161 160.032 108.038 159.72 108.03L153.483 107.972H153.474H153.466Z" fill="#F1E1FF"/>
<path d="M239.711 152.277L221.698 130.514L211.056 146.46L197.941 129.67V129.686L186.074 109.455C184.431 106.85 180.831 106.366 178.555 108.448C177.314 109.587 177.166 111.111 177.733 112.692L179.59 119.69L162.251 121.058C159.531 121.165 157.419 123.459 157.542 126.171C157.657 128.793 159.843 130.858 162.473 130.834L161.248 130.981C159.284 131.071 157.863 133.439 157.953 135.398L157.97 135.791C158.044 137.495 159.284 138.913 160.969 139.208C163.418 139.634 167.535 140.085 173.674 139.978L163.886 140.65C162.169 140.765 160.862 142.223 160.92 143.936C160.977 145.624 162.267 147 163.944 147.189C165.998 147.41 168.973 147.697 172.252 147.885L167.765 147.992C164.749 148.066 163.771 151.859 166.039 153.629C166.73 154.17 167.568 154.473 168.406 154.727C170.419 155.334 172.515 155.645 174.61 155.842C176.213 155.989 178.284 156.44 179.878 156.169C180.182 156.12 180.519 156.169 180.872 156.309L197.349 178.867C209.601 195.64 235.619 192.207 243.072 172.836C245.751 165.879 244.461 158.021 239.703 152.269L239.711 152.277Z" fill="#F1E1FF"/>
<path d="M218.427 190.068C209.955 190.068 202.14 186.127 197.028 179.121L180.626 156.669C180.363 156.587 180.141 156.555 179.952 156.587C178.727 156.792 177.248 156.596 175.942 156.423C175.465 156.358 175.005 156.301 174.577 156.26C172.087 156.03 170.09 155.67 168.291 155.129C167.485 154.883 166.557 154.555 165.793 153.957C164.56 152.99 164.083 151.409 164.576 149.917C164.897 148.951 165.571 148.229 166.45 147.861C165.48 147.771 164.617 147.68 163.903 147.607C162.037 147.402 160.574 145.837 160.509 143.96C160.443 142.018 161.906 140.388 163.853 140.257L165.258 140.158C163.418 140.003 161.971 139.806 160.887 139.618C159.005 139.29 157.632 137.725 157.55 135.816L157.534 135.422C157.452 133.595 158.577 131.465 160.254 130.793C158.479 130.006 157.213 128.269 157.123 126.196C157.057 124.778 157.558 123.418 158.52 122.369C159.481 121.32 160.796 120.714 162.226 120.657L179.056 119.321L177.322 112.799C176.656 110.939 176.977 109.324 178.267 108.144C179.442 107.071 181.02 106.579 182.598 106.792C184.176 107.005 185.564 107.899 186.411 109.242L198.212 129.375C198.212 129.375 198.244 129.408 198.253 129.424L211.015 145.763L221.344 130.293C221.418 130.186 221.533 130.121 221.665 130.113C221.788 130.113 221.92 130.162 222.002 130.26L240.015 152.023C244.863 157.874 246.178 165.912 243.45 172.992C239.892 182.235 231.896 188.528 222.059 189.822C220.835 189.986 219.619 190.06 218.411 190.06L218.427 190.068ZM180.108 155.76C180.387 155.76 180.7 155.825 181.028 155.948C181.102 155.973 181.168 156.022 181.217 156.088L197.694 178.646C203.356 186.397 212.436 190.273 221.969 189.019C231.501 187.757 239.259 181.661 242.702 172.705C245.324 165.896 244.058 158.169 239.399 152.548L221.731 131.211L211.393 146.689C211.319 146.796 211.195 146.869 211.064 146.869C210.933 146.886 210.809 146.812 210.727 146.714L197.686 130.014C197.644 129.981 197.603 129.94 197.571 129.891L185.721 109.66C185.014 108.538 183.839 107.776 182.499 107.604C181.168 107.423 179.828 107.841 178.834 108.751C177.799 109.701 177.552 110.98 178.119 112.561L179.985 119.591C180.017 119.706 179.993 119.837 179.919 119.936C179.845 120.034 179.738 120.099 179.615 120.108L162.275 121.476C161.059 121.525 159.942 122.041 159.128 122.926C158.314 123.811 157.895 124.958 157.945 126.163C158.052 128.564 160.016 130.432 162.423 130.432C162.44 130.432 162.456 130.432 162.473 130.432C162.686 130.432 162.867 130.596 162.884 130.817C162.9 131.03 162.744 131.227 162.522 131.251L161.298 131.399C159.564 131.481 158.282 133.644 158.356 135.398L158.372 135.791C158.438 137.315 159.531 138.561 161.035 138.823C163.385 139.232 167.485 139.691 173.665 139.585C173.879 139.609 174.076 139.757 174.084 139.978C174.093 140.199 173.92 140.388 173.698 140.404L163.911 141.084C162.407 141.191 161.273 142.444 161.33 143.944C161.38 145.435 162.506 146.64 163.993 146.804C165.916 147.017 168.915 147.304 172.276 147.5C172.498 147.517 172.671 147.697 172.663 147.918C172.663 148.139 172.482 148.311 172.26 148.32L167.773 148.426C166.614 148.451 165.71 149.114 165.349 150.196C164.963 151.351 165.332 152.589 166.286 153.334C166.943 153.851 167.781 154.146 168.513 154.367C170.255 154.891 172.202 155.244 174.635 155.465C175.07 155.506 175.547 155.563 176.032 155.629C177.281 155.793 178.694 155.981 179.796 155.793C179.894 155.776 179.985 155.768 180.091 155.768L180.108 155.76Z" fill="#050004"/>
<path d="M161.421 131.227C161.199 131.227 161.01 131.047 161.01 130.825C161.01 130.596 161.191 130.416 161.412 130.408L177.248 130.162C177.453 130.154 177.659 130.342 177.667 130.563C177.667 130.793 177.486 130.973 177.264 130.981L161.429 131.227H161.421Z" fill="#050004"/>
<path d="M165.275 140.412C165.045 140.412 164.864 140.232 164.864 140.003C164.864 139.773 165.045 139.593 165.275 139.593L177.322 139.544C177.552 139.544 177.733 139.724 177.733 139.954C177.733 140.183 177.552 140.363 177.322 140.363L165.275 140.412Z" fill="#050004"/>
<path d="M176.854 148.443H176.845L167.518 148.189C167.288 148.189 167.116 147.992 167.116 147.771C167.116 147.541 167.313 147.361 167.535 147.369L176.862 147.623C177.092 147.623 177.265 147.82 177.265 148.041C177.265 148.262 177.076 148.443 176.854 148.443Z" fill="#050004"/>
<path d="M220.227 159.177C220.103 159.177 219.98 159.119 219.898 159.013L208.549 143.977C208.41 143.797 208.451 143.543 208.632 143.403C208.812 143.264 209.067 143.305 209.207 143.485L220.555 158.521C220.695 158.701 220.654 158.955 220.473 159.095C220.399 159.152 220.309 159.177 220.227 159.177Z" fill="#050004"/>
<path d="M176.747 120.313C176.525 120.313 176.344 120.14 176.336 119.911C176.336 119.682 176.509 119.493 176.739 119.493L183.674 119.296C183.904 119.296 184.093 119.469 184.093 119.698C184.093 119.927 183.921 120.116 183.691 120.116L176.755 120.313H176.747Z" fill="#050004"/>
<path d="M114.358 128.154C114.358 128.154 120.53 109.693 109.666 97.3611C108.31 95.8206 101.653 76.6631 101.653 76.6631C99.7552 72.5005 97.8076 70.8371 95.7449 70.8125C92.7619 70.7798 90.7979 74.3524 91.6279 77.7856L94.2575 88.6755C89.1379 90.7076 78.685 102.056 78.0275 106.219C77.592 108.997 77.9371 111.93 79.1698 114.659L82.6541 122.369C82.6541 122.369 78.3562 149.426 77.5673 154.531C75.1431 170.378 71.0178 191.936 89.105 200.507C95.0546 203.326 102.73 202.9 107.652 198.532C113.561 193.28 114.522 184.193 114.695 176.777L114.358 128.154Z" fill="#F1E1FF"/>
<path d="M97.0516 202.695C94.3151 202.695 91.5128 202.097 88.9325 200.876C71.2644 192.51 74.5104 171.599 76.8771 156.325L77.1647 154.465C77.9125 149.598 81.9145 124.401 82.2268 122.427L78.7918 114.823C77.5591 112.094 77.1565 109.103 77.6167 106.153C78.2741 101.95 88.4805 90.8141 93.7727 88.4296L91.2252 77.8758C90.7239 75.8109 91.1677 73.5985 92.3757 72.0826C93.255 70.9764 94.4465 70.4192 95.7449 70.3947C98.1116 70.4274 100.166 72.4186 102.023 76.4828C104.702 84.1933 109.017 95.9927 109.978 97.0825C120.546 109.07 115.163 126.966 114.777 128.212L115.114 176.761C114.942 184.226 113.972 193.469 107.94 198.827C105.088 201.359 101.144 202.679 97.068 202.679L97.0516 202.695ZM95.6956 71.2222C94.6766 71.2222 93.7316 71.7139 93.0167 72.5988C91.9648 73.9181 91.5868 75.86 92.0223 77.6873L94.652 88.5771C94.7013 88.7738 94.5945 88.9786 94.4054 89.0524C89.5159 90.9944 79.063 102.261 78.4302 106.276C77.9947 109.062 78.3809 111.905 79.5396 114.487L83.0239 122.197C83.0568 122.271 83.065 122.353 83.0568 122.427C83.0157 122.697 78.7425 149.541 77.9782 154.588L77.6906 156.448C75.2335 172.295 72.1765 192.026 89.2858 200.13C95.408 203.031 102.853 202.244 107.381 198.221C113.175 193.067 114.112 184.045 114.284 176.761L113.947 128.154C113.947 128.113 113.947 128.064 113.972 128.023C114.029 127.843 119.938 109.636 109.362 97.6315C107.989 96.0747 101.949 78.7607 101.267 76.7942C99.5744 73.0823 97.7665 71.2468 95.7449 71.2222C95.7285 71.2222 95.7203 71.2222 95.7038 71.2222H95.6956Z" fill="#050004"/>
<path d="M81.8485 99.6391C82.2429 99.9177 82.6045 100.237 82.9415 100.581L89.4417 107.169C91.0606 108.808 90.8715 111.635 88.8829 112.799C87.5105 113.602 85.7026 113.421 83.1551 111.791L76.9261 106.383C75.0771 104.777 74.4032 102.097 75.5209 99.9259C76.4248 98.1723 78.2327 97.1071 81.8485 99.6309V99.6391Z" fill="#F1E1FF"/>
<path d="M87.1572 113.675C85.941 113.675 84.544 113.167 82.9415 112.135L76.6632 106.694C74.6252 104.924 73.9925 101.999 75.1676 99.7374C75.71 98.6886 76.4495 98.0494 77.3864 97.82C78.6601 97.5086 80.2461 98.0003 82.0951 99.3031C82.4649 99.5653 82.8429 99.8849 83.2456 100.295L89.7458 106.883C90.6498 107.8 91.0853 109.103 90.9127 110.381C90.7566 111.561 90.0992 112.577 89.1048 113.159C88.5132 113.503 87.864 113.684 87.1572 113.684V113.675ZM78.1671 98.5411C77.9616 98.5411 77.7644 98.5656 77.5836 98.6066C76.8933 98.7787 76.3263 99.2785 75.899 100.106C74.9046 102.04 75.4552 104.547 77.2056 106.071L83.4346 111.479C85.637 112.889 87.3709 113.217 88.6857 112.446C89.4746 111.987 89.9759 111.209 90.0992 110.267C90.2389 109.242 89.8855 108.185 89.1541 107.448L82.6539 100.86C82.2841 100.483 81.9554 100.196 81.6185 99.9668C80.2626 99.0245 79.1039 98.5411 78.1588 98.5411H78.1671Z" fill="#050004"/>
<path d="M87.0423 94.1163C87.4368 94.3949 87.7984 94.7145 88.1353 95.0586L94.6355 101.647C96.2544 103.285 96.0654 106.112 94.0767 107.276C92.7044 108.079 90.8965 107.899 88.349 106.268L82.1199 100.86C80.2709 99.2539 79.5971 96.5745 80.7147 94.4031C81.6186 92.6496 83.4265 91.5844 87.0423 94.1081V94.1163Z" fill="#F1E1FF"/>
<path d="M92.3428 108.161C91.1266 108.161 89.7295 107.653 88.1271 106.62L81.8488 101.18C79.8108 99.4097 79.178 96.4844 80.3531 94.2229C80.8955 93.174 81.6351 92.5349 82.5637 92.3055C83.8374 91.9941 85.4235 92.4857 87.2725 93.7804C87.6505 94.0426 88.0203 94.3703 88.4229 94.7719L94.9231 101.36C95.8271 102.269 96.2626 103.58 96.0901 104.859C95.9339 106.039 95.2765 107.055 94.2822 107.636C93.6905 107.981 93.0413 108.161 92.3346 108.161H92.3428ZM83.3526 93.0265C83.1472 93.0265 82.9499 93.0511 82.7691 93.0921C82.0789 93.2642 81.5118 93.764 81.0845 94.5916C80.0902 96.5254 80.6408 99.0327 82.3911 100.557L88.6202 105.965C90.8225 107.374 92.5564 107.702 93.8713 106.932C94.6602 106.473 95.1615 105.694 95.2847 104.752C95.4162 103.728 95.0711 102.671 94.3397 101.942L87.8395 95.3536C87.4779 94.9849 87.1328 94.6899 86.804 94.4605C85.4481 93.51 84.2894 93.0347 83.3444 93.0347L83.3526 93.0265Z" fill="#050004"/>
<path d="M92.2772 87.43C92.6634 87.725 93.0003 88.0692 93.329 88.4215L99.517 95.3044C101.054 97.017 100.741 99.8357 98.6952 100.901C97.29 101.638 95.4903 101.376 93.0168 99.6227L87.0425 93.9361C85.2675 92.2481 84.7169 89.5359 85.9413 87.4136C86.9274 85.7011 88.7846 84.726 92.2772 87.4136V87.43Z" fill="#F1E1FF"/>
<path d="M97.109 101.712C95.8435 101.712 94.4136 101.139 92.7782 99.975L86.7629 94.2474C84.8153 92.3874 84.314 89.4375 85.5877 87.2252C86.1712 86.2091 86.9519 85.5946 87.8887 85.4061C89.1707 85.1521 90.732 85.7257 92.5235 87.1023C92.8851 87.3809 93.2467 87.725 93.6247 88.1511L99.8126 95.034C100.667 95.9846 101.045 97.312 100.815 98.582C100.602 99.7538 99.8948 100.737 98.8758 101.27C98.3252 101.556 97.7335 101.704 97.1008 101.704L97.109 101.712ZM88.5133 86.1681C88.3489 86.1681 88.201 86.1845 88.0531 86.2091C87.3546 86.3484 86.7711 86.8237 86.3027 87.6267C85.2179 89.5113 85.6453 92.0432 87.3299 93.6493L93.3042 99.3359C95.4408 100.844 97.1583 101.253 98.506 100.549C99.3113 100.123 99.8537 99.3769 100.018 98.4428C100.199 97.4267 99.903 96.3533 99.2127 95.583L93.0248 88.7001C92.6796 88.315 92.3509 88.0036 92.0304 87.7578C90.6663 86.7007 89.4829 86.1763 88.5215 86.1763L88.5133 86.1681Z" fill="#050004"/>
<path d="M92.2604 119.206C92.2604 119.206 92.548 107.522 104.069 110.644C105.943 111.152 90.51 105.817 91.5536 100.712C92.5973 95.6076 100.914 98.4099 109.115 102.073" fill="#F1E1FF"/>
<path d="M92.2604 119.616C92.2604 119.616 92.2604 119.616 92.2522 119.616C92.0221 119.616 91.8495 119.419 91.8495 119.198C91.8495 118.977 92.0221 113.839 95.5721 111.201C97.0595 110.095 98.9085 109.603 101.094 109.726C93.8464 106.358 90.584 103.376 91.1428 100.639C91.3893 99.4424 92.0138 98.5738 93.0082 98.0658C96.361 96.3451 103.461 99.1065 109.271 101.704C109.476 101.794 109.567 102.04 109.476 102.245C109.386 102.45 109.14 102.54 108.934 102.45C103.732 100.123 96.4514 97.2136 93.378 98.7869C92.6055 99.1802 92.1371 99.8357 91.9399 100.794C91.5865 102.54 93.3287 105.547 103.675 109.98C104.554 110.357 104.735 110.439 104.603 110.816C104.472 111.184 104.077 111.078 103.946 111.045C100.642 110.152 97.9881 110.422 96.057 111.856C92.8274 114.257 92.663 119.174 92.6548 119.223C92.6548 119.444 92.4658 119.624 92.2439 119.624L92.2604 119.616Z" fill="#050004"/>
<path d="M280.051 72.9758H207.793C201.835 72.9758 197.003 77.7938 197.003 83.7345C197.003 89.6751 201.835 94.4932 207.793 94.4932H238.379L243.745 99.8193L249.062 94.4932H280.051C286.009 94.4932 290.841 89.6751 290.841 83.7345C290.841 77.7938 286.009 72.9758 280.051 72.9758Z" fill="url(#paint3_linear_841_1330)"/>
<path d="M243.746 100.221C243.639 100.221 243.532 100.18 243.458 100.098L238.215 94.8947H207.793C201.622 94.8947 196.592 89.8882 196.592 83.7263C196.592 77.5644 201.613 72.5579 207.793 72.5579H280.051C286.223 72.5579 291.252 77.5644 291.252 83.7263C291.252 89.8882 286.231 94.8947 280.051 94.8947H249.235L244.041 100.098C243.967 100.172 243.861 100.221 243.754 100.221H243.746ZM207.793 73.3855C202.074 73.3855 197.414 78.0233 197.414 83.7345C197.414 89.4457 202.065 94.0835 207.793 94.0835H238.379C238.486 94.0835 238.593 94.1245 238.667 94.2064L243.746 99.2457L248.775 94.2064C248.849 94.1327 248.956 94.0835 249.062 94.0835H280.051C285.771 94.0835 290.43 89.4457 290.43 83.7345C290.43 78.0233 285.779 73.3855 280.051 73.3855H207.793Z" fill="#050004"/>
<path d="M213.233 77.0154L214.746 80.0718C214.811 80.2029 214.935 80.293 215.082 80.3176L218.46 80.8092C218.83 80.8666 218.978 81.3172 218.706 81.5713L216.258 83.9475C216.151 84.054 216.101 84.2015 216.126 84.3408L216.701 87.6922C216.767 88.0609 216.381 88.3395 216.052 88.1674L213.028 86.586C212.897 86.5204 212.74 86.5204 212.609 86.586L209.585 88.1674C209.256 88.3395 208.87 88.0609 208.936 87.6922L209.511 84.3408C209.535 84.1933 209.486 84.0458 209.379 83.9475L206.93 81.5713C206.667 81.3091 206.807 80.8584 207.177 80.8092L210.554 80.3176C210.702 80.293 210.826 80.2029 210.891 80.0718L212.403 77.0154C212.568 76.6794 213.044 76.6794 213.209 77.0154H213.233Z" fill="url(#paint4_linear_841_1330)"/>
<path d="M216.274 88.6263C216.134 88.6263 216.003 88.5935 215.871 88.528L212.847 86.9465L209.79 88.528C209.502 88.6836 209.149 88.6591 208.886 88.4624C208.615 88.2657 208.483 87.9462 208.541 87.6266L209.116 84.2671L206.659 81.858C206.421 81.6286 206.339 81.2927 206.445 80.9813C206.544 80.6699 206.815 80.4487 207.136 80.3995L210.513 79.9079L212.05 76.8351C212.198 76.5401 212.494 76.3599 212.822 76.3599C213.151 76.3599 213.447 76.5401 213.595 76.8351L215.107 79.8915L218.517 80.3995C218.846 80.4487 219.109 80.6699 219.208 80.9813C219.306 81.2927 219.224 81.6286 218.994 81.858L216.545 84.2343L217.112 87.6266C217.17 87.9544 217.038 88.2739 216.767 88.4624C216.619 88.5689 216.438 88.6263 216.266 88.6263H216.274ZM212.831 86.1189C212.97 86.1189 213.102 86.1517 213.233 86.2172L216.257 87.7987L215.74 84.4064C215.69 84.1278 215.781 83.841 215.986 83.6443L218.435 81.2681L215.033 80.7109C214.754 80.6699 214.515 80.4978 214.384 80.2438L212.872 77.1875C212.872 77.1875 212.864 77.1629 212.839 77.1629L211.294 80.2356C211.171 80.4896 210.924 80.6617 210.645 80.7027L207.267 81.1943L209.691 83.6361C209.897 83.8328 209.987 84.1196 209.938 84.3982L209.363 87.7577L212.444 86.2172C212.568 86.1517 212.707 86.1189 212.847 86.1189H212.831Z" fill="#050004"/>
<path d="M243.023 77.0154L244.535 80.0718C244.6 80.2029 244.724 80.293 244.872 80.3176L248.249 80.8092C248.619 80.8666 248.767 81.3172 248.496 81.5713L246.047 83.9475C245.94 84.054 245.891 84.2015 245.915 84.3408L246.49 87.6922C246.556 88.0609 246.17 88.3395 245.841 88.1674L242.817 86.586C242.686 86.5204 242.529 86.5204 242.398 86.586L239.374 88.1674C239.045 88.3395 238.659 88.0609 238.725 87.6922L239.3 84.3408C239.325 84.1933 239.275 84.0458 239.168 83.9475L236.72 81.5713C236.457 81.3091 236.596 80.8584 236.966 80.8092L240.344 80.3176C240.491 80.293 240.615 80.2029 240.68 80.0718L242.193 77.0154C242.357 76.6794 242.834 76.6794 242.998 77.0154H243.023Z" fill="url(#paint5_linear_841_1330)"/>
<path d="M239.176 88.6263C238.996 88.6263 238.823 88.5689 238.667 88.4624C238.404 88.2657 238.273 87.9462 238.322 87.6266L238.897 84.2753L236.44 81.8662C236.202 81.6368 236.119 81.3008 236.218 80.9895C236.317 80.6781 236.588 80.4568 236.917 80.4077L240.294 79.916L241.831 76.8433C241.979 76.5483 242.275 76.368 242.603 76.368C242.932 76.368 243.228 76.5483 243.376 76.8433L244.888 79.8997L248.298 80.4077C248.627 80.4568 248.89 80.6781 248.988 80.9895C249.087 81.3008 249.005 81.6368 248.775 81.8662L246.326 84.2425L246.893 87.6348C246.95 87.9626 246.819 88.2821 246.548 88.4706C246.277 88.6672 245.931 88.6918 245.644 88.5361L242.62 86.9547L239.563 88.5361C239.439 88.6017 239.3 88.6345 239.16 88.6345L239.176 88.6263ZM242.62 86.1189C242.759 86.1189 242.891 86.1517 243.022 86.2172L246.046 87.7987L245.529 84.4064C245.479 84.1278 245.57 83.841 245.775 83.6443L248.224 81.2681L244.822 80.7109C244.543 80.6699 244.304 80.4978 244.173 80.2438L242.661 77.1874C242.661 77.1874 242.653 77.1629 242.628 77.1629L241.083 80.2356C240.96 80.4896 240.713 80.6617 240.434 80.7027L237.056 81.1943L239.481 83.6361C239.686 83.8328 239.776 84.1196 239.727 84.3982L239.152 87.7577L242.233 86.2172C242.357 86.1517 242.496 86.1189 242.636 86.1189H242.62Z" fill="#050004"/>
<path d="M273.206 77.0154L274.718 80.0718C274.784 80.2029 274.907 80.293 275.055 80.3176L278.433 80.8092C278.802 80.8666 278.95 81.3172 278.679 81.5713L276.23 83.9475C276.123 84.054 276.074 84.2015 276.099 84.3408L276.674 87.6922C276.74 88.0609 276.354 88.3395 276.025 88.1674L273.001 86.586C272.869 86.5204 272.713 86.5204 272.582 86.586L269.557 88.1674C269.229 88.3395 268.843 88.0609 268.908 87.6922L269.483 84.3408C269.508 84.1933 269.459 84.0458 269.352 83.9475L266.903 81.5713C266.64 81.3091 266.78 80.8584 267.15 80.8092L270.527 80.3176C270.675 80.293 270.798 80.2029 270.864 80.0718L272.376 77.0154C272.54 76.6794 273.017 76.6794 273.181 77.0154H273.206Z" fill="url(#paint6_linear_841_1330)"/>
<path d="M276.247 88.6263C276.107 88.6263 275.975 88.5935 275.844 88.5279L272.82 86.9465L269.763 88.5279C269.475 88.6836 269.122 88.659 268.859 88.4624C268.596 88.2657 268.464 87.9462 268.514 87.6266L269.089 84.2753L266.632 81.8662C266.393 81.6368 266.311 81.3008 266.418 80.9895C266.517 80.6781 266.788 80.4568 267.117 80.4077L270.494 79.916L272.039 76.8433C272.327 76.2533 273.288 76.2533 273.584 76.8433L275.096 79.8997L278.506 80.4077C278.835 80.4568 279.098 80.6781 279.197 80.9895C279.295 81.3008 279.213 81.6368 278.983 81.8662L276.534 84.2425L277.101 87.6348C277.159 87.9626 277.027 88.2821 276.756 88.4706C276.608 88.5771 276.427 88.6345 276.247 88.6345V88.6263ZM272.803 86.1189C272.943 86.1189 273.074 86.1517 273.206 86.2172L276.23 87.7987L275.712 84.4064C275.663 84.1278 275.753 83.841 275.959 83.6443L278.408 81.2681L275.006 80.7109C274.726 80.6699 274.488 80.4978 274.356 80.2438L272.844 77.1874C272.844 77.1874 272.836 77.1629 272.812 77.1629L271.267 80.2356C271.143 80.4896 270.897 80.6617 270.617 80.7027L267.24 81.1943L269.664 83.6361C269.87 83.8328 269.96 84.1196 269.911 84.3982L269.335 87.7577L272.417 86.2172C272.54 86.1517 272.68 86.1189 272.82 86.1189H272.803Z" fill="#050004"/>
<path d="M227.984 77.0154L229.496 80.0718C229.562 80.2029 229.685 80.293 229.833 80.3176L233.211 80.8092C233.581 80.8666 233.729 81.3172 233.457 81.5713L231.009 83.9475C230.902 84.054 230.852 84.2015 230.877 84.3408L231.452 87.6922C231.518 88.0609 231.132 88.3395 230.803 88.1674L227.779 86.586C227.647 86.5204 227.491 86.5204 227.36 86.586L224.336 88.1674C224.007 88.3395 223.621 88.0609 223.687 87.6922L224.262 84.3408C224.286 84.1933 224.237 84.0458 224.13 83.9475L221.681 81.5713C221.418 81.3091 221.558 80.8584 221.928 80.8092L225.305 80.3176C225.453 80.293 225.577 80.2029 225.642 80.0718L227.154 77.0154C227.319 76.6794 227.795 76.6794 227.96 77.0154H227.984Z" fill="url(#paint7_linear_841_1330)"/>
<path d="M231.025 88.6263C230.885 88.6263 230.754 88.5935 230.622 88.5279L227.598 86.9465L224.541 88.5279C224.253 88.6836 223.9 88.659 223.637 88.4624C223.374 88.2657 223.243 87.9462 223.292 87.6266L223.867 84.2753L221.41 81.8662C221.172 81.6368 221.09 81.3008 221.196 80.9895C221.295 80.6781 221.566 80.4568 221.895 80.4077L225.272 79.916L226.809 76.8433C227.097 76.2533 228.058 76.2533 228.354 76.8433L229.866 79.8997L233.276 80.4077C233.605 80.4568 233.868 80.6781 233.967 80.9895C234.065 81.3008 233.983 81.6368 233.753 81.8662L231.304 84.2425L231.871 87.6348C231.929 87.9626 231.797 88.2821 231.526 88.4706C231.378 88.5771 231.197 88.6345 231.017 88.6345L231.025 88.6263ZM227.582 86.1189C227.721 86.1189 227.853 86.1517 227.984 86.2172L231.008 87.7987L230.491 84.4064C230.441 84.1278 230.532 83.841 230.737 83.6443L233.186 81.2681L229.784 80.7109C229.505 80.6699 229.266 80.4978 229.135 80.2438L227.623 77.1874C227.623 77.1874 227.614 77.1629 227.59 77.1629L226.045 80.2356C225.922 80.4896 225.675 80.6617 225.396 80.7027L222.018 81.1943L224.442 83.6361C224.648 83.8328 224.738 84.1196 224.689 84.3982L224.114 87.7577L227.195 86.2172C227.319 86.1517 227.458 86.1189 227.598 86.1189H227.582Z" fill="#050004"/>
<path d="M258.456 77.0154L259.968 80.0718C260.033 80.2029 260.157 80.293 260.305 80.3176L263.682 80.8092C264.052 80.8666 264.2 81.3172 263.929 81.5713L261.48 83.9475C261.373 84.054 261.324 84.2015 261.348 84.3408L261.924 87.6922C261.989 88.0609 261.603 88.3395 261.274 88.1674L258.25 86.586C258.119 86.5204 257.963 86.5204 257.831 86.586L254.807 88.1674C254.478 88.3395 254.092 88.0609 254.158 87.6922L254.733 84.3408C254.758 84.1933 254.708 84.0458 254.602 83.9475L252.153 81.5713C251.89 81.3091 252.029 80.8584 252.399 80.8092L255.777 80.3176C255.925 80.293 256.048 80.2029 256.114 80.0718L257.626 77.0154C257.79 76.6794 258.267 76.6794 258.431 77.0154H258.456Z" fill="url(#paint8_linear_841_1330)"/>
<path d="M261.488 88.6263C261.348 88.6263 261.217 88.5935 261.085 88.528L258.061 86.9465L255.004 88.528C254.716 88.6836 254.363 88.6591 254.1 88.4624C253.829 88.2657 253.697 87.9462 253.755 87.6266L254.33 84.2671L251.873 81.858C251.635 81.6286 251.553 81.2927 251.651 80.9813C251.75 80.6699 252.021 80.4405 252.35 80.3995L255.727 79.9079L257.264 76.8351C257.56 76.2451 258.513 76.2451 258.809 76.8351L260.321 79.8915L263.731 80.3995C264.06 80.4487 264.323 80.6699 264.422 80.9813C264.52 81.2927 264.438 81.6286 264.2 81.858L261.759 84.2343L262.326 87.6266C262.384 87.9544 262.252 88.2739 261.981 88.4624C261.833 88.5689 261.652 88.6263 261.48 88.6263H261.488ZM258.045 86.1189C258.184 86.1189 258.316 86.1517 258.447 86.2173L261.471 87.7987L260.954 84.4064C260.904 84.1278 260.995 83.841 261.2 83.6443L263.641 81.2681L260.239 80.7109C259.959 80.6699 259.713 80.4978 259.59 80.2438L258.077 77.1957C258.077 77.1957 258.069 77.1711 258.045 77.1711L256.5 80.2438C256.376 80.4978 256.13 80.6699 255.85 80.7109L252.473 81.2025L254.897 83.6443C255.103 83.841 255.193 84.1278 255.144 84.4064L254.568 87.7577L257.65 86.2173C257.773 86.1517 257.913 86.1189 258.053 86.1189H258.045Z" fill="#050004"/>
<path d="M75.7874 62.9815C82.1282 54.4247 80.3116 42.3626 71.73 36.04C63.1484 29.7175 51.0513 31.5288 44.7105 40.0857C38.3697 48.6426 40.1863 60.7047 48.7679 67.0272C57.3495 73.3497 69.4466 71.5384 75.7874 62.9815Z" fill="#F1E1FF"/>
<path d="M60.203 71.2059C56.0366 71.2059 51.9935 69.8948 48.5667 67.3875C44.3181 64.2819 41.5406 59.7015 40.7434 54.5065C39.9463 49.3115 41.2201 44.1165 44.3428 39.8802C47.4655 35.6439 52.051 32.8743 57.2611 32.0795C62.4711 31.2847 67.6811 32.5548 71.9297 35.6685C76.1782 38.774 78.9558 43.3545 79.7529 48.5495C80.5501 53.7444 79.2763 58.9394 76.1536 63.1757C73.0308 67.412 68.4454 70.1816 63.2353 70.9764C62.2246 71.1321 61.2056 71.2059 60.203 71.2059ZM60.2852 32.6695C59.3237 32.6695 58.354 32.7432 57.3761 32.8907C52.3797 33.6528 47.9915 36.3076 45.0002 40.3718C42.009 44.4279 40.7845 49.4098 41.5488 54.3836C42.313 59.3655 44.9756 63.7411 49.0516 66.7238C53.1193 69.7064 58.1157 70.9191 63.1038 70.1652C68.1002 69.4032 72.4885 66.7483 75.4797 62.6841C78.471 58.6281 79.6954 53.6461 78.9312 48.6724C78.1669 43.6986 75.5044 39.3148 71.4284 36.3322C68.1495 33.9314 64.2708 32.6695 60.277 32.6695H60.2852Z" fill="#050004"/>
<path d="M39.3137 53.2774C37.6948 42.7645 44.9346 32.9317 55.4862 31.3175C66.0295 29.7032 75.8908 36.9221 77.5097 47.4432C79.1285 57.9562 71.8887 67.789 61.3372 69.4032C50.7939 71.0174 40.9326 63.7985 39.3137 53.2774Z" fill="url(#paint9_linear_841_1330)"/>
<path d="M58.3622 70.0341C54.1958 70.0341 50.1527 68.7231 46.7259 66.2157C42.4773 63.102 39.6997 58.5298 38.9026 53.3348C38.1055 48.1398 39.3793 42.9448 42.502 38.7085C45.6165 34.4722 50.2102 31.7026 55.4202 30.9078C66.169 29.269 76.2604 36.6518 77.9121 47.3695C78.7092 52.5645 77.4355 57.7595 74.3128 61.9958C71.1982 66.2321 66.6045 69.0017 61.3945 69.7965C60.3837 69.9522 59.3647 70.0259 58.3622 70.0259V70.0341ZM58.4115 31.4977C57.4582 31.4977 56.505 31.5715 55.5353 31.719C50.5471 32.481 46.1507 35.1359 43.1594 39.2001C40.1682 43.2561 38.9437 48.2381 39.708 53.2119C40.4722 58.1938 43.1348 62.5694 47.2107 65.552C51.2867 68.5346 56.2749 69.7555 61.263 68.9935C66.2512 68.2315 70.6477 65.5766 73.6389 61.5124C76.6302 57.4563 77.8546 52.4744 77.0904 47.5006C75.6605 38.1922 67.5825 31.5059 58.4115 31.5059V31.4977Z" fill="#050004"/>
<path d="M62.9722 45.9929C62.9722 47.2466 63.9912 48.2708 65.2567 48.2708C66.5222 48.2708 67.5412 47.2548 67.5412 45.9929C67.5412 44.731 66.5222 43.715 65.2567 43.715C63.9912 43.715 62.9722 44.731 62.9722 45.9929Z" fill="#F8F7F5"/>
<path d="M65.2569 48.6805C63.7695 48.6805 62.5615 47.476 62.5615 45.9929C62.5615 44.5098 63.7695 43.3052 65.2569 43.3052C66.7443 43.3052 67.9523 44.5098 67.9523 45.9929C67.9523 47.476 66.7443 48.6805 65.2569 48.6805ZM65.2569 44.1328C64.2297 44.1328 63.3833 44.9686 63.3833 46.0011C63.3833 47.0335 64.2215 47.8693 65.2569 47.8693C66.2924 47.8693 67.1306 47.0335 67.1306 46.0011C67.1306 44.9686 66.2924 44.1328 65.2569 44.1328Z" fill="#050004"/>
<path d="M63.038 54.1296H67.4591C68.4617 54.1296 69.2834 53.3184 69.2834 52.3105C69.2834 50.3194 67.6645 48.7051 65.6676 48.7051H64.8541C62.8572 48.7051 61.2383 50.3194 61.2383 52.3105V52.3351C61.2383 53.3266 62.0436 54.1296 63.038 54.1296Z" fill="#F8F7F5"/>
<path d="M67.451 54.5392H63.0299C61.8137 54.5392 60.8193 53.5478 60.8193 52.3351C60.8193 50.0981 62.6272 48.2954 64.846 48.2954H65.6596C67.8784 48.2954 69.6863 50.0981 69.6863 52.3105C69.6863 53.5396 68.6837 54.5392 67.451 54.5392ZM64.846 49.1148C63.0792 49.1148 61.6411 50.5488 61.6411 52.3105C61.6411 53.0971 62.2656 53.7198 63.0299 53.7198H67.451C68.2317 53.7198 68.8645 53.0889 68.8645 52.3105C68.8645 50.5488 67.4264 49.1148 65.6596 49.1148H64.846Z" fill="#050004"/>
<path d="M49.2729 45.9929C49.2729 47.2466 50.2919 48.2708 51.5575 48.2708C52.823 48.2708 53.842 47.2548 53.842 45.9929C53.842 44.731 52.823 43.715 51.5575 43.715C50.2919 43.715 49.2729 44.731 49.2729 45.9929Z" fill="#F8F7F5"/>
<path d="M51.5577 48.6805C50.0703 48.6805 48.8623 47.476 48.8623 45.9929C48.8623 44.5098 50.0703 43.3052 51.5577 43.3052C53.0451 43.3052 54.2531 44.5098 54.2531 45.9929C54.2531 47.476 53.0451 48.6805 51.5577 48.6805ZM51.5577 44.1328C50.5305 44.1328 49.6841 44.9686 49.6841 46.0011C49.6841 47.0335 50.5223 47.8693 51.5577 47.8693C52.5931 47.8693 53.4314 47.0335 53.4314 46.0011C53.4314 44.9686 52.5931 44.1328 51.5577 44.1328Z" fill="#050004"/>
<path d="M49.3387 54.1296H53.7599C54.7624 54.1296 55.5842 53.3184 55.5842 52.3105C55.5842 50.3194 53.9653 48.7051 51.9684 48.7051H51.1549C49.158 48.7051 47.5391 50.3194 47.5391 52.3105V52.3351C47.5391 53.3266 48.3444 54.1296 49.3387 54.1296Z" fill="#F8F7F5"/>
<path d="M53.7601 54.5392H49.339C48.1228 54.5392 47.1284 53.5478 47.1284 52.3351C47.1284 50.0981 48.9363 48.2954 51.1551 48.2954H51.9687C54.1874 48.2954 55.9953 50.0981 55.9953 52.3105C55.9953 53.5396 54.9928 54.5392 53.7601 54.5392ZM51.1551 49.1148C49.3883 49.1148 47.9502 50.5488 47.9502 52.3105C47.9502 53.0971 48.5747 53.7198 49.339 53.7198H53.7601C54.5408 53.7198 55.1736 53.0889 55.1736 52.3105C55.1736 50.5488 53.7355 49.1148 51.9687 49.1148H51.1551Z" fill="#050004"/>
<path d="M55.5928 46.5337C55.5928 48.1725 56.924 49.5 58.5676 49.5C60.2111 49.5 61.5424 48.1725 61.5424 46.5337C61.5424 44.8949 60.2111 43.5675 58.5676 43.5675C56.924 43.5675 55.5928 44.8949 55.5928 46.5337Z" fill="#F8F7F5"/>
<path d="M58.5756 49.9096C56.7102 49.9096 55.1899 48.3937 55.1899 46.5337C55.1899 44.6737 56.7102 43.1578 58.5756 43.1578C60.4411 43.1578 61.9613 44.6737 61.9613 46.5337C61.9613 48.3937 60.4411 49.9096 58.5756 49.9096ZM58.5756 43.9772C57.1622 43.9772 56.0117 45.1243 56.0117 46.5337C56.0117 47.9431 57.1622 49.0902 58.5756 49.0902C59.9891 49.0902 61.1396 47.9431 61.1396 46.5337C61.1396 45.1243 59.9891 43.9772 58.5756 43.9772Z" fill="#050004"/>
<path d="M61.7145 57.1531H55.3951C54.2529 57.1531 53.316 56.2272 53.316 55.0801V54.5065C53.316 52.0565 55.3047 50.0735 57.7618 50.0735H59.3643C61.8214 50.0735 63.8101 52.0565 63.8101 54.5065V55.0555C63.8101 56.2108 62.865 57.1531 61.7063 57.1531H61.7145Z" fill="#F8F7F5"/>
<path d="M61.7147 57.5628H55.3952C54.0229 57.5628 52.9053 56.4485 52.9053 55.0801V54.5065C52.9053 51.8352 55.083 49.6638 57.7619 49.6638H59.3644C62.0434 49.6638 64.2211 51.8352 64.2211 54.5065V55.0555C64.2211 56.4403 63.0952 57.5628 61.7064 57.5628H61.7147ZM57.7702 50.4832C55.5432 50.4832 53.7353 52.2859 53.7353 54.5065V55.0801C53.7353 55.9978 54.4831 56.7434 55.4035 56.7434H61.7229C62.6597 56.7434 63.4157 55.9896 63.4157 55.0555V54.5065C63.4157 52.2859 61.6078 50.4832 59.3808 50.4832H57.7784H57.7702Z" fill="#050004"/>
<path d="M74.8715 45.8701C70.7298 45.8701 67.377 42.5269 67.377 38.3971C67.377 34.2673 70.7298 30.9242 74.8715 30.9242C79.0132 30.9242 82.3661 34.2673 82.3661 38.3971C82.3661 42.5269 79.0132 45.8701 74.8715 45.8701Z" fill="url(#paint10_linear_841_1330)"/>
<path d="M74.8718 46.2797C70.5164 46.2797 66.9663 42.7399 66.9663 38.3971C66.9663 34.0543 70.5081 30.5145 74.8718 30.5145C79.2354 30.5145 82.7772 34.0461 82.7772 38.3971C82.7772 42.7481 79.2354 46.2797 74.8718 46.2797ZM74.8718 31.3339C70.9683 31.3339 67.7881 34.5049 67.7881 38.3971C67.7881 42.2892 70.9683 45.4603 74.8718 45.4603C78.7752 45.4603 81.9554 42.2892 81.9554 38.3971C81.9554 34.5049 78.7752 31.3339 74.8718 31.3339Z" fill="#050004"/>
<path d="M74.7319 42.0516V34.464C74.7319 34.2345 74.9209 34.0461 75.151 34.0461C75.3811 34.0461 75.5701 34.2345 75.5701 34.464V42.0516C75.5701 42.2811 75.3811 42.4695 75.151 42.4695C74.9209 42.4695 74.7319 42.2811 74.7319 42.0516Z" fill="#090910"/>
<path d="M70.9272 38.2578C70.9272 38.0284 71.1163 37.8399 71.3464 37.8399H78.956C79.1861 37.8399 79.3751 38.0284 79.3751 38.2578C79.3751 38.4872 79.1861 38.6757 78.956 38.6757H71.3464C71.1163 38.6757 70.9272 38.4872 70.9272 38.2578Z" fill="#090910"/>
<path d="M377.826 107.497C379.691 95.3782 371.342 84.0459 359.188 82.1858C347.034 80.3258 335.669 88.6427 333.804 100.77C331.938 112.889 340.279 124.221 352.442 126.081C364.596 127.941 375.961 119.616 377.826 107.497Z" fill="#F1E1FF"/>
<path d="M355.835 126.745C354.693 126.745 353.543 126.663 352.384 126.483C346.393 125.565 341.126 122.386 337.543 117.51C333.96 112.643 332.489 106.67 333.409 100.704C335.308 88.3805 346.903 79.8833 359.262 81.7843C371.622 83.6772 380.135 95.2389 378.237 107.563C376.519 118.731 366.839 126.753 355.835 126.753V126.745ZM355.811 82.3333C345.21 82.3333 335.875 90.0603 334.223 100.827C333.335 106.579 334.757 112.332 338.208 117.027C341.66 121.722 346.747 124.786 352.515 125.671C364.423 127.49 375.607 119.313 377.432 107.432C379.256 95.5503 371.055 84.4064 359.139 82.5874C358.021 82.4153 356.912 82.3333 355.811 82.3333Z" fill="#050004"/>
<path d="M379.946 106.153C381.812 94.0343 373.462 82.702 361.308 80.842C349.154 78.982 337.789 87.3071 335.924 99.426C334.058 111.545 342.399 122.877 354.562 124.737C366.716 126.597 378.081 118.28 379.946 106.153Z" fill="url(#paint11_linear_841_1330)"/>
<path d="M357.98 125.401C356.821 125.401 355.663 125.311 354.496 125.139C342.136 123.246 333.623 111.684 335.521 99.3605C336.442 93.387 339.63 88.1347 344.52 84.5621C349.401 80.9895 355.383 79.5228 361.374 80.4405C367.365 81.3582 372.632 84.5375 376.215 89.413C379.798 94.2802 381.269 100.254 380.349 106.219C379.428 112.184 376.24 117.445 371.35 121.017C367.414 123.893 362.771 125.409 357.98 125.409V125.401ZM357.923 80.9895C347.322 80.9895 337.986 88.7165 336.335 99.4834C334.51 111.365 342.712 122.509 354.627 124.328C366.535 126.147 377.719 117.969 379.543 106.088C380.431 100.336 379.009 94.5834 375.558 89.8882C372.106 85.193 367.02 82.1285 361.251 81.2435C360.133 81.0715 359.024 80.9895 357.923 80.9895Z" fill="#050004"/>
<path d="M368.704 98.4755L359.953 98.3854C360.503 97.0006 360.602 95.4765 360.24 94.0262L359.928 92.7807C359.509 91.1173 357.874 90.0521 356.181 90.3389C355.745 90.4126 355.441 90.8141 355.49 91.2484L355.679 93.0429C355.934 95.4519 354.899 97.7872 353.009 99.2457C353.066 99.3687 353.099 99.508 353.099 99.6554L352.992 110.193C353.189 110.807 353.765 111.234 354.43 111.242L366.576 111.365C367.192 111.365 367.694 110.881 367.702 110.267V109.791C367.702 109.472 367.464 109.201 367.135 109.177H367.283C368.006 109.185 368.598 108.611 368.598 107.899V106.915C368.614 106.358 368.096 105.899 368.096 105.899C368.828 105.899 369.436 105.318 369.444 104.588L369.46 103.253C369.46 102.679 368.704 102.204 368.704 102.204C369.576 102.212 370.29 101.515 370.299 100.647V100.082C370.315 99.1966 369.6 98.4755 368.713 98.4673L368.704 98.4755Z" fill="#F1E1FF"/>
<path d="M366.576 111.774H366.56L354.414 111.651C353.584 111.651 352.852 111.111 352.589 110.316C352.573 110.275 352.565 110.226 352.573 110.185L352.68 99.6473C352.68 99.5735 352.663 99.4916 352.622 99.4096C352.54 99.2376 352.589 99.0327 352.746 98.9098C354.529 97.5414 355.49 95.3044 355.26 93.0757L355.071 91.2812C355.005 90.6339 355.457 90.0357 356.107 89.921C358.005 89.6014 359.854 90.8141 360.322 92.6742L360.635 93.9196C360.972 95.2635 360.93 96.6564 360.528 97.9675L368.713 98.0494C369.255 98.0494 369.756 98.2707 370.134 98.6558C370.512 99.0409 370.718 99.5489 370.71 100.082V100.647C370.693 101.434 370.225 102.114 369.559 102.425C369.732 102.654 369.871 102.933 369.871 103.253L369.855 104.588C369.855 105.293 369.419 105.891 368.819 106.161C368.935 106.375 369.025 106.629 369.025 106.924V107.907C369.008 108.366 368.828 108.792 368.499 109.111C368.368 109.242 368.211 109.349 368.047 109.423C368.088 109.537 368.113 109.66 368.113 109.8V110.275C368.096 111.111 367.414 111.783 366.584 111.783L366.576 111.774ZM353.395 110.119C353.559 110.545 353.97 110.824 354.422 110.832L366.568 110.955C366.954 110.939 367.275 110.644 367.283 110.258V109.783C367.283 109.677 367.209 109.595 367.102 109.587C366.88 109.57 366.708 109.39 366.716 109.169C366.716 108.947 366.905 108.775 367.127 108.767H367.275C367.48 108.767 367.743 108.685 367.916 108.513C368.088 108.349 368.178 108.128 368.187 107.89V106.907C368.203 106.612 367.924 106.301 367.817 106.202C367.694 106.088 367.644 105.907 367.71 105.752C367.776 105.596 367.907 105.498 368.096 105.49H368.105C368.606 105.49 369.025 105.08 369.025 104.58L369.041 103.244C369.041 103.015 368.704 102.695 368.474 102.548C368.318 102.45 368.244 102.261 368.302 102.089C368.351 101.917 368.515 101.794 368.696 101.794C368.696 101.794 368.704 101.794 368.713 101.794C369.354 101.794 369.871 101.278 369.88 100.647V100.082C369.888 99.762 369.765 99.4588 369.543 99.2376C369.321 99.0081 369.017 98.8852 368.704 98.877L359.953 98.7869C359.821 98.7869 359.69 98.7213 359.616 98.6066C359.542 98.4919 359.525 98.3526 359.575 98.2297C360.092 96.9186 360.191 95.4929 359.846 94.1245L359.533 92.879C359.172 91.4287 357.734 90.4864 356.255 90.7404C356.033 90.7813 355.877 90.978 355.901 91.2074L356.09 93.0019C356.345 95.4191 355.351 97.8364 353.485 99.385C353.502 99.4752 353.51 99.5653 353.51 99.6555L353.403 110.119H353.395Z" fill="#050004"/>
<path d="M353 99.2458C352.852 98.9262 352.524 98.6968 352.146 98.6886L346.714 98.6312C346.188 98.6312 345.752 99.0491 345.744 99.5817L345.637 110.201C345.637 110.726 346.056 111.16 346.59 111.168L352.022 111.225C352.548 111.225 352.984 110.808 352.992 110.283V110.201L353.099 99.6637C353.099 99.5162 353.066 99.3769 353.008 99.254L353 99.2458Z" fill="#F1E1FF"/>
<path d="M352.023 111.627H352.006L346.574 111.57C345.818 111.57 345.21 110.947 345.218 110.193L345.325 99.5735C345.325 98.8278 345.95 98.2215 346.698 98.2215H346.714L352.146 98.2789C352.68 98.2789 353.148 98.5902 353.37 99.0655C353.461 99.2539 353.502 99.4506 353.502 99.6554L353.395 110.193C353.395 111.021 352.77 111.627 352.023 111.627ZM346.698 99.0409C346.402 99.0409 346.155 99.2867 346.147 99.5817L346.04 110.201C346.04 110.504 346.278 110.75 346.582 110.75L352.014 110.807C352.31 110.807 352.557 110.57 352.565 110.267L352.672 99.6473C352.672 99.5735 352.655 99.4916 352.614 99.4096C352.524 99.213 352.335 99.0901 352.129 99.0901L346.698 99.0327V99.0409Z" fill="#050004"/>
<path d="M350.905 101.048C350.905 101.597 350.445 102.048 349.894 102.04C349.344 102.04 348.892 101.581 348.9 101.032C348.9 100.483 349.36 100.032 349.911 100.041C350.461 100.041 350.913 100.499 350.905 101.048Z" fill="#F1E1FF"/>
<path d="M349.903 102.45H349.886C349.508 102.45 349.155 102.294 348.892 102.024C348.629 101.753 348.481 101.401 348.489 101.024C348.489 100.245 349.163 99.6227 349.919 99.6309C350.7 99.6309 351.324 100.278 351.316 101.057C351.316 101.827 350.675 102.45 349.903 102.45ZM349.903 100.45C349.582 100.45 349.311 100.712 349.311 101.032C349.311 101.188 349.368 101.343 349.483 101.45C349.59 101.565 349.746 101.622 349.903 101.63C350.083 101.647 350.207 101.573 350.322 101.458C350.437 101.343 350.494 101.204 350.502 101.04C350.502 100.712 350.239 100.45 349.919 100.442L349.903 100.45Z" fill="#050004"/>
<path d="M367.184 109.587H364.44C364.21 109.587 364.029 109.406 364.029 109.177C364.029 108.947 364.21 108.767 364.44 108.767H367.184C367.415 108.767 367.595 108.947 367.595 109.177C367.595 109.406 367.415 109.587 367.184 109.587Z" fill="#050004"/>
<path d="M368.064 106.293H365.319C365.089 106.293 364.908 106.112 364.908 105.883C364.908 105.653 365.089 105.473 365.319 105.473H368.064C368.294 105.473 368.475 105.653 368.475 105.883C368.475 106.112 368.294 106.293 368.064 106.293Z" fill="#050004"/>
<path d="M368.672 102.597H365.927C365.697 102.597 365.516 102.417 365.516 102.187C365.516 101.958 365.697 101.778 365.927 101.778H368.672C368.902 101.778 369.083 101.958 369.083 102.187C369.083 102.417 368.902 102.597 368.672 102.597Z" fill="#050004"/>
<path d="M375.952 95.96C371.186 95.96 367.315 92.1006 367.315 87.3481C367.315 82.5956 371.186 78.7362 375.952 78.7362C380.719 78.7362 384.589 82.5956 384.589 87.3481C384.589 92.1006 380.719 95.96 375.952 95.96Z" fill="url(#paint12_linear_841_1330)"/>
<path d="M375.952 96.3697C370.964 96.3697 366.905 92.3218 366.905 87.3481C366.905 84.939 367.85 82.6693 369.551 80.9649C371.26 79.2606 373.528 78.3265 375.944 78.3265C380.932 78.3265 384.992 82.3743 384.992 87.3481C384.992 92.3218 380.932 96.3697 375.944 96.3697H375.952ZM375.952 79.1459C373.758 79.1459 371.687 79.9981 370.134 81.5467C368.581 83.0954 367.727 85.1521 367.727 87.3481C367.727 91.8712 371.416 95.5503 375.952 95.5503C380.489 95.5503 384.178 91.8712 384.178 87.3481C384.178 82.825 380.489 79.1459 375.952 79.1459Z" fill="#050004"/>
<path d="M375.796 91.5598V82.8086C375.796 82.5464 376.01 82.3251 376.281 82.3251C376.552 82.3251 376.766 82.5382 376.766 82.8086V91.5598C376.766 91.822 376.552 92.0432 376.281 92.0432C376.018 92.0432 375.796 91.8302 375.796 91.5598Z" fill="#090910"/>
<path d="M371.408 87.1924C371.408 86.9302 371.622 86.7089 371.893 86.7089H380.67C380.933 86.7089 381.154 86.922 381.154 87.1924C381.154 87.4546 380.941 87.6758 380.67 87.6758H371.893C371.63 87.6758 371.408 87.4628 371.408 87.1924Z" fill="#090910"/>
<path d="M289.461 222.451C281.071 227.998 269.911 225.95 264.537 217.87C259.163 209.791 261.611 198.745 270.002 193.198L294.392 177.064L284.769 162.594L259.845 179.08C243.146 190.117 238.281 212.093 248.964 228.162C259.647 244.23 281.852 248.303 298.542 237.265L323.466 220.779L313.843 206.309L289.453 222.442L289.461 222.451Z" fill="#050004"/>
<path d="M278.088 243.878C266.525 243.878 255.325 238.462 248.635 228.4C237.837 212.167 242.768 189.896 259.631 178.752L284.555 162.266C284.744 162.143 284.999 162.192 285.122 162.38L294.745 176.851C294.803 176.941 294.827 177.056 294.803 177.162C294.778 177.269 294.72 177.359 294.63 177.425L270.24 193.559C266.271 196.181 263.526 200.138 262.515 204.694C261.504 209.242 262.351 213.855 264.882 217.665C267.421 221.476 271.349 224.04 275.943 224.884C280.545 225.728 285.27 224.745 289.239 222.123L313.629 205.989C313.818 205.866 314.073 205.915 314.196 206.104L323.819 220.574C323.877 220.664 323.901 220.779 323.877 220.886C323.852 220.992 323.795 221.082 323.704 221.148L298.78 237.634C292.378 241.871 285.163 243.894 278.088 243.894V243.878ZM284.662 163.167L260.074 179.424C243.598 190.322 238.766 212.085 249.309 227.941C259.853 243.796 281.843 247.828 298.32 236.93L322.907 220.673L313.736 206.89L289.683 222.795C285.533 225.54 280.602 226.564 275.787 225.679C270.971 224.794 266.854 222.107 264.192 218.1C261.529 214.101 260.65 209.267 261.702 204.498C262.753 199.737 265.621 195.599 269.771 192.854L293.825 176.949L284.654 163.167H284.662Z" fill="#050004"/>
<path d="M289.174 219.87C280.783 225.417 269.624 223.368 264.249 215.289C258.875 207.21 261.324 196.164 269.714 190.617L294.104 174.483L284.481 160.012L259.557 176.499C242.859 187.536 237.994 209.512 248.677 225.581C259.36 241.649 281.564 245.722 298.254 234.684L323.179 218.198L313.556 203.727L289.165 219.861L289.174 219.87Z" fill="url(#paint13_linear_841_1330)"/>
<path d="M277.8 241.297C266.238 241.297 255.037 235.881 248.348 225.819C237.55 209.586 242.48 187.315 259.343 176.171L284.267 159.685C284.456 159.562 284.711 159.611 284.834 159.8L294.457 174.27C294.515 174.36 294.54 174.475 294.515 174.582C294.49 174.688 294.433 174.778 294.342 174.844L269.952 190.978C265.983 193.6 263.238 197.558 262.228 202.114C261.217 206.661 262.063 211.274 264.594 215.085C267.134 218.895 271.062 221.46 275.655 222.304C280.257 223.148 284.982 222.164 288.952 219.542L313.342 203.408C313.432 203.351 313.547 203.326 313.654 203.351C313.761 203.375 313.851 203.433 313.917 203.523L323.54 217.994C323.663 218.182 323.614 218.436 323.425 218.559L298.501 235.045C292.099 239.282 284.884 241.305 277.808 241.305L277.8 241.297ZM284.374 160.586L259.787 176.843C243.31 187.741 238.478 209.505 249.022 225.36C259.565 241.215 281.556 245.247 298.032 234.349L322.62 218.092L313.449 204.31L289.395 220.214C285.245 222.959 280.315 223.983 275.499 223.098C270.684 222.213 266.558 219.526 263.904 215.519C261.241 211.52 260.362 206.686 261.414 201.917C262.466 197.156 265.334 193.018 269.484 190.273L293.537 174.369L284.366 160.586H284.374Z" fill="#050004"/>
<path d="M294.094 174.475L284.483 160.025L272.704 167.814L282.314 182.264L294.094 174.475Z" fill="url(#paint14_linear_841_1330)"/>
<path d="M282.32 182.677C282.188 182.677 282.057 182.612 281.975 182.497L272.36 168.043C272.302 167.952 272.278 167.838 272.302 167.731C272.327 167.625 272.385 167.535 272.475 167.469L284.259 159.676C284.448 159.554 284.703 159.603 284.826 159.791L294.441 174.245C294.499 174.336 294.523 174.45 294.499 174.557C294.474 174.663 294.416 174.753 294.326 174.819L282.542 182.612C282.476 182.661 282.394 182.677 282.312 182.677H282.32ZM273.28 167.928L282.435 181.694L293.529 174.352L284.374 160.586L273.28 167.928Z" fill="#050004"/>
<path d="M323.182 218.209L313.572 203.759L301.793 211.548L311.403 225.998L323.182 218.209Z" fill="url(#paint15_linear_841_1330)"/>
<path d="M311.411 226.408C311.411 226.408 311.353 226.408 311.329 226.408C311.222 226.384 311.131 226.327 311.066 226.236L301.451 211.782C301.328 211.594 301.377 211.34 301.566 211.217L313.35 203.424C313.441 203.367 313.556 203.342 313.662 203.367C313.769 203.391 313.86 203.449 313.925 203.539L323.54 217.993C323.663 218.182 323.614 218.436 323.425 218.559L311.641 226.351C311.575 226.392 311.493 226.417 311.411 226.417V226.408ZM302.371 211.659L311.526 225.425L322.62 218.083L313.465 204.317L302.371 211.659Z" fill="#050004"/>
<path d="M347.355 204.498L330.722 197.238L332.029 201.966L318.404 200.007L337.017 208.029L336.187 203.498L347.355 204.498Z" fill="url(#paint16_linear_841_1330)"/>
<path d="M337.017 208.439C336.96 208.439 336.91 208.431 336.853 208.406L318.24 200.376C318.051 200.294 317.952 200.089 318.009 199.893C318.067 199.696 318.256 199.573 318.461 199.598L331.462 201.466L330.328 197.344C330.287 197.189 330.328 197.033 330.459 196.926C330.583 196.82 330.747 196.795 330.895 196.861L347.519 204.121C347.7 204.203 347.799 204.399 347.749 204.596C347.7 204.793 347.528 204.916 347.314 204.899L336.68 203.949L337.412 207.956C337.436 208.103 337.379 208.259 337.264 208.349C337.19 208.406 337.099 208.439 337.009 208.439H337.017ZM321.395 200.851L336.475 207.349L335.784 203.564C335.76 203.441 335.801 203.31 335.883 203.211C335.965 203.113 336.097 203.072 336.22 203.08L344.881 203.859L331.355 197.951L332.432 201.851C332.464 201.982 332.432 202.13 332.341 202.228C332.251 202.335 332.111 202.375 331.971 202.359L321.395 200.843V200.851Z" fill="#050004"/>
<path d="M310.926 144.641L299.947 157.702L304.574 157.784L299.191 169.542L311.394 154.891L307.064 154.441L310.926 144.641Z" fill="url(#paint17_linear_841_1330)"/>
<path d="M299.191 169.952C299.117 169.952 299.043 169.927 298.969 169.886C298.797 169.78 298.731 169.558 298.813 169.37L303.933 158.177L299.931 158.111C299.774 158.111 299.627 158.013 299.561 157.874C299.495 157.726 299.52 157.562 299.618 157.44L310.597 144.378C310.729 144.223 310.951 144.19 311.123 144.288C311.296 144.386 311.37 144.6 311.296 144.788L307.631 154.088L311.427 154.482C311.575 154.498 311.707 154.596 311.764 154.736C311.822 154.875 311.797 155.039 311.698 155.153L299.495 169.804C299.413 169.903 299.298 169.952 299.183 169.952H299.191ZM300.81 157.308L304.582 157.374C304.722 157.374 304.845 157.448 304.919 157.562C304.993 157.677 305.001 157.825 304.943 157.948L300.843 166.912L310.581 155.211L307.014 154.834C306.883 154.817 306.776 154.752 306.702 154.637C306.636 154.531 306.628 154.391 306.669 154.277L309.611 146.82L300.802 157.3L300.81 157.308Z" fill="#050004"/>
<path d="M352.105 156.563L324.337 166.133L331.092 170.329L312.726 182.923L343.706 172.09L337.724 167.6L352.105 156.563Z" fill="url(#paint18_linear_841_1330)"/>
<path d="M312.725 183.333C312.578 183.333 312.43 183.251 312.356 183.111C312.265 182.931 312.323 182.702 312.487 182.587L330.328 170.345L324.107 166.478C323.976 166.396 323.902 166.24 323.918 166.084C323.934 165.929 324.041 165.797 324.189 165.74L351.965 156.17C352.154 156.104 352.368 156.186 352.458 156.366C352.557 156.546 352.507 156.759 352.343 156.882L338.389 167.592L343.936 171.755C344.06 171.845 344.117 171.992 344.092 172.148C344.068 172.295 343.969 172.418 343.821 172.476L312.841 183.316C312.799 183.333 312.75 183.341 312.701 183.341L312.725 183.333ZM325.282 166.24L331.306 169.985C331.421 170.058 331.495 170.189 331.503 170.321C331.503 170.46 331.437 170.591 331.322 170.665L315.503 181.514L342.852 171.951L337.485 167.928C337.387 167.854 337.321 167.731 337.321 167.6C337.321 167.469 337.379 167.354 337.485 167.272L349.87 157.767L325.29 166.24H325.282Z" fill="#050004"/>
<path d="M108.515 208.144L114.588 210.758C117.554 212.036 121.063 210.52 122.427 207.366L122.945 206.177C124.309 203.031 123.011 199.434 120.044 198.156L113.971 195.542L108.515 208.136V208.144Z" fill="#000201"/>
<path d="M116.773 211.626C115.985 211.626 115.187 211.471 114.423 211.143L108.35 208.529C108.145 208.439 108.046 208.201 108.137 207.988L113.593 195.394C113.684 195.189 113.922 195.091 114.136 195.181L120.208 197.795C123.381 199.163 124.769 202.998 123.323 206.35L122.805 207.538C121.704 210.086 119.272 211.626 116.773 211.626ZM109.049 207.939L114.744 210.389C117.497 211.577 120.776 210.152 122.049 207.21L122.567 206.022C123.841 203.08 122.633 199.729 119.88 198.541L114.185 196.091L109.049 207.931V207.939Z" fill="#000201"/>
<path d="M80.5991 246.197C83.1631 247.303 86.1872 246.017 87.3541 243.321L98.7603 217.002C99.9272 214.306 98.7931 211.233 96.2292 210.127C93.6653 209.021 90.6412 210.307 89.4743 213.003L78.0681 239.322C76.9012 242.018 78.0352 245.091 80.5991 246.197Z" fill="url(#paint19_linear_841_1330)"/>
<path d="M82.5138 247C81.8153 247 81.1085 246.861 80.4347 246.574C79.087 245.992 78.068 244.902 77.5503 243.493C77.0326 242.092 77.0901 240.56 77.69 239.158L89.0962 212.839C89.7043 211.438 90.789 210.348 92.1696 209.766C93.5502 209.176 95.054 209.176 96.3935 209.75C97.7412 210.332 98.7602 211.422 99.2779 212.831C99.7956 214.232 99.7381 215.764 99.1382 217.166L87.732 243.485C86.7788 245.673 84.675 247 82.5138 247ZM80.7634 245.82C83.1137 246.836 85.8995 245.64 86.976 243.157L98.3822 216.838C98.9081 215.633 98.9492 214.306 98.5054 213.11C98.0699 211.921 97.1988 210.996 96.0648 210.504C94.9307 210.012 93.657 210.02 92.4901 210.52C91.3149 211.02 90.3781 211.962 89.8522 213.167L78.446 239.486C77.9201 240.691 77.879 242.018 78.3227 243.214C78.7583 244.403 79.6293 245.337 80.7634 245.82Z" fill="#000201"/>
<path d="M86.8661 204.377L85.7969 206.844C84.7924 209.162 85.8626 211.853 88.1873 212.855L99.2914 217.64C101.616 218.641 104.315 217.574 105.32 215.256L106.389 212.789C107.393 210.471 106.323 207.78 103.998 206.778L92.8943 201.994C90.5696 200.992 87.8707 202.059 86.8661 204.377Z" fill="#000201"/>
<path d="M101.102 218.436C100.445 218.436 99.7709 218.305 99.13 218.026L88.0278 213.241C85.4968 212.151 84.3299 209.209 85.4228 206.694L86.4911 204.227C87.0171 203.006 87.995 202.064 89.2358 201.572C90.4767 201.081 91.8326 201.097 93.0571 201.63L104.159 206.415C106.69 207.505 107.857 210.447 106.764 212.962L105.696 215.429C104.882 217.305 103.033 218.436 101.102 218.436ZM88.3483 212.487L99.4505 217.272C101.562 218.182 104.028 217.207 104.94 215.101L106.008 212.634C106.92 210.529 105.942 208.07 103.83 207.161L92.7284 202.375C91.7011 201.933 90.5671 201.917 89.5317 202.326C88.4962 202.736 87.6827 203.523 87.2389 204.547L86.1706 207.013C85.2585 209.119 86.2364 211.577 88.3483 212.487Z" fill="#000201"/>
<path d="M89.6631 207.407L102.425 212.905C108.662 215.592 116.042 212.405 118.91 205.776L119.995 203.277C122.863 196.656 120.143 189.109 113.905 186.422L101.143 180.924L89.6631 207.398V207.407Z" fill="url(#paint20_linear_841_1330)"/>
<path d="M107.044 214.273C105.408 214.273 103.789 213.945 102.253 213.282L89.4905 207.784C89.3919 207.743 89.3097 207.661 89.2686 207.562C89.2275 207.464 89.2275 207.349 89.2686 207.251L100.749 180.776C100.839 180.571 101.077 180.473 101.291 180.563L114.053 186.061C117.176 187.405 119.543 189.962 120.734 193.247C121.918 196.533 121.786 200.155 120.356 203.449L119.271 205.948C117.842 209.25 115.286 211.831 112.081 213.216C110.446 213.921 108.736 214.281 107.044 214.281V214.273ZM90.1972 207.194L102.581 212.528C105.49 213.782 108.753 213.757 111.761 212.454C114.776 211.151 117.184 208.718 118.524 205.612L119.608 203.113C120.956 200.007 121.079 196.599 119.97 193.51C118.861 190.437 116.642 188.052 113.733 186.799L101.349 181.464L90.1972 207.185V207.194Z" fill="#050004"/>
<path d="M101.135 180.932L89.6551 207.407C80.0486 203.269 69.2259 202.548 58.6661 205.35L41.9595 209.512L70.3846 144.051L78.3886 159.849C83.5822 169.436 91.5123 176.802 101.127 180.94L101.135 180.932Z" fill="#F4DCC1"/>
<path d="M41.9677 209.914C41.8444 209.914 41.7293 209.865 41.6554 209.766C41.5568 209.644 41.5321 209.48 41.5896 209.34L70.0147 143.878C70.0805 143.731 70.2202 143.633 70.3763 143.633C70.5242 143.633 70.6804 143.715 70.7543 143.854L78.7584 159.652C83.9273 169.198 91.7177 176.425 101.291 180.555C101.497 180.645 101.595 180.883 101.505 181.096L90.0249 207.57C89.9345 207.775 89.6962 207.874 89.4825 207.783C79.9089 203.662 69.2833 202.949 58.7647 205.743L42.0498 209.906C42.0498 209.906 41.9841 209.914 41.9512 209.914H41.9677ZM70.4256 145.001L42.6744 208.898L58.5757 204.94C69.1354 202.138 79.802 202.802 89.4496 206.858L100.601 181.128C91.0274 176.9 83.237 169.608 78.0434 160.021L70.4256 144.993V145.001Z" fill="#000201"/>
<path d="M101.128 180.939C101.129 180.937 101.132 180.939 101.131 180.941L91.4902 203.175C90.476 205.513 87.7647 206.566 85.3331 205.8C76.8642 203.133 67.6695 202.961 58.6661 205.35L53.7556 206.573C48.9302 207.776 44.8208 202.923 46.8014 198.362L65.2992 155.762C67.3225 151.102 73.8591 150.909 76.155 155.44L78.3886 159.849C83.582 169.435 91.5116 176.801 101.126 180.939C101.127 180.94 101.127 180.94 101.128 180.939Z" fill="url(#paint21_linear_841_1330)"/>
<path d="M41.9677 209.914C41.8444 209.914 41.7293 209.865 41.6554 209.766C41.5568 209.644 41.5321 209.48 41.5896 209.34L70.0147 143.878C70.0805 143.731 70.2202 143.633 70.3763 143.633C70.5242 143.633 70.6804 143.715 70.7543 143.854L78.7584 159.652C83.9273 169.198 91.7177 176.425 101.291 180.555C101.497 180.645 101.595 180.883 101.505 181.096L90.0249 207.57C89.9345 207.775 89.6962 207.874 89.4825 207.783C79.9089 203.662 69.2833 202.949 58.7647 205.743L42.0498 209.906C42.0498 209.906 41.9841 209.914 41.9512 209.914H41.9677ZM70.4256 145.001L42.6744 208.898L58.5757 204.94C69.1354 202.138 79.802 202.802 89.4496 206.858L100.601 181.128C91.0274 176.9 83.237 169.608 78.0434 160.021L70.4256 144.993V145.001Z" fill="#000201"/>
<path d="M46.3312 172.607C38.171 191.174 35.8043 208.046 41.0472 210.274C46.2901 212.511 57.154 199.27 65.3224 180.702C73.4826 162.135 75.8493 145.263 70.6064 143.034C65.3635 140.798 54.4996 154.039 46.3312 172.607Z" fill="#000201"/>
<path d="M42.28 210.93C41.7869 210.93 41.3185 210.84 40.883 210.651C39.9051 210.233 39.1491 209.373 38.6396 208.087C36.3057 202.203 39.3134 187.544 45.9533 172.443C54.3354 153.383 65.2321 140.298 70.7626 142.658C71.7405 143.075 72.4966 143.936 73.006 145.222C75.3399 151.106 72.3322 165.765 65.6923 180.866C57.9676 198.434 48.1064 210.93 42.2718 210.93H42.28ZM69.3327 143.19C64.0077 143.19 54.0807 155.997 46.7094 172.771C40.1516 187.692 37.1439 202.089 39.4038 207.783C39.8311 208.857 40.4392 209.57 41.2035 209.898C41.5486 210.045 41.9184 210.119 42.3129 210.119C47.638 210.119 57.565 197.312 64.9363 180.538C71.494 165.617 74.5017 151.22 72.2418 145.525C71.8145 144.452 71.2064 143.739 70.4421 143.411C70.097 143.264 69.7272 143.19 69.3327 143.19Z" fill="#000201"/>
<path d="M49.7665 173.549C43.3813 188.151 41.1543 201.245 44.7948 202.802C48.4352 204.358 56.5625 193.788 62.9477 179.186C69.3329 164.585 71.5599 151.491 67.9194 149.934C64.279 148.377 56.1517 158.947 49.7665 173.549Z" fill="#FEFEFE"/>
<path d="M45.5588 203.367C45.2301 203.367 44.9179 203.31 44.6302 203.178C43.9893 202.9 43.4962 202.334 43.1593 201.499C41.4582 197.221 44.0221 185.66 49.3883 173.385C55.1571 160.209 63.7282 147.697 68.0836 149.557C68.7246 149.836 69.2176 150.401 69.5546 151.237C71.2556 155.514 68.6917 167.076 63.3255 179.35C57.9512 191.65 50.1279 203.367 45.5671 203.367H45.5588ZM50.1361 173.713C44.9343 185.611 42.3211 197.172 43.9153 201.196C44.17 201.826 44.5152 202.244 44.9507 202.425C45.1397 202.507 45.3452 202.548 45.5671 202.548C48.9199 202.548 56.1679 193.641 62.5613 179.023C67.7631 167.125 70.3763 155.563 68.7821 151.54C68.5274 150.909 68.1822 150.491 67.7467 150.311C64.739 149.024 56.9486 158.128 50.1279 173.713H50.1361Z" fill="#000201"/>
<mask id="mask0_841_1330" style="mask-type:luminance" maskUnits="userSpaceOnUse" x="43" y="149" width="27" height="54">
<mask id="mask1_841_1330" style="mask-type:luminance" maskUnits="userSpaceOnUse" x="43" y="149" width="27" height="54">
<path d="M49.7665 173.549C43.3813 188.151 41.1543 201.245 44.7948 202.802C48.4352 204.358 56.5625 193.788 62.9477 179.186C69.3329 164.585 71.5599 151.491 67.9194 149.934C64.279 148.377 56.1517 158.947 49.7665 173.549Z" fill="white"/>
</mask>
<g mask="url(#mask1_841_1330)">
<path d="M45.5588 203.367C45.2301 203.367 44.9179 203.31 44.6302 203.178C43.9893 202.9 43.4962 202.334 43.1593 201.499C41.4582 197.221 44.0221 185.66 49.3883 173.385C55.1571 160.209 63.7282 147.697 68.0836 149.557C68.7246 149.836 69.2176 150.401 69.5546 151.237C71.2556 155.514 68.6917 167.076 63.3255 179.35C57.9512 191.65 50.1279 203.367 45.5671 203.367H45.5588ZM50.1361 173.713C44.9343 185.611 42.3211 197.172 43.9153 201.196C44.17 201.826 44.5152 202.244 44.9507 202.425C45.1397 202.507 45.3452 202.548 45.5671 202.548C48.9199 202.548 56.1679 193.641 62.5613 179.023C67.7631 167.125 70.3763 155.563 68.7821 151.54C68.5274 150.909 68.1822 150.491 67.7467 150.311C64.739 149.024 56.9486 158.128 50.1279 173.713H50.1361Z" fill="white"/>
</g>
</mask>
<g mask="url(#mask0_841_1330)">
<path d="M70.9518 177.228L63.3751 174.016C60.2852 172.705 56.4476 174.663 54.8122 178.4C53.1769 182.136 54.3603 186.233 57.4501 187.544L65.0269 190.756L70.9518 177.228Z" fill="url(#paint22_linear_841_1330)"/>
<path d="M65.027 191.174C64.9694 191.174 64.9201 191.166 64.8626 191.141L57.2859 187.929C55.8889 187.339 54.7877 186.176 54.1796 184.66C53.4071 182.718 53.4975 180.375 54.4261 178.244C56.1518 174.311 60.2278 172.246 63.5231 173.647L71.0999 176.859C71.1985 176.9 71.2806 176.982 71.3217 177.089C71.3628 177.187 71.3628 177.302 71.3217 177.4L65.3968 190.928C65.331 191.084 65.1749 191.174 65.0187 191.174H65.027ZM61.3536 174.016C58.9294 174.016 56.4148 175.77 55.1904 178.564C54.3439 180.497 54.2618 182.603 54.952 184.349C55.478 185.66 56.423 186.659 57.6146 187.167L64.8133 190.224L70.4096 177.441L63.2191 174.385C62.6192 174.131 61.9946 174.008 61.3536 174.008V174.016Z" fill="#050004"/>
<path d="M56.4888 180.08C57.0394 178.629 56.9572 177.105 56.3655 176.122C55.6095 176.679 54.9357 177.564 54.5083 178.695C53.9906 180.047 53.9331 181.456 54.2536 182.579C55.1493 182.251 56.004 181.341 56.4888 180.08Z" fill="#F1E1FF"/>
<path d="M54.2536 182.988C54.1879 182.988 54.1221 182.972 54.0646 182.947C53.966 182.898 53.8838 182.808 53.8592 182.693C53.4976 181.44 53.5962 179.932 54.1221 178.556C54.5659 177.4 55.2726 176.417 56.119 175.794C56.2094 175.729 56.3327 175.704 56.4395 175.72C56.5546 175.745 56.6532 175.811 56.7107 175.909C57.3928 177.04 57.4503 178.695 56.8668 180.219C56.3573 181.555 55.437 182.579 54.3933 182.956C54.344 182.972 54.3029 182.98 54.2536 182.98V182.988ZM56.2259 176.777C55.6753 177.302 55.2069 178.015 54.8946 178.842C54.5001 179.883 54.3769 181.006 54.5412 181.989C55.1904 181.587 55.7574 180.85 56.1108 179.94C56.5217 178.85 56.5628 177.671 56.2259 176.786V176.777Z" fill="#050004"/>
</g>
<path d="M98.3493 179.637L86.9678 206.333L89.6632 207.316L101.135 180.932L98.3493 179.637Z" fill="#000201"/>
<path d="M89.6633 207.726C89.614 207.726 89.5647 207.726 89.5236 207.702L86.8282 206.718C86.7214 206.677 86.6392 206.595 86.5899 206.497C86.5488 206.39 86.5488 206.276 86.5899 206.177L97.9714 179.481C98.0125 179.383 98.0947 179.301 98.2015 179.26C98.3084 179.219 98.4234 179.227 98.522 179.268L101.308 180.563C101.513 180.653 101.595 180.891 101.513 181.096L90.0413 207.48C89.9756 207.636 89.8277 207.726 89.6633 207.726ZM87.5185 206.096L89.4414 206.8L100.601 181.137L98.5631 180.186L87.5185 206.096Z" fill="#000201"/>
<path d="M36.0098 129.154L36.4617 144.198L39.568 141.543L42.9455 152.449L42.3621 135.644L39.2393 137.88L36.0098 129.154Z" fill="url(#paint23_linear_841_1330)"/>
<path d="M42.9458 152.859C42.765 152.859 42.6088 152.744 42.5513 152.572L39.3546 142.264L36.7332 144.518C36.6099 144.624 36.4455 144.641 36.2976 144.583C36.1497 144.518 36.0593 144.378 36.0511 144.223L35.5991 129.178C35.5991 128.974 35.7306 128.802 35.9278 128.761C36.1251 128.72 36.3223 128.834 36.388 129.023L39.4286 137.241L42.1158 135.316C42.239 135.226 42.4034 135.217 42.5349 135.283C42.6746 135.349 42.7568 135.488 42.765 135.635L43.3484 152.441C43.3484 152.646 43.2087 152.826 43.0033 152.859C42.9786 152.859 42.954 152.859 42.9375 152.859H42.9458ZM39.5683 141.133C39.5683 141.133 39.6422 141.133 39.6833 141.15C39.8148 141.191 39.9216 141.289 39.9627 141.42L42.428 149.385L41.9761 136.422L39.4779 138.208C39.3711 138.282 39.2396 138.307 39.1163 138.266C38.993 138.225 38.8944 138.134 38.8533 138.012L36.5031 131.645L36.8564 143.313L39.3053 141.215C39.3793 141.15 39.4779 141.117 39.5765 141.117L39.5683 141.133Z" fill="#050004"/>
<path d="M5.56299 185.176L19.5002 187.938L17.7088 184.545L28.4575 183.75L12.8685 180.743L14.2738 184.07L5.56299 185.176Z" fill="url(#paint24_linear_841_1330)"/>
<path d="M19.5002 188.347C19.5002 188.347 19.4509 188.347 19.4181 188.347L5.47261 185.586C5.27538 185.545 5.13568 185.373 5.1439 185.168C5.1439 184.963 5.30004 184.799 5.50548 184.775L13.6821 183.734L12.4905 180.899C12.433 180.76 12.4577 180.596 12.5481 180.481C12.6467 180.366 12.7946 180.309 12.9425 180.334L28.5315 183.341C28.737 183.382 28.8767 183.562 28.8602 183.767C28.852 183.972 28.6877 184.136 28.4822 184.152L18.358 184.898L19.8618 187.741C19.9358 187.88 19.9194 188.052 19.829 188.175C19.7468 188.282 19.6235 188.339 19.5002 188.339V188.347ZM8.11049 185.266L18.736 187.372L17.3472 184.734C17.2815 184.611 17.2815 184.463 17.3472 184.34C17.4129 184.218 17.5362 184.144 17.6759 184.127L25.3513 183.562L13.5424 181.284L14.6436 183.906C14.6929 184.021 14.6847 184.16 14.6189 184.267C14.5532 184.381 14.4464 184.455 14.3149 184.472L8.10228 185.266H8.11049Z" fill="#050004"/>
<path d="M0.410645 146.55L17.5199 163.946L18.276 157.39L34.3005 166.658L15.1039 147.312L13.8548 153.392L0.410645 146.55Z" fill="url(#paint25_linear_841_1330)"/>
<path d="M34.3006 167.067C34.2266 167.067 34.1609 167.051 34.0951 167.01L18.6129 158.054L17.9309 163.987C17.9144 164.142 17.8076 164.273 17.6597 164.331C17.5118 164.38 17.3474 164.339 17.2324 164.232L0.11485 146.836C-0.0248511 146.697 -0.0412865 146.468 0.0737615 146.304C0.18881 146.14 0.410688 146.091 0.591478 146.181L13.5508 152.777L14.6931 147.222C14.7259 147.074 14.8328 146.951 14.9807 146.91C15.1286 146.869 15.2848 146.91 15.3916 147.017L34.5882 166.363C34.7361 166.51 34.7443 166.74 34.621 166.904C34.5389 167.01 34.4156 167.059 34.2923 167.059L34.3006 167.067ZM18.276 156.981C18.35 156.981 18.4157 156.997 18.4814 157.038L31.8435 164.765L15.3505 148.148L14.2575 153.474C14.2329 153.597 14.1507 153.703 14.0357 153.76C13.9206 153.818 13.7809 153.818 13.6741 153.76L2.48155 148.057L17.2241 163.044L17.8816 157.341C17.898 157.202 17.9802 157.087 18.1034 157.022C18.161 156.989 18.2267 156.981 18.2842 156.981H18.276Z" fill="#050004"/>
</g>
<defs>
<linearGradient id="paint0_linear_841_1330" x1="98" y1="-13" x2="159" y2="43.5" gradientUnits="userSpaceOnUse">
<stop stop-color="#6F4FF2"/>
<stop offset="1"/>
</linearGradient>
<linearGradient id="paint1_linear_841_1330" x1="90.4443" y1="220.476" x2="180" y2="270" gradientUnits="userSpaceOnUse">
<stop stop-color="#6F4FF2"/>
<stop offset="1" stop-color="#111119"/>
</linearGradient>
<linearGradient id="paint2_linear_841_1330" x1="81.9634" y1="153.626" x2="221.87" y2="153.626" gradientUnits="userSpaceOnUse">
<stop stop-color="#6F4FF2"/>
<stop offset="1" stop-color="#61FCAE"/>
</linearGradient>
<linearGradient id="paint3_linear_841_1330" x1="218.229" y1="58.1118" x2="269.466" y2="109.497" gradientUnits="userSpaceOnUse">
<stop stop-color="#FEFEFE"/>
<stop offset="0.51" stop-color="#B3A3F7"/>
<stop offset="1" stop-color="#6F4FF2"/>
</linearGradient>
<linearGradient id="paint4_linear_841_1330" x1="208.623" y1="79.2524" x2="217.014" y2="87.6673" gradientUnits="userSpaceOnUse">
<stop stop-color="white"/>
<stop offset="0.94" stop-color="#F9F9F9"/>
</linearGradient>
<linearGradient id="paint5_linear_841_1330" x1="238.412" y1="79.2524" x2="246.803" y2="87.6673" gradientUnits="userSpaceOnUse">
<stop stop-color="white"/>
<stop offset="0.94" stop-color="#F9F9F9"/>
</linearGradient>
<linearGradient id="paint6_linear_841_1330" x1="268.596" y1="79.2524" x2="276.987" y2="87.6673" gradientUnits="userSpaceOnUse">
<stop stop-color="white"/>
<stop offset="0.94" stop-color="#F9F9F9"/>
</linearGradient>
<linearGradient id="paint7_linear_841_1330" x1="223.374" y1="79.2524" x2="231.765" y2="87.6673" gradientUnits="userSpaceOnUse">
<stop stop-color="white"/>
<stop offset="0.94" stop-color="#F9F9F9"/>
</linearGradient>
<linearGradient id="paint8_linear_841_1330" x1="253.845" y1="79.2524" x2="262.236" y2="87.6673" gradientUnits="userSpaceOnUse">
<stop stop-color="white"/>
<stop offset="0.94" stop-color="#F9F9F9"/>
</linearGradient>
<linearGradient id="paint9_linear_841_1330" x1="44.7456" y1="36.7337" x2="71.9906" y2="64.0575" gradientUnits="userSpaceOnUse">
<stop stop-color="#FEFEFE"/>
<stop offset="0.51" stop-color="#B3A3F7"/>
<stop offset="1" stop-color="#6F4FF2"/>
</linearGradient>
<linearGradient id="paint10_linear_841_1330" x1="67.377" y1="38.3971" x2="82.3661" y2="38.3971" gradientUnits="userSpaceOnUse">
<stop stop-color="white"/>
<stop offset="0.11" stop-color="#EEFDFF"/>
<stop offset="0.33" stop-color="#D3FAFF"/>
<stop offset="0.55" stop-color="#BFF7FF"/>
<stop offset="0.77" stop-color="#B3F6FF"/>
<stop offset="1" stop-color="#B0F6FF"/>
</linearGradient>
<linearGradient id="paint11_linear_841_1330" x1="373.684" y1="87.0858" x2="342.285" y2="118.576" gradientUnits="userSpaceOnUse">
<stop stop-color="#FEFEFE"/>
<stop offset="0.51" stop-color="#B3A3F7"/>
<stop offset="1" stop-color="#6F4FF2"/>
</linearGradient>
<linearGradient id="paint12_linear_841_1330" x1="367.315" y1="87.3481" x2="384.589" y2="87.3481" gradientUnits="userSpaceOnUse">
<stop stop-color="white"/>
<stop offset="0.11" stop-color="#EEFDFF"/>
<stop offset="0.33" stop-color="#D3FAFF"/>
<stop offset="0.55" stop-color="#BFF7FF"/>
<stop offset="0.77" stop-color="#B3F6FF"/>
<stop offset="1" stop-color="#B0F6FF"/>
</linearGradient>
<linearGradient id="paint13_linear_841_1330" x1="293.053" y1="161.754" x2="276.954" y2="241.468" gradientUnits="userSpaceOnUse">
<stop stop-color="white"/>
<stop offset="0.22" stop-color="#FAFEFF"/>
<stop offset="0.45" stop-color="#EEFDFF"/>
<stop offset="0.68" stop-color="#D9FAFF"/>
<stop offset="0.91" stop-color="#BDF7FF"/>
<stop offset="1" stop-color="#B0F6FF"/>
</linearGradient>
<linearGradient id="paint14_linear_841_1330" x1="278.587" y1="163.924" x2="288.158" y2="178.399" gradientUnits="userSpaceOnUse">
<stop stop-color="white"/>
<stop offset="0.94" stop-color="#F9F9F9"/>
</linearGradient>
<linearGradient id="paint15_linear_841_1330" x1="307.682" y1="207.654" x2="317.254" y2="222.129" gradientUnits="userSpaceOnUse">
<stop stop-color="white"/>
<stop offset="0.94" stop-color="#F9F9F9"/>
</linearGradient>
<linearGradient id="paint16_linear_841_1330" x1="327.197" y1="208.276" x2="338.585" y2="196.2" gradientUnits="userSpaceOnUse">
<stop stop-color="#FEFEFE"/>
<stop offset="0.51" stop-color="#B3A3F7"/>
<stop offset="1" stop-color="#6F4FF2"/>
</linearGradient>
<linearGradient id="paint17_linear_841_1330" x1="296.08" y1="166.587" x2="314.032" y2="147.549" gradientUnits="userSpaceOnUse">
<stop stop-color="#FEFEFE"/>
<stop offset="0.51" stop-color="#B3A3F7"/>
<stop offset="1" stop-color="#6F4FF2"/>
</linearGradient>
<linearGradient id="paint18_linear_841_1330" x1="317.074" y1="187.002" x2="348.771" y2="153.386" gradientUnits="userSpaceOnUse">
<stop stop-color="white"/>
<stop offset="0.22" stop-color="#FAFEFF"/>
<stop offset="0.45" stop-color="#EEFDFF"/>
<stop offset="0.68" stop-color="#D9FAFF"/>
<stop offset="0.91" stop-color="#BDF7FF"/>
<stop offset="1" stop-color="#B0F6FF"/>
</linearGradient>
<linearGradient id="paint19_linear_841_1330" x1="77.6089" y1="228.162" x2="99.2195" y2="228.162" gradientUnits="userSpaceOnUse">
<stop stop-color="#6F4FF2"/>
<stop offset="1" stop-color="#61FCAE"/>
</linearGradient>
<linearGradient id="paint20_linear_841_1330" x1="120.973" y1="199.844" x2="91.3799" y2="195.552" gradientUnits="userSpaceOnUse">
<stop stop-color="#FEFEFE"/>
<stop offset="0.51" stop-color="#B3A3F7"/>
<stop offset="1" stop-color="#6F4FF2"/>
</linearGradient>
<linearGradient id="paint21_linear_841_1330" x1="41.9595" y1="176.781" x2="101.135" y2="176.781" gradientUnits="userSpaceOnUse">
<stop stop-color="#6F4FF2"/>
<stop offset="1" stop-color="#61FCAE"/>
</linearGradient>
<linearGradient id="paint22_linear_841_1330" x1="70.0939" y1="183.109" x2="54.1387" y2="180.795" gradientUnits="userSpaceOnUse">
<stop stop-color="#FEFEFE"/>
<stop offset="0.51" stop-color="#B3A3F7"/>
<stop offset="1" stop-color="#6F4FF2"/>
</linearGradient>
<linearGradient id="paint23_linear_841_1330" x1="46.0745" y1="143.039" x2="32.9391" y2="138.749" gradientUnits="userSpaceOnUse">
<stop stop-color="#FEFEFE"/>
<stop offset="0.51" stop-color="#B3A3F7"/>
<stop offset="1" stop-color="#6F4FF2"/>
</linearGradient>
<linearGradient id="paint24_linear_841_1330" x1="27.6063" y1="187.209" x2="6.53023" y2="181.68" gradientUnits="userSpaceOnUse">
<stop stop-color="#FEFEFE"/>
<stop offset="0.51" stop-color="#B3A3F7"/>
<stop offset="1" stop-color="#6F4FF2"/>
</linearGradient>
<linearGradient id="paint25_linear_841_1330" x1="35.8658" y1="162.069" x2="-0.697834" y2="150.127" gradientUnits="userSpaceOnUse">
<stop stop-color="white"/>
<stop offset="0.22" stop-color="#FAFEFF"/>
<stop offset="0.45" stop-color="#EEFDFF"/>
<stop offset="0.68" stop-color="#D9FAFF"/>
<stop offset="0.91" stop-color="#BDF7FF"/>
<stop offset="1" stop-color="#B0F6FF"/>
</linearGradient>
<clipPath id="clip0_841_1330">
<rect width="385" height="247" fill="white"/>
</clipPath>
</defs>
</svg>
