<svg xmlns="http://www.w3.org/2000/svg" width="86" height="86" viewBox="0 0 86 86" fill="none">
<rect x="32.5195" y="0.893555" width="61.6199" height="61.6199" rx="16" transform="rotate(31.5061 32.5195 0.893555)" fill="#7f49e5"/>
<mask id="mask0_52_446" style="mask-type:luminance" maskUnits="userSpaceOnUse" x="29" y="30" width="28" height="27" fill="#ffffff">
<path d="M56.5655 30.6729H29.2871V56.0028H56.5655V30.6729Z" fill="#7f49e5"/>
</mask>
<g mask="url(#mask0_52_446)">
<path d="M29.2871 30.9649C29.2871 31.0623 30.1639 33.8876 31.2356 37.1999C33.0866 43.2401 33.0866 43.435 31.2356 49.3778C30.2614 52.6904 29.482 55.5156 29.5794 55.613C29.9691 56.1002 55.5913 43.9221 55.5913 43.3376C55.5913 42.9479 53.0583 41.4865 49.8433 40.0252C46.7258 38.6613 40.783 35.9334 36.6913 34.0824C32.5995 32.2314 29.2871 30.8674 29.2871 30.9649ZM41.465 38.4664L49.2588 42.2659L42.0495 42.0711L34.8402 41.8762L33.5737 38.1742C32.8918 36.2257 32.5995 34.5695 32.9892 34.6669C33.3789 34.6669 37.1784 36.4205 41.465 38.4664ZM41.465 48.2087C32.7944 52.3981 32.1124 52.5929 32.6969 50.8393C35.2299 43.8247 34.4505 44.3118 42.1469 44.4092L49.2588 44.5066L41.465 48.2087Z" fill="#ffffff"/>
</g>
</svg>